<!-- Generated by IcoMoon.io -->
<svg version="1.1" xmlns="http://www.w3.org/2000/svg" width="32" height="32" viewBox="0 0 32 32">
<path fill="#111" d="M3.75 11.375c-2.313 1.188-3.75 2.563-3.75 3.625 0 1.125 1.313 2.375 3.25 3.438 3.75 2.125 10.875 3.75 17.063 3.75 8.563 0 11.688-3.188 11.688-7.125s-3.125-7.188-11.688-7.188c-5.813 0-12.438 1.438-16.563 3.5zM6.188 9.625c0.25-0.125-0.125-0.375-0.125-0.375l-1.875-2.125c-0.25-0.313-0.75-0.563-1.188-0.563h-1.125c-0.438 0.063-0.625 0.375-0.5 0.75l0.813 3.438c0 0 0.063 0.438 0.188 0.438 0.188 0.063 0.438-0.125 0.75-0.313 1.125-0.625 1.25-0.688 3.063-1.25zM2.063 19.375l-0.813 3.5c-0.125 0.375 0.125 0.688 0.5 0.688h1.188c0.375 0 0.875-0.25 1.125-0.563l1.938-2.063c0 0 0.375-0.313 0.063-0.375-1.813-0.625-1.875-0.688-3.063-1.313-0.25-0.125-0.563-0.313-0.688-0.313-0.188 0.063-0.25 0.438-0.25 0.438zM9.438 21.75c-0.375-0.063-0.5 0.313-0.313 0.625 0.563 1.125 1.188 2.438 1.188 2.438 0.188 0.438 0.688 0.625 1.563 0.625h10.188c0.875 0 1.25-0.125 1.563-0.625l0.75-1.688c0 0 0-0.313-0.375-0.25-1.375 0.188-2.25 0.313-3.75 0.313-3.813 0-7.063-0.5-10.813-1.438zM20.5 25.125c-0.375 0-0.625-0.313-0.625-0.688s0.25-0.688 0.625-0.688c0.375 0 0.688 0.313 0.688 0.688s-0.313 0.688-0.688 0.688zM18.063 25.125c-0.375 0-0.625-0.313-0.625-0.688s0.25-0.688 0.625-0.688c0.375 0 0.688 0.313 0.688 0.688s-0.313 0.688-0.688 0.688zM15.625 25.125c-0.375 0-0.688-0.313-0.688-0.688s0.313-0.688 0.688-0.688c0.375 0 0.625 0.313 0.625 0.688s-0.25 0.688-0.625 0.688zM13.188 25.125c-0.375 0-0.688-0.313-0.688-0.688s0.313-0.688 0.688-0.688c0.375 0 0.625 0.313 0.625 0.688s-0.25 0.688-0.625 0.688z"></path>
</svg>
