<!-- Generated by IcoMoon.io -->
<svg version="1.1" xmlns="http://www.w3.org/2000/svg" width="32" height="32" viewBox="0 0 32 32">
<path fill="#111" d="M31.5 14.375c0.313 0.438 0.5 0.938 0.5 1.5v6.25c0 1.188-0.938 2.188-2.125 2.313-0.625 1.125-1.875 1.875-3.25 1.875s-2.563-0.75-3.25-1.813h-14.75c-0.688 1.063-1.875 1.813-3.25 1.813s-2.625-0.75-3.25-1.875c-1.188-0.125-2.125-1.125-2.125-2.313v-14.063c0-1.313 1.063-2.375 2.375-2.375h18.625c1.313 0 2.438 1.063 2.438 2.375v1.438h3c0.75 0 1.438 0.313 1.875 0.875zM5.375 23.938c0.75 0 1.375-0.625 1.375-1.438 0-0.75-0.625-1.375-1.375-1.375-0.813 0-1.438 0.625-1.438 1.375 0 0.813 0.625 1.438 1.438 1.438zM16.625 15.125v-1.438c0-0.625-0.563-1.188-1.188-1.188h-1.813v-1.813c0-0.063 0-0.125-0.063-0.188-0.063-0.563-0.563-1-1.125-1h-1.438c-0.563 0-1.063 0.438-1.188 1 0 0.063 0 0.125 0 0.188v1.813h-1.813c-0.688 0-1.188 0.563-1.188 1.188v1.438c0 0.688 0.5 1.188 1.188 1.188h1.813v1.813c0 0.688 0.5 1.25 1.188 1.25h1.438c0.625 0 1.188-0.563 1.188-1.25v-1.813h1.813c0.625 0 1.188-0.5 1.188-1.188zM26.625 23.938c0.75 0 1.375-0.625 1.375-1.438 0-0.75-0.625-1.375-1.375-1.375s-1.375 0.625-1.375 1.375c0 0.813 0.625 1.438 1.375 1.438zM29.625 17v-1.125l-3.188-4h-3v5.125z"></path>
</svg>
