<!-- Generated by IcoMoon.io -->
<svg version="1.1" xmlns="http://www.w3.org/2000/svg" width="32" height="32" viewBox="0 0 32 32">
<path fill="#111" d="M32.063 20.688c-0.125 0.438-0.188 0.813-0.313 1.25-0.875 2.563-3.438 4.313-6.188 4.063s-5-2.313-5.438-5c-0.063-0.5-0.063-0.938-0.063-1.375 0-0.313 0.125-0.625 0.25-0.875 0.313-0.563 0.688-1.063 1-1.625 0.313 0.5 0.625 1 0.938 1.438 0.063 0.125 0 0.25 0 0.313-0.75 2.625 1.188 5.188 3.938 5.125 2-0.063 3.75-1.688 3.875-3.75s-1.375-3.875-3.375-4.188c-0.375-0.063-0.813 0-1.188 0-0.188 0-0.313 0-0.375-0.188-0.188-0.563-0.375-1.063-0.563-1.688 0.688-0.188 1.313-0.25 2-0.188 2.625 0.25 4.75 2.063 5.375 4.625 0 0.25 0.063 0.438 0.125 0.688 0 0.438 0 0.938 0 1.375zM0.063 19.313c0.188-0.563 0.25-1.188 0.5-1.75 1.188-2.75 4.375-4.188 7.25-3.313 0.125 0.063 0.188 0.063 0.313 0.125-0.313 0.438-0.625 0.813-0.875 1.25-0.25 0.313-0.438 0.438-0.875 0.438-2.188-0.25-4.063 1.375-4.313 3.563-0.188 2.063 1.313 4 3.438 4.313 1.375 0.188 2.563-0.25 3.563-1.313 0.125-0.125 0.25-0.188 0.438-0.125 0.563 0.125 1.188 0.25 1.813 0.438-0.063 0.125-0.125 0.188-0.188 0.313-1.313 2-3.75 3.125-6.063 2.688-2.5-0.438-4.438-2.313-4.875-4.75-0.063-0.188-0.063-0.313-0.125-0.5 0-0.438 0-0.938 0-1.375zM7 19.688c2.188 0.313 4.25 0.625 6.313 0.938-0.063 0.5-0.188 1.063-0.313 1.625-0.125 0-0.313-0.063-0.5-0.063-1.813-0.438-3.625-0.875-5.5-1.313-0.188-0.063-0.375-0.063-0.563 0-0.5 0.188-1.063 0-1.25-0.5-0.25-0.5 0-1.063 0.563-1.313 0.125-0.063 0.25-0.125 0.313-0.25 1.5-1.938 2.938-3.875 4.438-5.813 0.125-0.25 0.188-0.375 0.063-0.563-0.125-0.125-0.125-0.313-0.188-0.438 0.625-0.188 1.188-0.375 1.813-0.563 0 0 0.063 0 0.063 0.063 0.125 0.5 0.438 0.563 0.938 0.563 2.313-0.063 4.688-0.063 7.063-0.063 0.125 0 0.25 0 0.438 0-0.063-0.188-0.125-0.375-0.188-0.563-0.125-0.375-0.25-0.813-0.375-1.25-0.125-0.563 0.313-1.188 0.938-1.188 0.438 0 0.875 0 1.25 0 0 0.063 0 0.125 0 0.125-0.375 0.25-0.313 0.563-0.188 1 0.625 1.813 1.188 3.625 1.813 5.438 0.438 1.25 1.188 2.313 2 3.313 0.063 0.125 0.25 0.125 0.313 0.188 0.5 0.125 0.813 0.563 0.813 1-0.063 0.5-0.5 0.875-0.938 0.938-0.5 0-0.938-0.313-1-0.813-0.063-0.25-0.188-0.438-0.313-0.563-0.438-0.375-0.938-0.813-1.313-1.188-0.688-0.688-1.125-1.438-1.438-2.313-0.125-0.438-0.313-0.875-0.438-1.375-0.063 0-0.063 0-0.063 0-1.063 1.75-2.125 3.5-3.125 5.188-0.563-0.313-1.125-0.625-1.688-1 1-1.563 1.938-3.188 3-4.938-2.125 0-4.188 0-6.313 0 0.75 1.688 1.5 3.313 2.25 4.875-0.563 0.313-1.125 0.563-1.75 0.875-0.875-1.875-1.75-3.75-2.688-5.75-1.375 1.938-2.813 3.813-4.25 5.688zM10.5 8c0.813 0 1.688 0 2.563 0 0.25 0 0.5 0.063 0.688 0.125 0.313 0.125 0.438 0.438 0.25 0.75-0.125 0.188-0.25 0.375-0.438 0.5-1.063 0.813-2.188 1.438-3.563 1.625-0.625 0.063-1.125-0.063-1.563-0.438-0.563-0.438-1-1-1.25-1.625-0.25-0.5 0-0.938 0.563-0.938 0.938 0 1.813 0 2.75 0zM16.063 23.938c-1.125 0-2-0.875-2-2 0-1.063 0.875-2 2-2s2 0.938 2 2.063c0 1.063-0.875 2-2 1.938zM21.563 8c-0.5 0-1 0-1.438 0-0.625 0-1.063-0.438-1.063-1s0.438-1 1.063-1c0.938 0 1.938 0 2.875 0 0.625 0 1.063 0.438 1.063 1s-0.438 1-1.063 1c0 0 0 0 0 0-0.5 0-0.938 0-1.438 0zM12.063 19.375c-0.688-0.063-1.313-0.188-2-0.25-0.063 0-0.125-0.125-0.125-0.188-0.063-0.125-0.125-0.313-0.188-0.438-0.25-0.375-0.125-0.625 0.125-0.938 0.313-0.375 0.625-0.813 0.938-1.25 0.688 0.938 1.125 1.938 1.25 3.063z"></path>
</svg>
