<!-- Generated by IcoMoon.io -->
<svg version="1.1" xmlns="http://www.w3.org/2000/svg" width="32" height="32" viewBox="0 0 32 32">
<path opacity="0.95" fill="#111" d="M24.116 6.753c0.028-0.19 0.16-0.388 0.363-0.411 0.235-0.036 0.473 0.17 0.468 0.408 0.001 0.291 0 0.582-0 0.872-0.003 0.065 0.013 0.128 0.037 0.188 0.116 0.046 0.233 0.13 0.258 0.26 0.026 0.147 0.021 0.299 0.009 0.447 0.025 0.119 0.006 0.241 0.014 0.362-0.007 0.325-0.001 0.651 0.001 0.977 0.017 0.164-0.13 0.323-0.294 0.321-0.121 0.011-0.234-0.063-0.291-0.168-0.053-0.087-0.037-0.192-0.041-0.288 0.007-0.397 0.002-0.794 0.004-1.191-0.005-0.067 0.025-0.147-0.025-0.203-0.090-0.102-0.184-0.2-0.269-0.307-0.115 0.11-0.28 0.125-0.406 0.214 0.154 0.303 0.223 0.659 0.15 0.995-0.083 0.476-0.347 0.927-0.76 1.189-0.314 0.217-0.697 0.283-1.065 0.346-0.13 0.016-0.274 0.025-0.385-0.055-0.209-0.144-0.257-0.479-0.070-0.661 0.139-0.165 0.367-0.149 0.557-0.2 0.301-0.069 0.601-0.246 0.739-0.532 0.174-0.34 0.085-0.779-0.184-1.043-0.161-0.135-0.387-0.056-0.577-0.075 0.077 0.151 0.085 0.337 0.017 0.493-0.072 0.146-0.236 0.22-0.391 0.233-0.327 0.025-0.649 0.093-0.974 0.126 0.379 1.202 0.81 2.388 1.201 3.586 0.071 0.187 0.12 0.382 0.211 0.561 0.315-0.14 0.658-0.194 0.994-0.254 1.212-0.22 2.485-0.070 3.614 0.418 0.113 0.054 0.24 0.104 0.306 0.218 0.099 0.156 0.051 0.414-0.136 0.48-0.113 0.038-0.23-0.016-0.336-0.051-0.691-0.284-1.428-0.469-2.177-0.486-0.693-0.006-1.396 0.081-2.043 0.339 0.036 0.067 0.026 0.22 0.137 0.19 0.188-0.047 0.373-0.105 0.564-0.14 0.572-0.126 1.164-0.136 1.745-0.090 1.349 0.13 2.634 0.776 3.561 1.761 1.175 1.214 1.734 2.972 1.55 4.643-0.109 0.857-0.39 1.693-0.824 2.441-0.089 0.162-0.212 0.304-0.291 0.472-0.532 0.697-1.219 1.279-2.007 1.668-0.961 0.474-2.048 0.672-3.115 0.593-0.102-0.024-0.207-0.026-0.311-0.037-0.067-0.023-0.138-0.027-0.207-0.036-0.047-0.018-0.097-0.024-0.146-0.030-0.054-0.021-0.111-0.028-0.167-0.037-0.050-0.022-0.104-0.030-0.157-0.033l-0.003-0.022c-0.041-0.005-0.081-0.010-0.122-0.015-0.046-0.018-0.092-0.033-0.137-0.051-0.019-0.004-0.058-0.011-0.077-0.015-0.068-0.028-0.138-0.051-0.208-0.071-0.056-0.028-0.114-0.052-0.174-0.069-0.080-0.040-0.162-0.075-0.247-0.104-0.065-0.034-0.134-0.059-0.2-0.091-0.049-0.019-0.095-0.042-0.139-0.070-0.421-0.21-0.805-0.487-1.167-0.786-0.287-0.285-0.545-0.599-0.769-0.936-0.392-0.562-0.649-1.204-0.852-1.855-0.179 0.088-0.354 0.186-0.535 0.268-0.227-0.601-0.302-1.246-0.304-1.884-0.014-0.56 0.078-1.117 0.233-1.653 0.15-0.468 0.366-0.914 0.632-1.327 0.174 0.050 0.322 0.153 0.48 0.236 0.304-0.543 0.688-1.041 1.145-1.465 0.236-0.216 0.467-0.442 0.739-0.611 0.173-0.108 0.331-0.24 0.512-0.335-0.015-0.043-0.030-0.086-0.043-0.13-0.28 0.144-0.552 0.307-0.794 0.51-0.112 0.086-0.216 0.198-0.36 0.226-0.153 0.001-0.295-0.118-0.328-0.266-0.024-0.151 0.056-0.303 0.175-0.392 0.334-0.283 0.682-0.555 1.066-0.767-0.054-0.152-0.115-0.301-0.173-0.452-0.707 0.835-1.422 1.662-2.114 2.509-0.409 0.465-0.807 0.939-1.208 1.411-0.324 0.393-0.644 0.79-0.985 1.17-0.294 0.338-0.562 0.699-0.868 1.028 0.609 0.681 0.564 1.821-0.081 2.461-0.107 0.118-0.239 0.209-0.357 0.314 0.062 0.153 0.095 0.316 0.145 0.473 0.059 0.199 0.133 0.393 0.181 0.596 0.153 0.002 0.339-0.024 0.447 0.112 0.183 0.179 0.069 0.555-0.196 0.57-0.42 0.003-0.841 0-1.261 0.003-0.26 0.015-0.441-0.325-0.289-0.535 0.105-0.188 0.343-0.151 0.523-0.149-0.102-0.284-0.164-0.58-0.259-0.866-0.083 0.009-0.167 0.015-0.249 0.023-0.334-0.011-0.67-0.095-0.953-0.275-0.242-0.156-0.434-0.376-0.601-0.607-0.213 0.483-0.396 0.984-0.684 1.43-0.063 0.114-0.153 0.213-0.204 0.333l-0.027 0.003 0.006 0.039-0.027 0.002c-0.029 0.043-0.060 0.085-0.089 0.128l-0.027 0.002 0.005 0.030c-0.086 0.086-0.163 0.18-0.251 0.263l0.003 0.029-0.040-0.005 0.005 0.030c-0.011 0.011-0.033 0.034-0.044 0.045l-0.029-0.005 0.006 0.040-0.040-0.006 0.006 0.040-0.040-0.006 0.007 0.030c-0.011 0.011-0.032 0.032-0.043 0.043l-0.032-0.008 0.006 0.042-0.030-0.005c-0.092 0.091-0.182 0.188-0.292 0.258l-0.004 0.017c-0.053 0.031-0.101 0.071-0.143 0.117l-0.029-0.004v0.028c-0.087 0.039-0.148 0.118-0.236 0.155l-0.006 0.021c-0.049 0.010-0.091 0.039-0.121 0.079l-0.035-0.003c-0.039 0.041-0.088 0.068-0.137 0.094-0.018 0.013-0.052 0.037-0.070 0.050-0.009 0-0.027 0-0.036 0-0.045 0.033-0.091 0.065-0.142 0.090-0.018 0.009-0.052 0.026-0.069 0.035-0.037 0.018-0.074 0.035-0.11 0.052-0.078 0.041-0.159 0.079-0.243 0.107-0.045 0.018-0.089 0.037-0.133 0.056-0.084 0.025-0.164 0.062-0.248 0.086-0.046 0.017-0.091 0.034-0.136 0.052-0.019 0.004-0.057 0.013-0.076 0.016-0.142 0.061-0.297 0.080-0.445 0.121-0.058 0.009-0.117 0.019-0.172 0.038-0.158 0.014-0.312 0.058-0.472 0.053l-0.004 0.022c-0.397 0.016-0.795 0.014-1.192 0.003l0.001-0.025c-0.083-0.003-0.166-0.007-0.249-0.008l0.004-0.027c-0.069-0.003-0.139-0.006-0.208-0.006 0-0.008 0-0.023 0-0.031-0.058-0.002-0.116-0.005-0.173-0.007-0.001-0.007-0.002-0.022-0.002-0.029-0.056-0.003-0.113-0.006-0.169-0.009-0-0.007-0.001-0.022-0.001-0.029-0.035-0.001-0.104-0.003-0.139-0.005l0.001-0.028c-0.042-0.007-0.093 0.005-0.124-0.031-0.031-0.003-0.093-0.011-0.124-0.014l0.002-0.027c-0.023-0.002-0.068-0.006-0.091-0.007-0.035-0.028-0.076-0.040-0.123-0.037l0.005-0.021c-0.052 0.001-0.093-0.016-0.123-0.052l-0.036 0.015c-0.031-0.055-0.109-0.030-0.14-0.083-0.008 0.003-0.025 0.009-0.034 0.012-0.061-0.056-0.15-0.058-0.212-0.111l-0.030 0.004c-0.125-0.075-0.267-0.119-0.386-0.204-0.035-0.018-0.070-0.035-0.106-0.050-0.050-0.030-0.096-0.065-0.14-0.102-0.012 0.002-0.035 0.007-0.046 0.010l-0.001-0.042-0.040 0.007-0.003-0.041c-0.013-0-0.038-0.001-0.051-0.001-0.041-0.047-0.093-0.079-0.144-0.112-0.034-0.025-0.068-0.049-0.104-0.069-0.056-0.040-0.108-0.086-0.159-0.132l-0.019 0.001c-0.050-0.046-0.1-0.091-0.154-0.132-0.112-0.073-0.176-0.197-0.272-0.288-0.946-1.070-1.552-2.46-1.596-3.895-0.005-0.406 0.009-0.814 0.077-1.215 0.066-0.395 0.146-0.791 0.315-1.157 0.082-0.174 0.163-0.35 0.246-0.524-0.015 0.016-0.045 0.048-0.059 0.064-0.218-0.005-0.436-0.003-0.653-0.003-0.025-0.063 0.008-0.124 0.035-0.179 0.357-0.836 0.945-1.572 1.669-2.119 0.041 0.089 0.015 0.189 0.016 0.284 0.018 0.834-0.001 1.668 0.007 2.502-0.057 0.208-0.152 0.404-0.219 0.608-0.221 0.575-0.269 1.2-0.246 1.81 0.034 0.687 0.248 1.356 0.553 1.97 0.171 0.336 0.399 0.639 0.636 0.931 0.113 0.142 0.258 0.254 0.38 0.387 0.079 0.072 0.171 0.128 0.256 0.194 0.046 0.028 0.090 0.058 0.134 0.090 0.032 0.015 0.064 0.031 0.095 0.048l0.002 0.020c0.039 0.015 0.078 0.032 0.117 0.050 0.035 0.032 0.076 0.055 0.122 0.068l0.004 0.021c0.020 0.008 0.060 0.024 0.080 0.032 0.018 0.009 0.053 0.027 0.071 0.036 0.018 0.011 0.052 0.033 0.069 0.044 0.010-0 0.030-0.001 0.039-0.001 0.058 0.058 0.15 0.053 0.206 0.112l0.031-0.007c0.056 0.044 0.123 0.072 0.195 0.077l-0.002 0.029c0.027 0.001 0.081 0.004 0.109 0.006l-0.007 0.030c0.028 0.001 0.085 0.004 0.113 0.005l-0.009 0.030c0.029 0.001 0.086 0.003 0.115 0.005l-0.006 0.028c0.059 0.004 0.118 0.008 0.177 0.012l-0.009 0.028c0.060 0.001 0.12 0.004 0.18 0.007l-0.003 0.028c0.062 0.002 0.123 0.005 0.185 0.007l-0.013 0.028c0.085-0 0.17 0.005 0.255 0.008l-0.010 0.025c0.44 0.012 0.884 0.029 1.32-0.043 0.054-0.028 0.116-0.027 0.176-0.035 0.056-0.018 0.115-0.028 0.174-0.038 0.079-0.029 0.161-0.050 0.243-0.070 0.044-0.018 0.089-0.034 0.134-0.051 0.094-0.032 0.187-0.068 0.279-0.107 0.037-0.016 0.075-0.031 0.113-0.044 0.033-0.019 0.067-0.038 0.101-0.056 0.037-0.015 0.073-0.032 0.11-0.047 0.042-0.032 0.087-0.060 0.137-0.076 0.045-0.029 0.089-0.060 0.135-0.089 0.078-0.029 0.136-0.089 0.203-0.136 0.088-0.050 0.165-0.114 0.243-0.177 0.010-0.008 0.029-0.024 0.039-0.032 0.889-0.683 1.452-1.744 1.621-2.843-0.028-0.005-0.083-0.014-0.111-0.019-0.141 0.006-0.284-0.019-0.422 0.014-0.026-0.004-0.077-0.012-0.103-0.016-0.957-0.001-1.913 0.001-2.87 0-0.121 0.159-0.261 0.307-0.433 0.412-0.098 0.070-0.218 0.101-0.315 0.173-0.017 0.171-0 0.344-0.007 0.516 0.111 0.002 0.226-0.012 0.333 0.023 0.215 0.086 0.273 0.4 0.119 0.567-0.070 0.078-0.175 0.118-0.278 0.12-0.367-0.019-0.734-0.003-1.101-0.014-0.271-0.024-0.41-0.395-0.224-0.592 0.117-0.152 0.323-0.081 0.486-0.098 0-0.183-0.002-0.367 0.004-0.55-0.292-0.124-0.571-0.321-0.715-0.611-0.165-0.335-0.192-0.748-0.023-1.086 0.109-0.216 0.274-0.413 0.493-0.522 0.278-0.148 0.608-0.172 0.914-0.114 0.41 0.099 0.717 0.447 0.867 0.829 1.133 0.003 2.266 0.010 3.398-0.004 0.008-0.543-0.113-1.080-0.305-1.585-0.328-0.836-0.938-1.543-1.665-2.061-0.038-0.723-0.004-1.448-0.017-2.171 0.445-0.463 0.888-0.929 1.361-1.363-0.224-0.693-0.477-1.376-0.716-2.063-0.274-0.175-0.532-0.372-0.789-0.569-0.106-0.082-0.245-0.095-0.36-0.162-0.235-0.121-0.523-0.242-0.601-0.521-0.106-0.272 0.142-0.573 0.421-0.572 1.15-0.006 2.3 0.001 3.45-0 0.223-0.011 0.456 0.12 0.534 0.334 0.116 0.24-0.067 0.554-0.329 0.584-0.3 0.028-0.603-0.014-0.902 0.011-0.178 0.146-0.328 0.323-0.493 0.483-0.054 0.038-0.013 0.102-0.001 0.151 0.226 0.627 0.425 1.265 0.661 1.889 0.22-0.013 0.437-0.055 0.655-0.089 0.724-0.105 1.451-0.188 2.172-0.314 0.899-0.122 1.791-0.288 2.692-0.397 0.851-0.136 1.705-0.248 2.555-0.387-0.084-0.26-0.178-0.517-0.261-0.778-0.11-0.341-0.252-0.672-0.344-1.019-0.042-0.149-0.028-0.329 0.092-0.44 0.102-0.111 0.26-0.131 0.402-0.144 0.351-0.031 0.698-0.102 1.049-0.132-0.123-0.133-0.182-0.325-0.142-0.503 0.034-0.175 0.209-0.307 0.386-0.298 0.372-0.004 0.746-0.002 1.119-0.011 0.213-0.008 0.414 0.087 0.628 0.074 0.318 0.001 0.639-0.24 0.681-0.564zM20.531 11.537c-2.348 0.343-4.694 0.702-7.041 1.047-0.243 0.035-0.485 0.073-0.728 0.104 0.032 0.206 0.127 0.397 0.193 0.594 0.375 1.101 0.763 2.199 1.145 3.298 0.242 0.669 0.45 1.348 0.709 2.010 0.185-0.001 0.369 0.028 0.547 0.076 0.31-0.385 0.61-0.778 0.935-1.15 0.517-0.602 1.013-1.222 1.534-1.822 0.842-1.029 1.72-2.028 2.566-3.054 0.189-0.23 0.402-0.441 0.579-0.681-0.056-0.145-0.104-0.293-0.151-0.441-0.097-0.006-0.193 0.004-0.288 0.020zM11.229 13.877c0.265 0.179 0.536 0.354 0.757 0.587 0.1 0.108 0.215 0.227 0.222 0.383-0.010 0.165-0.154 0.324-0.329 0.306-0.111 0.011-0.193-0.073-0.271-0.139-0.267-0.238-0.539-0.489-0.879-0.616-0.044 0.042-0.088 0.084-0.132 0.126 0.418 0.297 0.841 0.595 1.199 0.966 0.408 0.433 0.775 0.912 1.021 1.456 0.321 0.696 0.537 1.451 0.557 2.22 0.138-0.149 0.284-0.304 0.48-0.376-0.114-0.365-0.231-0.729-0.363-1.088-0.147-0.394-0.268-0.797-0.42-1.189-0.256-0.78-0.55-1.547-0.817-2.323-0.117-0.33-0.22-0.666-0.364-0.985-0.228 0.217-0.447 0.443-0.661 0.673zM23.126 15.174c0.021 0.111 0.074 0.213 0.112 0.319 0.105 0.283 0.203 0.568 0.314 0.849 0.266 0.69 0.494 1.395 0.785 2.076 0.011 0.075 0.095 0.045 0.146 0.055 0.239 0.008 0.477 0.093 0.669 0.238 0.369 0.278 0.526 0.8 0.373 1.236-0.118 0.372-0.444 0.66-0.82 0.756-0.305 0.083-0.637 0.013-0.906-0.145-0.282-0.182-0.501-0.48-0.543-0.818-0.054-0.316 0.047-0.638 0.222-0.9-0.022-0.040-0.047-0.078-0.062-0.12-0.151-0.448-0.334-0.884-0.494-1.33-0.242-0.609-0.45-1.231-0.699-1.837-0.612 0.338-1.114 0.846-1.52 1.409-0.514 0.724-0.81 1.603-0.819 2.492-0.024 0.703 0.104 1.413 0.383 2.059 0.219 0.547 0.567 1.038 0.99 1.446 0.053 0.053 0.116 0.101 0.151 0.17 0.146 0.136 0.319 0.238 0.484 0.35 0.104 0.060 0.21 0.118 0.315 0.177 0.071 0.031 0.14 0.068 0.209 0.104 0.018 0.009 0.055 0.026 0.073 0.035 0.084 0.034 0.17 0.066 0.247 0.114 0.008-0 0.025-0.002 0.034-0.002 0.044 0.022 0.090 0.044 0.136 0.063 0.105 0.035 0.211 0.066 0.316 0.103 0.047 0.006 0.096 0.014 0.142 0.032 0.059 0.009 0.119 0.016 0.176 0.038 0.063 0.008 0.127 0.014 0.191 0.018l-0.001 0.022c0.097 0.003 0.197 0.003 0.291 0.034 0.918 0.073 1.863-0.1 2.667-0.56 0.295-0.159 0.553-0.375 0.817-0.577 0.52-0.46 0.895-1.061 1.167-1.696 0.201-0.434 0.289-0.908 0.349-1.379 0.099-1.079-0.185-2.198-0.829-3.073-0.718-0.998-1.83-1.713-3.044-1.918-0.674-0.098-1.373-0.035-2.023 0.164z"></path>
<path opacity="0.95" fill="#111" d="M3.569 11.326c-0.033-0.692 0.565-1.341 1.26-1.356 1.338-0.004 2.677 0 4.016-0.004 0.162-0.005 0.326 0.015 0.475 0.082 0.652 0.258 0.976 1.101 0.689 1.736-0.117 0.268-0.334 0.496-0.608 0.603-0.21 0.080-0.435 0.064-0.655 0.063-0.043 0.002-0.082-0.014-0.119-0.032-0.004 0.010-0.012 0.030-0.015 0.040-0.085-0.023-0.175 0.007-0.257-0.027-0.070 0.034-0.149 0.013-0.224 0.016-0.183-0.012-0.367-0.002-0.55-0.001-0.067-0.020-0.14 0.011-0.204-0.018-0.047 0.015-0.095 0.023-0.143 0.030-0.005-0.31 0-0.62-0.005-0.93 0.007-0.109-0.078-0.211-0.183-0.232-0.136-0.034-0.303-0.052-0.42 0.043-0.055 0.042-0.085 0.106-0.118 0.165 0.018 0.316 0.005 0.633 0.012 0.95-0.074-0.021-0.153-0.032-0.228-0.013-0.104-0.021-0.209 0.021-0.311-0.010-0.069 0.019-0.141 0.014-0.211 0.004-0.371 0.016-0.743 0.009-1.115 0.015-0.303 0.005-0.597-0.143-0.792-0.371-0.175-0.213-0.273-0.482-0.294-0.755z"></path>
<path opacity="0.95" fill="#111" d="M23.384 11.033c0.125-0.055 0.308-0.081 0.403 0.041 0.050 0.047 0.059 0.118 0.062 0.184 0.009 0.335 0.003 0.67 0.012 1.005-0.041 0.248-0.37 0.284-0.54 0.146-0.079-0.055-0.106-0.15-0.147-0.232-0.194-0.041-0.418 0.045-0.59-0.078-0.114-0.095-0.108-0.258-0.113-0.392-0.006-0.119 0.053-0.246 0.163-0.299 0.176-0.047 0.363-0.022 0.539-0.069 0.057-0.11 0.091-0.245 0.212-0.305z"></path>
<path opacity="0.95" fill="#111" d="M4.051 12.946c0.822 0.004 1.645 0.009 2.468 0.013-0.001 0.496-0.002 0.993 0.002 1.49-0.791-0.002-1.584-0.012-2.375 0.009l0.011-0.058c-0.017 0.018-0.050 0.053-0.067 0.071-0.058-0.154-0.028-0.326-0.029-0.488-0.013-0.345-0.004-0.691-0.010-1.036z"></path>
<path opacity="0.95" fill="#111" d="M7.231 12.952c0.818-0.001 1.636 0.003 2.454-0.006 0.004 0.021 0.013 0.062 0.017 0.083 0.005 0.473-0.011 0.946 0.007 1.419-0.813 0-1.625-0.005-2.438 0.001l-0.035-0.015c-0.018-0.493 0.001-0.988-0.005-1.482z"></path>
<path opacity="0.95" fill="#111" d="M4.050 15.010c0.019-0.006 0.058-0.018 0.078-0.024 0.068 0.023 0.139 0.012 0.209 0.012 0.726 0 1.452 0.004 2.177 0.008 0.009 0.169-0.024 0.341 0.006 0.508l-0.028 0.031c0.038 0.102 0.031 0.216 0.009 0.321 0.016 0.042 0.016 0.085 0.002 0.129-0.008 0.157 0.132 0.299 0.288 0.296 0.095-0.001 0.195 0.012 0.284-0.028 0.073-0.052 0.154-0.124 0.15-0.222 0.009-0.339 0.008-0.678 0.007-1.017 0.058-0.049 0.143-0.010 0.212-0.020 0.339-0.011 0.681 0.019 1.017-0.015 0.058 0.031 0.124 0.017 0.187 0.015 0.263-0.016 0.533 0.027 0.793-0.020 0.078 0.045 0.168 0.018 0.252 0.014 0.027 0.677-0.007 1.359 0.015 2.038-0.036 0.004-0.072 0.008-0.107 0.013 0.029 0.002 0.088 0.006 0.118 0.008-0.014 0.023-0.042 0.069-0.056 0.093l0.045-0.014c-0.058 0.201-0.152 0.395-0.309 0.537-0.173 0.165-0.416 0.241-0.652 0.239-0.408 0.001-0.816-0.008-1.223-0.001-0.061 0.002-0.126-0.016-0.182 0.018-0.077-0.032-0.161-0.015-0.242-0.019-0.093 0.003-0.189-0.016-0.279 0.017-0.043-0.038-0.096-0.021-0.141-0.001-0.046-0.025-0.095-0.028-0.141-0.001-0.077-0.029-0.159-0.015-0.238-0.016-0.127 0.007-0.256-0.015-0.381 0.015-0.163-0.025-0.333-0.018-0.496 0.001-0.037-0.011-0.075-0.009-0.113-0.006-0.089-0.008-0.18-0.010-0.269 0.008-0.174-0.017-0.349-0.043-0.504-0.13-0.187-0.097-0.333-0.267-0.412-0.461-0.083-0.177-0.066-0.377-0.069-0.567-0.002-0.587 0.004-1.173-0.006-1.76z"></path>
</svg>
