<!-- Generated by IcoMoon.io -->
<svg version="1.1" xmlns="http://www.w3.org/2000/svg" width="32" height="32" viewBox="0 0 32 32">
<path fill="#111" d="M21.847 12.798l-5.684-5.247c-0.169-0.156-0.391-0.243-0.621-0.243h-9.149c-0.369 0-0.702 0.222-0.845 0.563l-2.053 4.926h-2.135c-0.505 0-0.915 0.41-0.915 0.915 0 2.148 0.464 4.002 1.24 5.555 0.067 0.135 0.136 0.265 0.206 0.391h-0.989c-0.256 0-0.457 0.207-0.457 0.462v0.906c0 0.259 0.205 0.462 0.457 0.462h7.319c0-2.274 1.843-4.117 4.117-4.117s4.117 1.843 4.117 4.117h8.234c0.243 0 0.475-0.096 0.647-0.268l1.104-1.104h4.657c0.247 0 0.453-0.207 0.453-0.462v-0.906c0-0.259-0.205-0.462-0.459-0.462h-5.031c-0.243 0-0.475 0.096-0.647 0.268l-1.104 1.104h-1.987l5.3-5.3c0.576-0.576 0.168-1.562-0.647-1.562h-5.131zM5.479 12.798l1.525-3.659h8.181l3.964 3.659h-13.67zM12.341 24.691c1.768 0 3.202-1.434 3.202-3.202s-1.434-3.202-3.202-3.202c-1.768 0-3.202 1.434-3.202 3.202s1.434 3.202 3.202 3.202zM12.341 22.861c-0.758 0-1.372-0.614-1.372-1.372s0.614-1.372 1.372-1.372c0.758 0 1.372 0.614 1.372 1.372s-0.614 1.372-1.372 1.372z"></path>
</svg>
