<!-- Generated by IcoMoon.io -->
<svg version="1.1" xmlns="http://www.w3.org/2000/svg" width="32" height="32" viewBox="0 0 32 32">
<path fill="#111" d="M11.977 21.169c2.866 0 5.727 0 8.599 0 0.138 0.449 0.339 0.866 0.651 1.221 0.782 0.891 1.77 1.279 2.936 1.099 1.245-0.192 2.095-0.919 2.538-2.098 0.071-0.189 0.15-0.238 0.338-0.235 0.759 0.011 1.518 0.005 2.277 0.004 0.777-0.001 1.106-0.313 1.157-1.094 0.096-1.454 0.132-2.909 0.039-4.364-0.102-1.597-0.3-3.18-0.896-4.682-0.306-0.771-0.716-1.477-1.39-1.995-0.469-0.36-1.004-0.534-1.591-0.557-0.168-0.007-0.336-0.002-0.504-0.002-7.411-0-14.822-0.002-22.232 0.006-0.374 0-0.761 0.050-1.118 0.158-0.711 0.215-1.058 0.778-1.194 1.469-0.085 0.431-0.145 0.874-0.147 1.312-0.012 2.875-0.007 5.749-0.004 8.624 0 0.581 0.286 0.996 0.757 1.106 0.125 0.029 0.259 0.030 0.389 0.030 1.002 0.001 2.004 0.002 3.005-0.004 0.132-0.001 0.192 0.035 0.237 0.166 0.455 1.335 1.682 2.214 3.056 2.2 1.399-0.014 2.591-0.884 3.043-2.222 0.016-0.047 0.035-0.092 0.054-0.143zM22.084 9.769c0.082 0 0.149 0 0.216 0 1.307 0 2.614 0.007 3.92-0.003 0.627-0.005 1.117 0.244 1.501 0.726 0.456 0.573 0.683 1.248 0.854 1.946 0.247 1.006 0.344 2.033 0.37 3.066 0.016 0.621-0.001 1.244-0.020 1.866-0.008 0.275-0.123 0.366-0.389 0.277-0.248-0.083-0.499-0.203-0.704-0.363-0.544-0.424-1.066-0.877-1.594-1.321-1.237-1.041-2.505-2.028-4.154-2.353-0-1.274-0-2.542-0-3.839zM8.156 13.55c-0.082 0-0.155 0-0.228 0-1.586 0-3.172 0-4.758-0-0.050 0-0.1 0.001-0.149-0.002-0.154-0.008-0.253-0.088-0.251-0.243 0.012-0.888 0.013-1.777 0.057-2.664 0.018-0.361 0.172-0.697 0.573-0.814 0.14-0.041 0.293-0.055 0.441-0.055 1.375-0.004 2.749-0.003 4.124-0.002 0.061 0 0.121 0.005 0.192 0.008 0 1.258 0 2.504 0 3.772zM15.812 9.783c1.639 0 3.258 0 4.876 0 0 1.261 0 2.508 0 3.753-1.632 0-3.252 0-4.876 0 0-1.257 0-2.499 0-3.753zM14.421 9.777c0 1.265 0 2.511 0 3.76-1.632 0-3.251 0-4.873 0 0-1.26 0-2.506 0-3.76 1.627 0 3.242 0 4.873 0zM23.675 22.107c-0.992-0.003-1.784-0.8-1.782-1.792 0.002-0.99 0.802-1.784 1.794-1.78 0.989 0.004 1.792 0.808 1.788 1.791-0.004 0.986-0.81 1.784-1.8 1.781zM8.861 18.535c0.993-0.003 1.793 0.79 1.795 1.779 0.002 0.992-0.788 1.787-1.782 1.793-0.985 0.006-1.797-0.797-1.8-1.78-0.003-0.986 0.798-1.789 1.787-1.793z"></path>
</svg>
