<!-- Generated by IcoMoon.io -->
<svg version="1.1" xmlns="http://www.w3.org/2000/svg" width="32" height="32" viewBox="0 0 32 32">
<path fill="#111" d="M6.937 23.957h19.971c-0.105 0.422-0.158 0.79-0.263 1.159h-19.444c-0.105-0.369-0.158-0.738-0.263-1.159zM7.727 26.75h18.39c-0.58 1.528-1.159 2.318-1.212 2.371-0.158 0.211-0.422 0.316-0.685 0.316h-14.596c-0.263 0-0.474-0.105-0.632-0.316-0.053-0.053-0.685-0.843-1.265-2.371zM29.437 3.143c0.158 0.422-0.105 0.896-0.527 1.054l-11.171 3.425v3.373h6.481c0.263 0 0.527 0.105 0.685 0.316 0.105 0.105 2.318 3.109 2.318 8.905 0 0.738 0 1.475-0.105 2.108h-20.392c-0.053-0.632-0.105-1.37-0.105-2.108 0-5.796 2.266-8.8 2.371-8.905 0.158-0.211 0.369-0.316 0.632-0.316h6.481v-2.845l-12.541 3.899c-0.053 0-0.158 0-0.211 0-0.369 0-0.685-0.211-0.79-0.58-0.158-0.422 0.105-0.896 0.527-1.001l25.346-7.851c0.422-0.158 0.896 0.105 1.001 0.527zM16 20.216v-5.48c0-0.422-0.369-0.79-0.843-0.79h-3.794c-0.316 0-0.632 0.211-0.738 0.474-0.474 1.159-1.054 3.109-1.054 5.796 0 0.474 0.369 0.843 0.79 0.843h4.795c0.474 0 0.843-0.369 0.843-0.843zM17.897 14.735v0 5.48c0 0.474 0.369 0.843 0.79 0.843h4.795c0.474 0 0.843-0.369 0.843-0.843 0-2.688-0.58-4.637-1.054-5.796-0.158-0.263-0.422-0.474-0.79-0.474h-3.794c-0.422 0-0.79 0.369-0.79 0.79z"></path>
</svg>
