<!-- Generated by IcoMoon.io -->
<svg version="1.1" xmlns="http://www.w3.org/2000/svg" width="32" height="32" viewBox="0 0 32 32">
<path fill="#111" d="M29.615 1.846c-1.026-0.053-1.205-1.411-2.209-1.474-0.528-0.033-1.526-0.079-2.394 0.237-0.967-0.661-2.209-1.472-0.394 1.685-0.394 2.129-1.71 8.101-3.104 8.125s-2.314-2.524-3.498-2.497c-1.184 0.025-1.184 0.025-1.184 0.025-1.394 0-2.311-2.465-5.128-2.55-1.762-0.053-3.156 3.049-7.076 3.391-1.052 0.079-2.67 0.489-2.834 2.914 0 0-2.311 2.161-1.223 7.152 0.272-2.485 0.407-4.568 1.223-5.928-0.061 1.357 0.363 2.673 0 4.079-0.362 1.404-1.515 3.806-1.515 3.806s-0.252 0.499 0.382 2.221c0.634 1.721 1.903 5.986 1.903 5.986 0.065 0.749 0.17 1.143 0.696 1.485-0.132 0.498-0.576 1.498 1.002 1.498 0.676 0.001 0 0 1.53 0 1.069 0 0.721-0.919-1.005-1.762 0.053-0.631-0.342-1.289-0.605-1.421-0.631-1.604-1.446-4.678-1.446-4.678s-0.29-2.684 0.71-3.579c1-0.893 2.207-1.734 3.023-4.706 0.026-0.211 1.394 1.053 4.13 1.841 2.735 0.79 4.833-0.053 5.139 0.079s0.963 1.735 0.963 3.289c0 1.551-0.552 2.577-0.552 3.182s0.447 1.657 0.447 1.657 0.263 2.893-0.079 4.524c-0.237 1.025-0.631 1.545 0.947 1.548s3.735 0.344 0.921-1.522c0.236-0.579 0.052-1.369-0.211-1.657-0.053-1.421 0.106-2.816 0.368-3.393 0.263-0.579 0.080-2.235 0.132-3.076s0.815-3.866 1.657-4.944c0.842-1.080 4.576-4.261 5.208-7.364 0.631-3.104 1.315-6.262 3.156-6.234 1.104 0 1.288 0.631 1.762 0.605 0.474-0.028 1.315-0.813 1.315-1.234s-0.105-1.283-2.156-1.308z"></path>
</svg>
