<!-- Generated by IcoMoon.io -->
<svg version="1.1" xmlns="http://www.w3.org/2000/svg" width="32" height="32" viewBox="0 0 32 32">
<path fill="#111" d="M15.667 2.112c-0.141 0.141-0.429 0.57-0.649 0.949-1.207 2.089-1.795 2.72-2.506 2.72-0.662 0-1.14-0.441-2.285-2.144-1.14-1.679-1.605-1.93-2.659-1.428-0.913 0.435-1.636 1.458-2.199 3.1-0.447 1.305-0.686 1.679-1.611 2.524-0.68 0.625-0.98 1.066-1.207 1.771-0.276 0.845-0.539 1.434-1.084 2.371-1.066 1.851-1.207 2.157-1.127 2.451 0.080 0.325 0.582 0.447 0.937 0.227 0.263-0.159 0.423-0.496 0.472-0.992 0.092-0.962 0.496-1.997 1.054-2.726 0.159-0.214 0.3-0.374 0.312-0.368 0.006 0.012 0.055 0.711 0.11 1.55 0.049 0.839 0.135 2.009 0.19 2.597 0.11 1.195 0.092 1.783-0.092 2.493-0.129 0.49-0.184 0.637-0.754 2.040-0.19 0.453-0.386 1.005-0.441 1.225-0.165 0.686-0.22 2.114-0.22 5.955v3.725h1.164c1.066 0 1.164-0.006 1.164-0.11 0-0.294-0.392-0.662-0.949-0.882l-0.245-0.098 0.012-0.852c0.031-1.685 0.318-5.379 0.478-6.175 0.068-0.319 0.312-0.864 0.943-2.144l0.858-1.716-0.012 1.777c-0.006 1.274 0.012 1.862 0.068 2.083 0.147 0.557 0.655 1.519 1.385 2.604 0.999 1.476 1.317 2.15 2.126 4.472l0.349 1.011 1.231 0.018c1.084 0.012 1.231 0.006 1.231-0.080 0-0.245-0.582-0.6-1.317-0.796l-0.38-0.104-0.557-1.244c-1.182-2.604-1.973-4.582-2.224-5.556-0.165-0.631-0.141-0.876 0.22-2.408 0.288-1.219 1.182-4.674 1.225-4.748 0.012-0.025 0.227 0.012 0.472 0.074 1.103 0.282 2.751 0.368 4.209 0.227l0.705-0.068 0.184 0.233c0.098 0.135 0.551 0.606 0.999 1.060l0.821 0.827 0.043 6.279 0.043 6.285 1.274 0.018c1.201 0.012 1.268 0.006 1.268-0.098 0-0.165-0.227-0.349-0.68-0.551-0.22-0.098-0.46-0.257-0.533-0.343-0.368-0.472-0.349-2.236 0.049-5.244 0.098-0.723 0.251-2.046 0.337-2.94 0.092-0.894 0.184-1.672 0.208-1.734 0.031-0.098 0.19-0.006 1.078 0.637 0.576 0.417 1.219 0.925 1.434 1.133l0.392 0.386-0.043 0.508c-0.104 1.231-0.306 3.375-0.533 5.55-0.129 1.287-0.239 2.426-0.239 2.524v0.184h2.696v-0.196c0-0.202-0.208-0.429-1.029-1.14-0.288-0.245-0.386-0.374-0.417-0.545-0.049-0.251 0.233-2.175 0.741-5.128 0.184-1.078 0.337-2.015 0.337-2.089 0-0.362-1.379-2.402-3.388-5.017-0.557-0.723-0.656-0.882-0.656-1.072 0-0.386 0.074-0.692 0.178-0.723 0.055-0.018 0.441-0.172 0.858-0.331 0.417-0.165 0.778-0.3 0.803-0.3s0.153 0.184 0.282 0.411c0.325 0.564 0.962 1.201 1.397 1.403 0.692 0.318 1.256 0.245 2.236-0.294 2.23-1.231 3.419-3.253 4.068-6.941l0.074-0.429 1.672-0.018c1.893-0.018 1.74 0.043 1.574-0.582-0.202-0.778-0.637-1.336-1.286-1.642-0.202-0.098-0.404-0.178-0.453-0.178s-0.949-0.288-2.003-0.643c-2.138-0.717-2.322-0.748-3.020-0.515-0.472 0.159-1.207 0.643-1.513 0.992-0.392 0.447-0.392 0.466-0.392 2.42 0 0.974-0.018 1.783-0.037 1.807-0.092 0.092-1.342-0.637-2.077-1.213-1.286-1.005-1.948-2.034-2.291-3.553-0.294-1.311-0.594-1.979-1.078-2.408-0.319-0.282-0.612-0.38-1.133-0.38-0.379 0.001-0.397 0.007-0.636 0.264z"></path>
</svg>
