<!-- Generated by IcoMoon.io -->
<svg version="1.1" xmlns="http://www.w3.org/2000/svg" width="32" height="32" viewBox="0 0 32 32">
<path fill="#111" d="M9.536 5.698c1.050-0.626 2.162-1.136 3.278-1.629 0.597-0.218 1.077 0.333 1.558 0.592 2.608 1.85 4.874 4.213 7.782 5.614 0.805 0.328 1.117 1.198 1.466 1.92 0.64 1.317 1.134 2.696 1.666 4.058-1.442 0-2.882 0.005-4.323-0.003 0.288 0.39 0.574 0.781 0.85 1.181 0.963 0.101 1.934 0.072 2.901 0.11-0.293 0.685-0.637 1.346-0.958 2.016 0.822 0 1.646 0 2.47 0 0.021-0.754-0.045-1.512 0.032-2.262 0.080-0.342 0.448-0.477 0.765-0.472 0.81-0.016 1.621 0.005 2.43-0.003 0.845-1.28 1.709-2.547 2.547-3.832v2.624c-0.256 0.408-0.536 0.802-0.798 1.206 0.266 0 0.531 0.002 0.798 0.003v2.542c-1.736-0.008-3.299 1.53-3.246 3.28-0.654-0.016-1.31 0.035-1.963-0.022-0.246-0.008-0.397-0.218-0.562-0.368 0.014-0.413 0.013-0.826 0.010-1.238-1.715 0.011-3.429-0.002-5.142 0.037-2.656 0.013-5.309 0.23-7.966 0.104-0.040-0.39-0.058-0.822-0.358-1.115-0.642-0.693-1.31-1.362-1.971-2.037-0.603-0.621-1.55-0.365-2.32-0.459-0.766 0.029-1.68-0.28-2.304 0.31-0.67 0.611-1.339 1.222-1.994 1.851-0.33 0.282-0.4 0.72-0.445 1.128-0.926-0.019-1.854-0.040-2.781-0.059 0.013-1.275-0.046-2.554 0.016-3.827 0.261-1.904 0.523-3.806 0.75-5.715 0.048-0.827 0.57-1.589 1.226-2.064 2.312-0.915 4.462-2.187 6.587-3.47zM13.542 11.315c-0.013 2.374-0.035 4.75 0.011 7.123 0.922 0.067 1.848 0.011 2.771 0.035 0.216-0.043 0.597 0.11 0.662-0.2 0.021-2.317 0.018-4.637-0.002-6.954-1.142-0.088-2.301-0.075-3.443-0.005zM4.755 15.030c2.158-0.011 4.317 0.008 6.474-0.011 0.038-1.235 0.027-2.474 0.006-3.71-2.158-0.037-4.317-0.003-6.475-0.018-0.072 1.242-0.064 2.496-0.005 3.739z"></path>
<path fill="#111" d="M7.603 19.136c0.984-0.275 2.094-0.032 2.87 0.637 0.843 0.699 1.269 1.861 1.075 2.939-0.17 1.075-0.946 2.026-1.962 2.413-1.010 0.406-2.226 0.234-3.080-0.438-0.89-0.672-1.368-1.84-1.2-2.942 0.155-1.226 1.102-2.294 2.296-2.608zM7.744 20.864c-1.035 0.483-1.053 2.128-0.022 2.627 0.914 0.558 2.213-0.192 2.203-1.256 0.085-1.093-1.23-1.926-2.181-1.371z"></path>
<path fill="#111" d="M29.515 22.221c0.171-1.189 1.291-2.12 2.485-2.13v1.435c-0.651 0.061-1.205 0.683-1.040 1.349 0.061 0.533 0.582 0.789 1.040 0.918v1.405c-1.517 0.019-2.792-1.483-2.485-2.978z"></path>
</svg>
