<!-- Generated by IcoMoon.io -->
<svg version="1.1" xmlns="http://www.w3.org/2000/svg" width="32" height="32" viewBox="0 0 32 32">
<path fill="#111" d="M24.25 18.688c-1.313 0-2.375 1.063-2.375 2.375s1.063 2.375 2.375 2.375c1.313 0 2.438-1.063 2.438-2.375s-1.125-2.375-2.438-2.375zM24.25 22.375c-0.75 0-1.313-0.563-1.313-1.313s0.563-1.313 1.313-1.313c0.75 0 1.375 0.563 1.375 1.313s-0.625 1.313-1.375 1.313zM0.563 20.25c-0.313 0-0.563 0.25-0.563 0.563s0.25 0.5 0.563 0.5h2.625c0.188 0 0.375-0.063 0.5-0.25l0.313-0.625c0.063-0.125 0.125-0.188 0.25-0.188h0.688c-0.063 0.25-0.125 0.563-0.125 0.813 0 1.313 1 2.375 2.313 2.375 0.625 0.063 1.188-0.25 1.625-0.688 0.938-0.938 0.938-1.75 0.688-2.5h0.75c0.063 0 0.188 0.063 0.25 0.188l0.313 0.625c0.063 0.188 0.25 0.25 0.438 0.25h8.563c0.125 0 0.313-0.063 0.438-0.188l2.438-3.438c0-0.063 0.125-0.063 0.188-0.063h2.938c0.063 0 0.125 0 0.188 0.063l2.438 3.438c0.063 0.125 0.25 0.188 0.438 0.188h2.625c0.313 0 0.563-0.188 0.563-0.5s-0.25-0.563-0.563-0.563c0-1.125 0-2.188-0.125-3.188l-0.188-1.063c-0.438-2.25-1.25-3.938-2.5-5.188 0 0 0 0 0 0-1.25-1.313-5.063-2.25-8.875-2.25h-16c-0.688 0-2.563 0-3.063 7.438l-0.063 1.063c-0.063 0.938-0.063 2-0.063 3.188zM27.063 12.438c-0.125-0.375 0.125-0.688 0.5-0.688h0.375c0.063 0 0.125 0 0.188 0.063 0.563 0.625 1 1.375 1.375 2.25 0.063 0.125-0.063 0.313-0.25 0.313h-1.25c-0.25 0-0.438-0.125-0.5-0.375zM21.313 13.875v-1.625c0-0.25 0.25-0.5 0.563-0.5h3.438c0.25 0 0.438 0.125 0.5 0.375l0.5 1.625c0.063 0.313-0.188 0.625-0.5 0.625h-3.938c-0.313 0-0.563-0.188-0.563-0.5zM13.313 13.875v-1.625c0-0.25 0.25-0.5 0.563-0.5h5.875c0.25 0 0.5 0.25 0.5 0.5v1.625c0 0.313-0.25 0.5-0.5 0.5h-5.875c-0.313 0-0.563-0.188-0.563-0.5zM5.875 21.313c-0.063-0.313 0-0.563 0.125-0.813l0.125-0.25h2.188l0.063 0.25c0.125 0.188 0.188 0.375 0.188 0.563 0 0.875-0.875 1.563-1.813 1.25-0.438-0.125-0.75-0.5-0.875-1zM5.5 14.375c-0.313 0-0.563-0.25-0.563-0.563l0.25-1.625c0.063-0.25 0.25-0.438 0.563-0.438h6c0.25 0 0.5 0.25 0.5 0.5v1.625c0 0.313-0.25 0.5-0.5 0.5zM2.5 14.375c-0.313 0-0.563-0.25-0.563-0.563 0.125-0.625 0.188-1.188 0.313-1.688 0.063-0.25 0.313-0.375 0.563-0.375h0.75c0.313 0 0.563 0.25 0.563 0.563l-0.25 1.625c-0.063 0.25-0.25 0.438-0.563 0.438z"></path>
</svg>
