<!-- Generated by IcoMoon.io -->
<svg version="1.1" xmlns="http://www.w3.org/2000/svg" width="32" height="32" viewBox="0 0 32 32">
<path fill="#111" d="M6.824 5.688c-0.842 0-1.515 0.674-1.599 1.515v15.237c0 0.674 0.379 1.179 0.926 1.431 0.168-1.81 1.515-3.199 3.283-3.367v-5.009c0-0.8 0.631-1.389 1.389-1.389h3.283c0.8 0 1.389 0.631 1.389 1.389v8.418h2.82c0.126-1.894 1.726-3.451 3.662-3.451s3.536 1.515 3.62 3.409c0.716-0.168 1.179-0.758 1.179-1.473v-1.894c0-0.758-0.505-1.347-1.221-1.515l-1.81-0.295-1.81-5.556c1.936-0.126 3.494-1.726 3.494-3.704 0-2.104-1.684-3.746-3.746-3.746zM17.431 17.642v-3.157h3.409l1.305 3.957zM10.444 15.495v5.051c1.684 0.295 2.946 1.642 3.031 3.409h1.179v-8.461c0-0.211-0.252-0.463-0.463-0.463h-3.241c-0.295 0-0.505 0.252-0.505 0.463zM24.208 24.082c0-1.221-0.968-2.231-2.189-2.231s-2.231 1.010-2.231 2.231c0 1.221 1.010 2.231 2.231 2.231s2.189-1.010 2.189-2.231zM12.043 24.082c0-1.221-0.968-2.231-2.189-2.231s-2.231 1.010-2.231 2.231c0 1.221 1.010 2.231 2.231 2.231s2.189-1.010 2.189-2.231z"></path>
</svg>
