<!-- Generated by IcoMoon.io -->
<svg version="1.1" xmlns="http://www.w3.org/2000/svg" width="32" height="32" viewBox="0 0 32 32">
<path fill="#111" d="M1.295 16.507h26.33l3.001-0.5c0.007-0.002 0.013 0.002 0.020 0 0.035-0.005 0.070 0 0.107 0.004 0.032 0.003 0.064 0.003 0.095 0.012 0.007 0.002 0.015 0 0.022 0.003 0.024 0.008 0.041 0.025 0.063 0.037 0.031 0.015 0.061 0.029 0.089 0.051s0.046 0.046 0.068 0.072c0.020 0.024 0.041 0.046 0.057 0.074 0.018 0.031 0.027 0.065 0.038 0.1 0.007 0.022 0.021 0.041 0.024 0.064 0.002 0.008-0.002 0.014-0 0.021 0.004 0.034-0 0.068-0.004 0.102s-0.003 0.067-0.012 0.098c-0.002 0.008-0 0.015-0.003 0.022l-1.014 3.043c-0.003 0.008-0.008 0.013-0.011 0.020-0.007 0.019-0.018 0.035-0.027 0.053-0.020 0.037-0.042 0.071-0.068 0.101-0.014 0.015-0.028 0.029-0.044 0.042-0.031 0.028-0.065 0.050-0.102 0.069-0.017 0.009-0.032 0.018-0.050 0.025-0.057 0.022-0.117 0.036-0.179 0.036h-28.401c-0.28 0-0.507-0.227-0.507-0.507v-2.536c0-0.28 0.227-0.507 0.507-0.507z"></path>
<path fill="#111" d="M25.639 13.464c-0.28 0-0.51 0.227-0.51 0.507s0.225 0.507 0.505 0.507h0.005c0.28 0 0.507-0.227 0.507-0.507s-0.227-0.507-0.507-0.507zM23.734 13.479l-0.005-0.002c-0.271-0.068-0.547 0.097-0.615 0.369s0.097 0.547 0.369 0.615c0.041 0.010 0.083 0.015 0.124 0.015 0.228 0 0.436-0.154 0.493-0.384 0.068-0.271-0.095-0.546-0.366-0.614zM21.583 13.464h-0.005c-0.28 0-0.507 0.227-0.507 0.507s0.227 0.507 0.507 0.507c0.28 0 0.51-0.227 0.51-0.507s-0.225-0.507-0.505-0.507zM19.553 13.462c-0.28 0-0.507 0.224-0.507 0.505v0.005c0 0.28 0.227 0.507 0.507 0.507s0.507-0.227 0.507-0.507c0-0.28-0.227-0.51-0.507-0.51zM13.408 13.722c-0.136-0.244-0.445-0.333-0.69-0.197s-0.335 0.446-0.199 0.691c0.093 0.167 0.265 0.262 0.443 0.262 0.083 0 0.167-0.021 0.244-0.064l0.005-0.003c0.244-0.136 0.333-0.445 0.197-0.69zM10.931 13.464c-0.28 0-0.51 0.227-0.51 0.507s0.225 0.507 0.505 0.507h0.005c0.28 0 0.507-0.227 0.507-0.507s-0.227-0.507-0.507-0.507zM8.903 13.464c-0.28 0-0.51 0.227-0.51 0.507s0.225 0.507 0.505 0.507h0.005c0.28 0 0.507-0.227 0.507-0.507s-0.227-0.507-0.507-0.507zM6.874 13.464h-0.005c-0.28 0-0.507 0.227-0.507 0.507s0.227 0.507 0.507 0.507c0.28 0 0.51-0.227 0.51-0.507s-0.224-0.507-0.505-0.507zM28.163 15.551c-0.004 0.034-0.010 0.066-0.020 0.099-0.010 0.031-0.024 0.059-0.040 0.087s-0.032 0.054-0.053 0.079c-0.021 0.025-0.045 0.046-0.070 0.066s-0.050 0.038-0.079 0.053c-0.030 0.016-0.061 0.027-0.095 0.037-0.019 0.006-0.035 0.018-0.055 0.021-0.028 0.005-0.056 0.007-0.083 0.007h-10.651v-3.043h-1.521v3.043h-11.158c-0.060 0-0.12-0.014-0.178-0.036-0.010-0.004-0.019-0.006-0.029-0.010-0.006-0.003-0.013-0.004-0.019-0.007-0.023-0.012-0.038-0.031-0.058-0.046-0.030-0.021-0.060-0.040-0.085-0.066-0.023-0.024-0.038-0.052-0.054-0.080s-0.035-0.053-0.047-0.084c-0.013-0.034-0.016-0.070-0.022-0.108-0.004-0.024-0.014-0.046-0.014-0.070 0-0.006 0.003-0.010 0.003-0.015 0.001-0.033 0.012-0.066 0.020-0.099s0.012-0.067 0.026-0.097c0.003-0.005 0.002-0.011 0.004-0.015l1.521-3.043c0.012-0.023 0.031-0.038 0.045-0.058 0.021-0.030 0.040-0.060 0.067-0.085 0.024-0.023 0.052-0.038 0.080-0.054s0.053-0.036 0.084-0.047c0.035-0.013 0.071-0.016 0.108-0.022 0.024-0.004 0.046-0.014 0.071-0.014h21.301c0.021 0 0.040 0.010 0.060 0.012 0.033 0.004 0.065 0.009 0.097 0.019s0.060 0.024 0.088 0.041c0.028 0.016 0.054 0.032 0.079 0.053s0.045 0.044 0.065 0.069c0.020 0.025 0.039 0.050 0.054 0.079 0.016 0.030 0.026 0.061 0.036 0.094 0.006 0.019 0.018 0.035 0.021 0.055l0.507 3.043c0.003 0.015-0.003 0.028-0.001 0.042s0.008 0.027 0.008 0.042c0 0.021-0.009 0.038-0.012 0.058z"></path>
</svg>
