<!-- Generated by IcoMoon.io -->
<svg version="1.1" xmlns="http://www.w3.org/2000/svg" width="32" height="32" viewBox="0 0 32 32">
<path fill="#111" d="M13.557 10.969c1.184 0 2.145-0.96 2.145-2.144s-0.961-2.144-2.145-2.144-2.144 0.96-2.144 2.144c0 1.184 0.96 2.144 2.144 2.144z"></path>
<path fill="#111" d="M14.453 21.778c1.326-0.589 2.98-0.391 4.064 0.621l0.025-0.020c1.417-1.299 3.608-1.292 5.014 0.023 0.948-0.884 2.323-1.143 3.537-0.811 2.023-1.363 3.237-3.103 3.237-5.002 0-0.583-0.12-1.15-0.341-1.696-0.105-0.258-0.319-0.458-0.585-0.544s-0.555-0.051-0.792 0.097c-3.17 1.97-7.488 3.201-12.269 3.258l-1.89 4.075z"></path>
<path fill="#111" d="M30.528 23.165c-0.373-0.372-0.978-0.373-1.351 0-0.311 0.311-0.857 0.312-1.167 0.001-1.034-1.035-2.833-1.037-3.871 0.001-0.312 0.312-0.853 0.313-1.168-0.002-1.047-1.049-2.746-1.067-3.814-0.052l-0.056 0.054c-0.312 0.312-0.854 0.313-1.167-0.002-1.034-1.033-2.835-1.033-3.869 0.002-0.312 0.312-0.855 0.312-1.168-0.001-0.032-0.032-0.064-0.062-0.097-0.092l4.068-8.773 1.017-0.538c0.467-0.247 0.645-0.825 0.397-1.291-0.091-0.171-0.227-0.304-0.385-0.391l1.438-3.101c0.111-0.239 0.008-0.524-0.232-0.634-0.238-0.112-0.523-0.007-0.633 0.232l-1.668 3.597-2.238 1.184-1.816-1.417c-0.172-0.486-1.008-1.214-2.067-0.997-0.626 0.128-1.178 0.559-1.419 1.201l-1.599 4.266c-1.577-0.52-3.016-1.183-4.274-1.964-0.237-0.147-0.527-0.182-0.792-0.096s-0.481 0.285-0.585 0.543c-0.222 0.546-0.342 1.112-0.342 1.695 0 1.892 1.21 3.625 3.22 4.986 1.216-0.354 2.574-0.088 3.555 0.827 0.803-0.752 1.923-1.050 2.989-0.921l1.815-3.914c-0.627-0.061-1.242-0.143-1.846-0.243l1.163-3.103 1.312 1.024c0.172 0.133 0.379 0.202 0.588 0.202 0.153 0 0.306-0.036 0.447-0.111l0.563-0.298-3.495 7.537c-0.986-0.376-2.181-0.18-2.953 0.593-0.312 0.311-0.851 0.313-1.166-0.002-1.067-1.065-2.803-1.066-3.87 0-0.31 0.311-0.854 0.312-1.167 0-0.373-0.373-0.978-0.373-1.351-0-0.373 0.373-0.373 0.978 0 1.351 1.033 1.035 2.838 1.033 3.869 0.001 0.323-0.323 0.847-0.321 1.17 0.001 0.516 0.516 1.202 0.801 1.933 0.801s1.417-0.285 1.936-0.803c0.312-0.312 0.854-0.313 1.167 0.001 1.037 1.035 2.836 1.033 3.869 0 0.314-0.313 0.856-0.312 1.166-0.002 1.019 1.018 2.778 1.039 3.817 0.054l0.055-0.054c0.312-0.312 0.853-0.313 1.168 0.002 1.034 1.034 2.832 1.035 3.87-0.001 0.312-0.312 0.855-0.313 1.166 0.001 1.035 1.034 2.839 1.033 3.87-0.001 0.373-0.373 0.373-0.978 0-1.351z"></path>
</svg>
