<!-- Generated by IcoMoon.io -->
<svg version="1.1" xmlns="http://www.w3.org/2000/svg" width="32" height="32" viewBox="0 0 32 32">
<path fill="#111" d="M30.813 14.438c1.125 0.375 1.438 2.688 1 4.125-0.188 0.563-0.875 1.188-2.25 1.188h-1.813c-0.125 1.813-1.688 3.188-3.5 3.188-1.875 0-3.375-1.375-3.563-3.188h-10.313c-0.188 1.813-1.688 3.188-3.563 3.188-1.813 0-3.375-1.375-3.5-3.188h-2.188c-0.625 0-1.125-0.5-1.125-1.125v-3.625c0-0.5 0.313-0.938 0.813-1.063l3.125-0.438c0.813-0.625 1.625-1.313 2.313-1.938 1.438-1.375 2.75-2.5 4.25-2.5 0 0 6.25 0 7.188 0 0.875 0 8.438 4.313 8.438 4.313s4.125 0.875 4.688 1.063zM6.813 21.25c1 0 1.875-0.813 1.875-1.813 0-1.063-0.875-1.875-1.875-1.875s-1.813 0.813-1.813 1.875c0 1 0.813 1.813 1.813 1.813zM13.625 13.375v-2.813c-1.063 0-2 0-2 0-1.063 0-1.875 0.813-2.875 1.688-0.438 0.375-0.813 0.75-1.25 1.125zM15.125 10.563v2.813h7.375c-1.25-0.813-4.688-2.813-5.563-2.813-0.375 0-1 0-1.813 0zM24.25 21.25c1 0 1.813-0.813 1.813-1.813 0-1.063-0.813-1.875-1.813-1.875-1.063 0-1.875 0.813-1.875 1.875 0 1 0.813 1.813 1.875 1.813z"></path>
</svg>
