<!-- Generated by IcoMoon.io -->
<svg version="1.1" xmlns="http://www.w3.org/2000/svg" width="32" height="32" viewBox="0 0 32 32">
<path fill="#111" d="M30.911 25.783c-0.046 0.045-1.156 1.097-3.391 1.097h-0.64v-2.609c1.486-0.212 3.505-1.204 3.784-3.831h-0.584c-7.245-0.451-8.32-4.58-8.32-7v-3.84c0-0.835-0.536-1.539-1.28-1.803v-1.396h10.88c0.353 0 0.64-0.287 0.64-0.64 0-0.355-0.287-0.64-0.64-0.64h-10.88v-0.64c0-0.355-0.287-0.64-0.64-0.64s-0.64 0.285-0.64 0.64v0.64h-10.88c-0.353 0-0.64 0.285-0.64 0.64 0 0.353 0.287 0.64 0.64 0.64h10.88v1.396c-0.744 0.265-1.28 0.969-1.28 1.803v0.64h-12.177c-0.585-0.773-1.503-1.28-2.543-1.28-1.765 0-3.2 1.435-3.2 3.2 0 1.764 1.435 3.2 3.2 3.2 1.041 0 1.958-0.508 2.543-1.28h2.577c0.768 0 1.615 0.123 2.523 0.369 1.087 0.291 1.941 1.151 2.23 2.245 0.795 3.021 3.27 6.212 6.127 7.263v2.924h-3.2c-0.353 0-0.64 0.285-0.64 0.64 0 0.353 0.287 0.64 0.64 0.64h11.52c2.793 0 4.233-1.408 4.293-1.468 0.248-0.248 0.247-0.649 0.001-0.9-0.247-0.25-0.652-0.251-0.904-0.009zM25.6 26.88h-5.12v-2.604c0.212 0.027 0.426 0.044 0.64 0.044h4.48v2.56z"></path>
<path fill="#111" d="M23.040 13.44c0 2.408 1.227 5.356 7.080 5.722h0.553c-0.22-4.904-2.788-7.79-7.633-8.627v2.906z"></path>
</svg>
