<!-- Generated by IcoMoon.io -->
<svg version="1.1" xmlns="http://www.w3.org/2000/svg" width="32" height="32" viewBox="0 0 32 32">
<title>circle</title>
<path fill="#111" d="M16 6.313c-1.75 0-3.375 0.438-4.875 1.25-1.5 0.875-2.688 2.063-3.563 3.563-0.813 1.5-1.25 3.125-1.25 4.875s0.438 3.375 1.25 4.875c0.875 1.5 2.063 2.688 3.563 3.563 1.5 0.813 3.125 1.25 4.875 1.25s3.375-0.438 4.875-1.25c1.5-0.875 2.688-2.063 3.563-3.563 0.813-1.5 1.25-3.125 1.25-4.875s-0.438-3.375-1.25-4.875c-0.875-1.5-2.063-2.688-3.563-3.563-1.5-0.813-3.125-1.25-4.875-1.25zM29.688 16c0 2.5-0.563 4.813-1.813 6.875-1.25 2.125-2.875 3.75-5 5-2.063 1.25-4.375 1.813-6.875 1.813s-4.813-0.563-6.875-1.813c-2.125-1.25-3.75-2.875-5-5-1.25-2.063-1.813-4.375-1.813-6.875s0.563-4.813 1.813-6.875c1.25-2.125 2.875-3.75 5-5 2.063-1.25 4.375-1.813 6.875-1.813s4.813 0.563 6.875 1.813c2.125 1.25 3.75 2.875 5 5 1.25 2.063 1.813 4.375 1.813 6.875z"></path>
</svg>
