<!-- Generated by IcoMoon.io -->
<svg version="1.1" xmlns="http://www.w3.org/2000/svg" width="32" height="32" viewBox="0 0 32 32">
<path fill="#111" d="M27.163 0h0.89c-0.34 2.239-1.082 4.396-1.95 6.481-1.011 2.336-2.275 4.604-4.040 6.457-0.869 0.89-1.844 1.709-2.99 2.216 0.045-0.36-0.094-0.83 0.233-1.091 0.481-0.402 1.035-0.71 1.491-1.144 1.296-1.2 2.303-2.679 3.156-4.216 1.483-2.725 2.565-5.669 3.21-8.704z"></path>
<path fill="#111" d="M21.525 0.897c0.619-0.495 1.621-0.195 1.938 0.512 0.277 0.515 0.056 1.113-0.23 1.569-1.495 2.385-2.969 4.782-4.463 7.166-0.277 0.455-0.657 0.906-0.631 1.471 0.008 1.669 0.006 3.336 0.003 5.005 0.959-0.384 1.859-0.896 2.814-1.289 0.475-0.205 1.052-0.203 1.477 0.116 0.545 0.369 0.714 1.045 0.859 1.646 0.385 1.601 0.78 3.2 1.19 4.795 0.137 0.545 0.181 1.181-0.184 1.652-0.436 0.635-1.365 0.825-2.024 0.434-0.449-0.241-0.681-0.726-0.804-1.198-0.3-1.146-0.536-2.309-0.866-3.446-1.419 0.538-2.742 1.291-4.134 1.89-0.662 0.284-1.396 0.188-2.092 0.142-0.264 0.508-0.489 1.034-0.705 1.563-0.964 2.241-1.941 4.476-2.9 6.72-0.205 0.47-0.51 0.973-1.044 1.102-0.97 0.264-1.976-0.503-2.165-1.449-0.114-0.505 0.065-1.012 0.26-1.474 1.244-2.844 2.469-5.696 3.705-8.544 0.226-0.551 0.457-1.102 0.736-1.63 1.945-0.039 3.891 0.040 5.836-0.032 0.003-0.297 0.004-0.595 0-0.892-1.942-0.080-3.889-0.008-5.832-0.029-0.102-1.572 0-3.149-0.047-4.723-1.105 0.35-2.151 0.855-3.239 1.249-0.385 0.134-0.83 0.207-1.206 0.008-0.429-0.232-0.688-0.666-0.95-1.059-0.751-1.162-1.506-2.322-2.277-3.473-0.256-0.396-0.543-0.826-0.514-1.319 0.024-0.683 0.651-1.281 1.34-1.24 0.487-0.021 0.901 0.303 1.161 0.688 0.8 1.164 1.513 2.386 2.344 3.529 1.383-0.514 2.749-1.069 4.116-1.619 1.17-0.518 2.471-0.189 3.703-0.303 1.281-1.976 2.488-4.001 3.742-5.995 0.344-0.525 0.606-1.124 1.084-1.546z"></path>
<path fill="#111" d="M14.553 3.299c1.366-0.183 2.666 1.065 2.551 2.436-0.011 1.3-1.269 2.376-2.553 2.214-1.265-0.082-2.266-1.359-2.082-2.605 0.115-1.053 1.020-1.966 2.084-2.045z"></path>
<path fill="#111" d="M17.14 21.889c0.326-0.165 0.646-0.34 0.975-0.499 0.063 1.119 0.020 2.24 0.030 3.36-0.005 2.416 0.011 4.834-0.010 7.25h-1.015c0.014-3.37-0.034-6.741 0.020-10.111z"></path>
</svg>
