<!-- Generated by IcoMoon.io -->
<svg version="1.1" xmlns="http://www.w3.org/2000/svg" width="32" height="32" viewBox="0 0 32 32">
<path fill="#111" d="M21.813 12.125c-3.688 0-18.125 0-18.125 0l-2.438 5.375c0 0 21.625 0 26.563 0-3-3.688-4-5.375-6-5.375zM4.188 12.875h18.125c0.25 0 0.375 0.125 0.375 0.375 0 0.188-0.125 0.375-0.375 0.375h-18.5zM3.5 14.438h20.5c0.25 0 0.438 0.125 0.438 0.375 0 0.188-0.188 0.375-0.438 0.375h-20.875zM25.313 16.75h-22.875l0.313-0.813h22.563c0.25 0 0.375 0.188 0.375 0.438 0 0.188-0.125 0.375-0.375 0.375zM21.813 11.313h-8.25l0.313-0.75h6.5c0.813 0 0.875 0.125 1.438 0.75zM8.438 8.75h-2.063l-1.063 2.563h3.188zM31.938 18.25v0.438c-3.563 2.313-5.188 3.188-5.188 4.5-1.438 0-22.313 0-24.313 0-2.813 0-2.438-1.438-2.438-3.125l0.938-1.813zM6.563 19h-1.938l-0.438 1.063h2.375zM9.75 19h-2.375v1.063h2.375zM12.875 19h-2.313v1.063h2.313zM16 19h-2.313v1.063h2.313zM19.125 19h-2.313v1.063h2.313zM25.625 21.125h-1.563c0 0.438 0.375 0.813 0.813 0.813s0.75-0.375 0.75-0.813z"></path>
</svg>
