<!-- Generated by IcoMoon.io -->
<svg version="1.1" xmlns="http://www.w3.org/2000/svg" width="32" height="32" viewBox="0 0 32 32">
<path fill="#111" d="M25.837 1.075c-1.197 0.321-2.016 1.585-1.578 2.796l3.79 10.472c0.266-0.219 0.602-0.345 0.953-0.345 0.569-0.011 1.181-0.009 1.73 0.024l-2.128-11.32c-0.207-1.103-1.253-1.767-2.313-1.701-0.151 0.009-0.304 0.034-0.453 0.074zM26.5 2.999c0.276 0 0.5 0.224 0.5 0.5s-0.224 0.5-0.5 0.5c-0.276 0-0.5-0.224-0.5-0.5s0.224-0.5 0.5-0.5zM14.805 6.54c-1.244 0.542-2.001 1.71-2.387 2.792l-0.415 1.166h6.031c0.169-0.457 0.403-0.853 1.102-1.259l4.887-3.084-0.704-1.945c-0.131-0.363-0.185-0.728-0.177-1.083zM11.503 11.498c-0.825 0-1.407 0.698-1.495 1.443l0.011-0.063-0.908 3.62h-6.61c-0.822 0-1.502 0.677-1.502 1.499v3.503c0 0.822 0.68 1.498 1.502 1.498h17.001c0.822 0 1.52-0.674 1.502-1.51v-3.491c-0-0.063-0.013-0.126-0.037-0.185l-2-5.001c-0.108-0.269-0.23-0.563-0.451-0.827s-0.588-0.487-1.011-0.487zM12.497 13.499h1.505v4.001h-2.3c-0.33 0-0.57-0.313-0.483-0.632l0.801-2.997c0.057-0.217 0.253-0.369 0.478-0.372zM15.002 13.499h1.605c0.201-0 0.383 0.12 0.461 0.306l1.894 4.5c0.027 0.062 0.041 0.128 0.041 0.195v2.001c-0.001 0.275-0.223 0.497-0.498 0.498h-3.001c-0.167 0-0.324-0.083-0.417-0.222l-0.085-0.128zM29.002 14.997c-0.159 0-0.308 0.075-0.402 0.203l-4.499 5.998c-0.248 0.329-0.013 0.8 0.398 0.801h3.001c1.93 0 3.498-1.569 3.498-3.499v-3.001c0.001-0.276-0.222-0.501-0.498-0.502zM3.493 18.492c0.281-0.004 0.509 0.225 0.506 0.506v1.503c0.015 0.682-1.015 0.682-1 0v-1.503c-0.004-0.276 0.218-0.503 0.494-0.506zM5.494 18.492c0.281-0.004 0.509 0.225 0.506 0.506v1.503c0.015 0.681-1.015 0.681-1 0v-1.503c-0.004-0.276 0.218-0.503 0.494-0.506zM7.491 18.492c0.282-0.006 0.512 0.224 0.509 0.506v1.503c-0.015 0.652-0.985 0.652-1 0v-1.503c-0.004-0.275 0.216-0.501 0.491-0.506zM4.501 23.999c-1.93 0-3.503 1.57-3.503 3.5s1.573 3.498 3.503 3.498h15.499c1.93 0 3.498-1.568 3.498-3.498s-1.568-3.5-3.498-3.5zM5.502 26c0.822-0 1.498 0.677 1.498 1.499s-0.675 1.502-1.498 1.502c-0.823-0-1.503-0.679-1.503-1.502s0.68-1.499 1.503-1.499zM10.001 26c0.822 0 1.498 0.677 1.498 1.499s-0.676 1.502-1.498 1.502c-0.823 0-1.503-0.679-1.503-1.502s0.68-1.499 1.503-1.499zM14.5 26c0.822-0 1.498 0.677 1.498 1.499s-0.676 1.502-1.498 1.502c-0.823 0-1.498-0.679-1.498-1.502s0.676-1.499 1.498-1.499zM18.999 26c0.823-0 1.503 0.677 1.503 1.499s-0.68 1.502-1.503 1.502c-0.823 0-1.498-0.679-1.498-1.502s0.676-1.499 1.498-1.499z"></path>
</svg>
