<!-- Generated by IcoMoon.io -->
<svg version="1.1" xmlns="http://www.w3.org/2000/svg" width="32" height="32" viewBox="0 0 32 32">
<path fill="#111" d="M0 2.688h5.25l1.75 3.5-1.938 1.75zM22.875 17.438l-0.688-0.25 0.938-3.5 0.75 0.188c0.5 0.125 0.813 0.438 1.125 0.875 0.25 0.438 0.313 0.938 0.188 1.375-0.125 0.5-0.438 0.875-0.875 1.125-0.5 0.25-0.938 0.313-1.438 0.188zM22.313 13.438l-1 3.563-6.063-1.75c-0.438-0.125-0.625-0.438-0.5-0.938l0.563-2.063c0.125-0.5 0.375-0.688 0.875-0.563zM23.25 19.25l7.375 7.688c0.375 0.375 0.5 0.875 0.375 1.375-0.063 0.375-0.25 0.688-0.625 0.813-0.375 0.188-0.688 0.25-1.063 0.125-0.188-0.063-0.375-0.188-0.563-0.375l-4.813-4.875-10.25-2.938c-0.813-0.25-1.375-0.625-1.625-1.125l-5.688-10.063c-0.188-0.438-0.25-0.938-0.125-1.438 0.125-0.438 0.438-0.813 0.875-1.063s0.938-0.313 1.375-0.188c0.5 0.125 0.875 0.438 1.188 0.875l4.5 8.125 7.313 2.125c0.688 0.125 1.25 0.5 1.75 0.938zM28.75 21.375c-0.625 0.25-1.313 0.313-1.938 0.188-0.688-0.25-1.25-0.688-1.563-1.313-0.375-0.688-0.438-1.313-0.25-2 0.188-0.75 0.625-1.25 1.25-1.625s1.313-0.438 2-0.313c0.625 0.25 1.125 0.625 1.5 1.188 0.375 0.5 0.5 1.125 0.438 1.75l1.813 1.063-2.188 2.375z"></path>
</svg>
