<!-- Generated by IcoMoon.io -->
<svg version="1.1" xmlns="http://www.w3.org/2000/svg" width="26" height="32" viewBox="0 0 26 32">
<path fill="#111" d="M2.883 12.039c-0.057-0.342 0-0.627 0.171-0.912l1.282-1.881c0 0 0.513-0.741 0.741-1.054 0.37-0.541 1.51-0.456 1.852 0.143 0 0 0.086 0.143 0.114 0.37l0.741 1.767 1.453 0.883c0.257 0.143 0.342 0.484 0.171 0.712-0.143 0.257-0.484 0.342-0.712 0.171l-1.881-1.14-0.399-0.855-1.197 1.767 2.052 1.767c0.456 0.342 0.342 0.912 0.342 0.912l-0.541 2.85c0 0.057-0.029 0.086-0.057 0.143-0.171 0.313-0.57 0.456-0.912 0.285-0.285-0.143-0.427-0.484-0.342-0.769l0.427-2.394-2.251-1.567-0.086-0.057-0.484-0.342c-0.228-0.199-0.399-0.484-0.484-0.798zM3.71 14.86c0.114-0.313 0.228-0.741 0.342-1.083l-0.883-0.627c-0.171-0.114-0.313-0.257-0.399-0.399l-0.313 1.596-2.223 0.94c-0.285 0.086-0.484 0.399-0.456 0.712 0.029 0.37 0.37 0.627 0.741 0.598 0.057 0 0.086-0.029 0.143-0.029l2.679-1.111c-0.057 0 0.199-0.086 0.37-0.598zM7.443 7.907c0.598-0.114 0.997-0.684 0.883-1.282s-0.684-0.997-1.282-0.883c-0.598 0.114-0.997 0.684-0.883 1.282s0.684 0.997 1.282 0.883zM25.197 19.078c-0.057 0.143-0.171 0.228-0.313 0.256-0.114 0.029-0.228 0.029-0.37-0.029l-4.503-2.052-1.453 1.311c-0.057 0.057-0.114 0.086-0.199 0.114-0.171 0.057-0.399 0-0.513-0.143-0.086-0.114-0.143-0.256-0.114-0.37l-0.427 0.399c-0.057 0.057-0.114 0.086-0.199 0.114-0.171 0.057-0.399 0-0.513-0.143-0.199-0.199-0.171-0.513 0.029-0.712l0.855-0.769-4.389 0.199v1.083h0.199c0 0 0.228 0.029 0.228-0.199v-0.228h0.427c0 0 0.086 0.769-0.484 0.855h-11.143v-0.427h6.326v-5.842l3.762 3.819 6.013-0.143 0.029-0.029c0 0-2.251-1.596-0.684-2.935 0.114-0.114 1.054 2.109 1.054 2.109l3.106 0.029 0.655-0.313-0.143-2.109 0.684 0.798 2.251 1.026-0.37 0.627-1.197 0.086-0.228 1.14 1.254 0.37c0.256 0.086 0.427 0.37 0.342 0.627-0.057 0.171-0.171 0.285-0.342 0.342-0.086 0.029-0.199 0.029-0.285 0l-1.339-0.399-0.057 0.086 1.767 0.826c0.285 0.086 0.399 0.399 0.285 0.627zM17.73 16.798l0.456-0.399-5.557 0.143 0.484 0.484v0.029l4.617-0.256z"></path>
</svg>
