<!-- Generated by IcoMoon.io -->
<svg version="1.1" xmlns="http://www.w3.org/2000/svg" width="32" height="32" viewBox="0 0 32 32">
<path fill="#111" d="M3.35 29.852l-0.116-0.632-0.246-0.679-0.288-0.367-0.177-0.4 0.107-1.143 0.237-1.418-0.074-0.948-0.121-0.539 0.028-0.456 0.288-0.576 0.456-0.614 0.609-1.097 0.070-0.855 0.116-1.041-0.237-1.069-0.465-0.944-0.372-0.772-0.428-0.957-0.237-0.892v-1.069l-0.181 1.562-0.037 0.892v1.125l0.037 0.702 0.367 0.642 0.116 0.497v2.929l-0.367 0.432-0.088 0.246-0.279-0.158-0.112 0.246v-0.548l-0.069-0.312-0.066-0.274-0.088-0.363h-0.158l-0.181-0.158-0.21-0.209-0.028-0.553-0.13-1.255 0.037-0.823 0.214-1.381 0.116-1.529 0.125-1.004 0.437-1.441 0.604-1.009 0.79-0.609 0.916-0.758 1.38-0.432 0.734-0.432 1.53 0.028 2.143 0.186 2.231 0.372 1.645 0.116 2.482 0.098 0.99 0.028h1.232l0.437-0.232 0.158-0.149-0.065-0.288-0.093-0.149 0.437-0.111 0.019-0.279 0.274-0.112 0.060-0.348 0.037-0.228 0.279-0.009 0.121-0.386h0.325v-0.33l0.488-0.060v-0.13l0.135-0.172 0.065-0.237 0.265-0.051v-0.042l0.079-0.26 0.186-0.219 0.046-0.256 0.437-0.046 0.367-0.14-0.088-0.316 0.163-0.284h0.395l-0.019-0.348-0.028-0.195 0.256-0.088 0.228 0.009 0.121-0.056-0.075-0.349 0.163-0.153 0.163-0.056 0.195 0.121 0.228 0.088-0.009-0.86 0.149-1.046 0.093-0.558 0.088-0.492 0.293-0.256 0.163-0.047 0.186 0.056 0.177 0.228 0.065 0.376 0.060 0.786 0.070 0.395v0.339l0.019 0.195 0.028 0.023 0.214-0.093 0.577-0.883 0.116-0.488 0.093-0.632 0.047-0.274 0.135-0.028 0.209 0.102 0.144 0.293 0.116 0.209 0.019 0.511 0.004 0.697-0.004 0.456-0.042 0.47-0.065 0.465-0.232 0.395-0.056 0.181 0.4 0.093 0.391 0.209 0.521 0.553 0.437 0.702 0.311 0.613 0.056 0.414 0.163 0.302 0.484 0.679 0.902 0.972 0.19 0.344 0.014 0.144 0.288 0.246 0.246 0.27 0.051 0.381-0.009 0.288-0.098 0.172-0.153 0.13-0.112 0.126-0.102 0.214-0.265 0.172-0.274 0.102-0.576 0.098-0.4-0.088-0.442-0.186-0.33-0.19-0.548-0.112-0.623-0.2-0.307-0.195-0.139-0.060-0.39 0.042h-0.381l-0.307 0.093-0.158 0.158-0.209 0.446-0.339 0.823-0.358 0.544-0.456 0.86-0.651 0.721-0.432 0.488-0.307 0.502-0.321 0.925-0.265 0.879-0.302 0.52-0.423 0.451-0.307 0.246-0.14 0.493-0.121 0.697-0.39 0.548-0.204 0.558-0.195 1.027-0.046 0.716-0.316 2.38-0.158 1.278 0.028 0.586 0.028 0.553 0.158 0.381 0.377 0.395 0.256 0.512 0.363 0.381 0.232 0.233v0.284l-0.521 0.074-1.887 0.005-0.995-0.060-0.121-0.367v-0.205l0.204-0.335 0.135-0.214v-0.19l-0.102-0.228-0.2-0.144-0.158-0.209-0.088-0.312 0.125-0.26 0.4-0.293 0.167-0.995-0.153-1-0.256-0.479-0.13-0.6v-0.562l0.325-1.362-0.223-0.688-0.13-0.586v-1.353l-0.298-0.13-1.98 0.795-1.329 0.032-1.422-0.176-1.692-0.586-1.53-0.344-0.497-0.153-0.465-0.344-0.131 0.111-0.083 0.335-0.372 0.028-0.428-0.191-0.26 0.125-0.344 0.595-0.641 1.283-0.34 0.511-0.437 0.837-0.181 1.362 0.028 1.464 0.269 1.39 0.177 0.86 0.237 0.79 0.172 0.446 0.083 0.121 0.084 0.028 0.167 0.144 0.251 0.283 0.242 0.396 0.042 0.13 0.028 0.298-0.614 0.042-0.851-0.042h-0.409l-0.916-0.033-0.604-0.009-0.386 0.009z"></path>
<path fill="#111" d="M5.181 29.503l0.075-0.116 0.009-0.274-0.056-0.172-0.111-0.167-0.167-0.149-0.251 0.019-0.037 0.13 0.074 0.302 0.089 0.177 0.302 0.251h0.074z"></path>
</svg>
