<!-- Generated by IcoMoon.io -->
<svg version="1.1" xmlns="http://www.w3.org/2000/svg" width="32" height="32" viewBox="0 0 32 32">
<path fill="#111" d="M2.764 16h26.472c0.172 0 0.329 0.096 0.407 0.249s0.063 0.337-0.038 0.476l-3.651 5.021c-0.086 0.118-0.222 0.188-0.368 0.188-2.183 0-19.074 0-20.543 0-0.069 0-0.136-0.016-0.198-0.047-2.235-1.115-2.537-3.369-2.537-5.427-0-0.253 0.203-0.46 0.456-0.46zM23.759 17.597c0 0.126 0.102 0.228 0.228 0.228h0.456c0.126 0 0.228-0.102 0.228-0.228v-0.456c0-0.126-0.102-0.228-0.228-0.228h-0.456c-0.126 0-0.228 0.102-0.228 0.228v0.456zM21.933 17.597c0 0.126 0.102 0.228 0.228 0.228h0.456c0.126 0 0.228-0.102 0.228-0.228v-0.456c0-0.126-0.102-0.228-0.228-0.228h-0.456c-0.126 0-0.228 0.102-0.228 0.228v0.456zM20.108 17.597c0 0.126 0.102 0.228 0.228 0.228h0.456c0.126 0 0.228-0.102 0.228-0.228v-0.456c0-0.126-0.102-0.228-0.228-0.228h-0.456c-0.126 0-0.228 0.102-0.228 0.228v0.456zM18.282 17.597c0 0.126 0.102 0.228 0.228 0.228h0.456c0.126 0 0.228-0.102 0.228-0.228v-0.456c0-0.126-0.102-0.228-0.228-0.228h-0.456c-0.126 0-0.228 0.102-0.228 0.228v0.456zM16.456 17.597c0 0.126 0.102 0.228 0.228 0.228h0.456c0.126 0 0.228-0.102 0.228-0.228v-0.456c0-0.126-0.102-0.228-0.228-0.228h-0.456c-0.126 0-0.228 0.102-0.228 0.228v0.456zM14.63 17.597c0 0.126 0.102 0.228 0.228 0.228h0.456c0.126 0 0.228-0.102 0.228-0.228v-0.456c0-0.126-0.102-0.228-0.228-0.228h-0.456c-0.126 0-0.228 0.102-0.228 0.228v0.456zM12.805 17.597c0 0.126 0.102 0.228 0.228 0.228h0.456c0.126 0 0.228-0.102 0.228-0.228v-0.456c0-0.126-0.102-0.228-0.228-0.228h-0.456c-0.126 0-0.228 0.102-0.228 0.228v0.456zM10.979 17.597c0 0.126 0.102 0.228 0.228 0.228h0.456c0.126 0 0.228-0.102 0.228-0.228v-0.456c0-0.126-0.102-0.228-0.228-0.228h-0.456c-0.126 0-0.228 0.102-0.228 0.228v0.456zM9.154 17.597c0 0.126 0.102 0.228 0.228 0.228h0.456c0.126 0 0.228-0.102 0.228-0.228v-0.456c0-0.126-0.102-0.228-0.228-0.228h-0.456c-0.126 0-0.228 0.102-0.228 0.228v0.456zM7.328 17.597c0 0.126 0.102 0.228 0.228 0.228h0.456c0.126 0 0.228-0.102 0.228-0.228v-0.456c0-0.126-0.102-0.228-0.228-0.228h-0.456c-0.126 0-0.228 0.102-0.228 0.228v0.456zM5.502 17.597c0 0.126 0.102 0.228 0.228 0.228h0.456c0.126 0 0.228-0.102 0.228-0.228v-0.456c0-0.126-0.102-0.228-0.228-0.228h-0.456c-0.126 0-0.228 0.102-0.228 0.228v0.456z"></path>
<path fill="#111" d="M6.188 12.494l0.299-0.768c0.068-0.175 0.237-0.291 0.425-0.291h1.786v-1.141c0-0.126 0.102-0.228 0.228-0.228h0.456c0.126 0 0.228 0.102 0.228 0.228v1.141h2.282v-1.141c0-0.126 0.102-0.228 0.228-0.228h0.456c0.126 0 0.228 0.102 0.228 0.228v1.141h2.282v-1.141c0-0.126 0.102-0.228 0.228-0.228h0.456c0.126 0 0.228 0.102 0.228 0.228v1.141h1.893c0.188 0 0.357 0.115 0.425 0.291l0.299 0.767c0.058 0.15-0.052 0.311-0.213 0.311h-12.004c-0.161 0-0.271-0.162-0.213-0.311z"></path>
<path fill="#111" d="M4.242 14.783l0.27-0.761c0.064-0.182 0.237-0.304 0.43-0.304h17.726c0.193 0 0.366 0.121 0.43 0.304l0.27 0.761c0.053 0.149-0.057 0.305-0.215 0.305h-18.697c-0.157 0-0.268-0.156-0.215-0.304z"></path>
</svg>
