<!-- Generated by IcoMoon.io -->
<svg version="1.1" xmlns="http://www.w3.org/2000/svg" width="32" height="32" viewBox="0 0 32 32">
<path fill="#111" d="M0.070 22.669l2.133-3.733c0.095-0.166 0.271-0.269 0.463-0.269h0.359l-0.873-3.053c-0.070-0.247 0.045-0.509 0.274-0.623l0.477-0.238-1.721-2.151c-0.109-0.136-0.145-0.317-0.095-0.484s0.178-0.3 0.343-0.355l1.297-0.432-0.562-1.546c-0.092-0.255 0.021-0.538 0.263-0.659l1.067-0.533c0.195-0.098 0.43-0.067 0.593 0.078l3.644 3.239-0.79-4.346c-0.028-0.156 0.014-0.316 0.115-0.437s0.251-0.192 0.409-0.192h1.6c0.127 0 0.251 0.045 0.347 0.129l7.361 6.309 2.356 0.471c0.215-0.16 0.524-0.305 0.977-0.406 0.676-0.153 1.547-0.186 2.453-0.094s1.753 0.298 2.385 0.581c0.819 0.367 1.094 0.784 1.156 1.127l5.506 1.502c0.25 0.068 0.414 0.306 0.39 0.563s-0.229 0.461-0.487 0.483l-6.351 0.527-8.925 1.575-6.19 5.208c-0.051 0.044-0.111 0.077-0.174 0.098l-0.1 0.034c-0.054 0.018-0.111 0.027-0.169 0.027-0.044 0-0.087-0.005-0.13-0.016l-2.133-0.533c-0.286-0.071-0.459-0.361-0.388-0.647l0.936-3.744-0.767 0.118-5.244 3.146c-0.081 0.049-0.172 0.075-0.266 0.076l-1.067 0.017c-0.002 0-0.005 0-0.007 0-0.14 0-0.275-0.063-0.375-0.162-0.1-0.1-0.158-0.245-0.158-0.388-0-0.093 0.024-0.184 0.070-0.265zM22.347 15.464c1.467 0.147 2.39-0.097 2.659-0.268-0.229-0.221-1.085-0.645-2.552-0.793-1.465-0.149-2.389 0.097-2.659 0.268 0.23 0.221 1.085 0.645 2.552 0.793z"></path>
</svg>
