<!-- Generated by IcoMoon.io -->
<svg version="1.1" xmlns="http://www.w3.org/2000/svg" width="32" height="32" viewBox="0 0 32 32">
<path fill="#111" d="M13.521 19.553c-0.383-0.579-0.873-1.088-1.286-1.65-0.289-0.396-0.602-0.802-0.77-1.254-0.536-1.451-0.279-2.801 0.733-3.952 0.492-0.558 1.069-1.036 1.612-1.546 0.763-0.714 1.262-1.549 1.304-2.649 0.043-1.171-0.532-2.127-1.58-2.414-0.534-0.146-1.649-0.226-1.652-0.202-1.604 0.079-3.145 0.414-4.556 1.225-1.287 0.74-2.21 1.79-2.466 3.325-0.216 1.291-0.096 2.578 0.358 3.794 0.406 1.089 0.92 2.134 1.401 3.194 0.565 1.245 0.938 2.537 0.968 3.919 0.008 0.357 0.021 0.717 0.089 1.064 0.223 1.168 0.767 2.108 1.867 2.62 0.662 0.308 1.361 0.246 2.053 0.146 1.3-0.187 2.152-0.958 2.412-2.178 0.26-1.208 0.209-2.387-0.486-3.443z"></path>
<path fill="#111" d="M15.38 4.111c0.482-0.593 0.671-1.291 0.695-2.132-0.015-0.123-0.027-0.329-0.066-0.533-0.031-0.169-0.082-0.337-0.143-0.499-0.39-1.038-1.36-1.257-2.14-0.487-0.778 0.769-1.031 2.449-0.515 3.431 0.506 0.964 1.481 1.065 2.17 0.22z"></path>
<path fill="#111" d="M11.671 4.036c0.594-0.591 0.731-1.773 0.288-2.491-0.394-0.639-1.082-0.675-1.547-0.073-0.303 0.391-0.426 0.848-0.423 1.343-0.005 0.426 0.096 0.79 0.294 1.083 0.361 0.533 0.935 0.589 1.388 0.137z"></path>
<path fill="#111" d="M9.066 4.426c0.25-0.309 0.325-0.677 0.341-1.063-0.018-0.398-0.096-0.774-0.357-1.084-0.319-0.377-0.77-0.375-1.090 0-0.459 0.54-0.467 1.599-0.014 2.149 0.328 0.401 0.796 0.401 1.12-0.002z"></path>
<path fill="#111" d="M7.349 5.137c0.271-0.486 0.111-1.31-0.323-1.655-0.327-0.26-0.712-0.189-0.894 0.189-0.082 0.175-0.108 0.375-0.161 0.564 0.043 0.434 0.164 0.812 0.497 1.085 0.317 0.26 0.682 0.176 0.882-0.183z"></path>
<path fill="#111" d="M5.916 6.425c0.123-0.192 0.173-0.433 0.259-0.668-0.086-0.225-0.134-0.448-0.248-0.628-0.188-0.298-0.53-0.296-0.758-0.024-0.28 0.333-0.3 0.968-0.040 1.322 0.228 0.308 0.581 0.322 0.786-0.002z"></path>
<path fill="#111" d="M20.492 12.891c0.003-0.024-1.093-0.245-1.648-0.245-1.088-0.003-1.895 0.767-2.165 1.906-0.256 1.072 0.007 2.009 0.551 2.901 0.386 0.636 0.817 1.251 1.142 1.922 0.669 1.376 0.561 2.746-0.344 4.002-0.282 0.392-0.694 0.699-1.076 1.005-0.546 0.434-1.153 0.791-1.679 1.249-0.952 0.831-1.314 1.955-1.385 3.191-0.074 1.247 0.541 2.214 1.745 2.742 0.642 0.281 1.297 0.526 2.018 0.406 1.196-0.201 1.973-0.966 2.497-2.028 0.156-0.318 0.267-0.662 0.369-1.005 0.397-1.326 1.099-2.472 1.977-3.52 0.744-0.894 1.518-1.765 2.202-2.704 0.761-1.053 1.218-2.261 1.355-3.562 0.162-1.548-0.451-2.806-1.49-3.863-1.149-1.162-2.543-1.893-4.067-2.397z"></path>
<path fill="#111" d="M19.745 10.615c0.757-0.809 0.96-2.496 0.414-3.445s-1.537-0.997-2.192-0.1c-0.101 0.14-0.196 0.288-0.272 0.444-0.090 0.184-0.157 0.379-0.205 0.496-0.2 0.816-0.204 1.54 0.103 2.24 0.438 0.999 1.403 1.161 2.151 0.366z"></path>
<path fill="#111" d="M22.564 11.399c0.27-0.229 0.462-0.554 0.571-0.966 0.137-0.477 0.14-0.951-0.050-1.409-0.288-0.702-0.961-0.85-1.511-0.339-0.616 0.575-0.801 1.749-0.385 2.476 0.315 0.557 0.885 0.654 1.376 0.238z"></path>
<path fill="#111" d="M24.674 12.533c0.583-0.41 0.857-1.431 0.558-2.075-0.209-0.447-0.642-0.569-1.049-0.291-0.337 0.229-0.51 0.571-0.634 0.95-0.086 0.377-0.111 0.751 0.047 1.115 0.206 0.475 0.654 0.6 1.079 0.301z"></path>
<path fill="#111" d="M25.060 13.377c0.098 0.398 0.428 0.576 0.803 0.411 0.393-0.175 0.611-0.506 0.766-0.913 0-0.196 0.029-0.397-0.006-0.587-0.074-0.415-0.425-0.584-0.811-0.42-0.51 0.216-0.885 0.968-0.752 1.509z"></path>
<path fill="#111" d="M27.169 13.922c-0.147-0.322-0.477-0.418-0.736-0.18-0.157 0.144-0.263 0.345-0.406 0.54 0.021 0.25 0.006 0.495 0.072 0.713 0.113 0.367 0.456 0.447 0.758 0.21 0.344-0.272 0.492-0.889 0.313-1.284z"></path>
</svg>
