<!-- Generated by IcoMoon.io -->
<svg version="1.1" xmlns="http://www.w3.org/2000/svg" width="35" height="32" viewBox="0 0 35 32">
<path fill="#111" d="M34.239 0.146c-0.391-0.086-0.77 0.155-0.966 0.483-2.847 3.749-5.702 7.495-8.668 11.153-1.726 2.057-3.497 4.077-5.207 6.146-2.525 0.593-5.124 0.338-7.688 0.239-1.817-0.030-3.636-0.066-5.451-0.16-0.888-1.295-1.823-2.563-2.664-3.888 0.562-0.725 1.111-1.463 1.621-2.226-0.295-0.014-0.668-0.222-0.907 0.034-0.625 0.531-1.261 1.048-1.878 1.588-0.274 0.347-0.748 0.109-1.111 0.163-0.033 0.278 0.111 0.537 0.107 0.811-0.385 0.47-0.839 0.877-1.26 1.314 0.485 0.145 0.965 0.079 1.323-0.292 0.306 0.771 0.342 1.644 0.598 2.438 0.729 0.253 1.532 0.331 2.205 0.727 0.136-0.039 0.251-0.144 0.394-0.15 3.585 0.211 7.168 0.469 10.738 0.853 0.669 0.167 1.38 0.197 2.026 0.435-4.966 4.083-10.115 7.967-15.616 11.306-0.188 0.177-0.774 0.354-0.555 0.694 0.555-0.063 1.113-0.257 1.609-0.517 3.116-1.738 6.234-3.486 9.188-5.493 2.5-1.605 4.811-3.476 7.2-5.237 0.106-0.067 0.216-0.182 0.356-0.16 2.961 0.486 6.026 0.913 8.996 0.28 0.29-0.083 1.034-0.246 0.644-0.647-2.151-1.287-4.619-2.045-7.117-2.238 2.455-3.077 4.929-6.208 7.189-9.455 1.816-2.324 3.123-4.987 4.838-7.38 0.151-0.187 0.48-0.734 0.058-0.818z"></path>
</svg>
