<!-- Generated by IcoMoon.io -->
<svg version="1.1" xmlns="http://www.w3.org/2000/svg" width="32" height="32" viewBox="0 0 32 32">
<path fill="#111" d="M8.533 5.333l-2.133 2.667c0 0.883 0.717 1.6 1.6 1.6s1.6-0.717 1.6-1.6c0 0.883 0.717 1.6 1.6 1.6s1.6-0.717 1.6-1.6c0 0.883 0.717 1.6 1.6 1.6s1.6-0.717 1.6-1.6c0 0.883 0.717 1.6 1.6 1.6s1.6-0.717 1.6-1.6c0 0.883 0.717 1.6 1.6 1.6s1.6-0.717 1.6-1.6c0 0.883 0.717 1.6 1.6 1.6s1.6-0.717 1.6-1.6l-2.133-2.667h-14.933zM9.6 11.733v6.4h-1.067c-2.598 0-4.167-1.421-5.45-3.683-0.18-0.349-0.538-0.583-0.95-0.583h-0c-0.589 0-1.067 0.478-1.067 1.067v0c0 0.031 0.002 0.062 0.004 0.092l-0-0.004c0.039 5.288 3.56 8.783 3.56 8.783 0.406 0.197 1.737 0.729 2.835 0.729s2.43-0.531 2.85-0.735c0.896-0.436 1.956-0.44 2.848 0.006 0.406 0.197 1.737 0.729 2.835 0.729s2.43-0.531 2.85-0.735c0.896-0.436 1.956-0.44 2.848 0.006 0.406 0.197 1.737 0.729 2.835 0.729 0.674 0 1.432-0.199 2.017-0.402l-1.379-6.206c-0.503 0.128-1.063 0.208-1.704 0.208h-1.067v-6.4h-2.133v6.4c0 1.179-0.955 2.133-2.133 2.133h-4.267c-1.179 0-2.133-0.955-2.133-2.133v-6.4h-2.133zM25.171 17.925c0.817-0.208 1.469-0.549 1.977-0.944l-0.506-2.279c-0.128-0.576-0.698-0.932-1.273-0.808-0.575 0.128-0.937 0.698-0.81 1.273l0.613 2.758zM27.148 16.981l1.24 5.581c1.039-1.453 2.509-4.111 2.54-7.523 0.004-0.031 0.006-0.068 0.006-0.106v-0.001c0-0.589-0.478-1.067-1.067-1.067v0c-0.477 0-0.88 0.313-1.017 0.745l-0.002 0.008c-0.015 0.053-0.4 1.353-1.7 2.362zM3.163 25.594c-0.579 0.014-1.042 0.486-1.042 1.067 0 0.42 0.243 0.784 0.597 0.958l0.006 0.003c0 0 2.255 1.179 4.744 1.179 2.076 0 3.689-0.711 4.267-0.983 0.577 0.272 2.19 0.983 4.267 0.983s3.689-0.711 4.267-0.983c0.577 0.272 2.19 0.983 4.267 0.983 2.489 0 4.744-1.179 4.744-1.179 0.353-0.179 0.59-0.539 0.59-0.954 0-0.589-0.478-1.067-1.067-1.067-0.174 0-0.338 0.042-0.483 0.116l0.006-0.003c0 0-2.012 0.954-3.79 0.954s-3.79-0.954-3.79-0.954c-0.139-0.071-0.303-0.113-0.477-0.113s-0.338 0.042-0.483 0.115l0.006-0.003c0 0-2.012 0.954-3.79 0.954s-3.79-0.954-3.79-0.954c-0.139-0.071-0.303-0.113-0.477-0.113s-0.338 0.042-0.483 0.115l0.006-0.003c0 0-2.012 0.954-3.79 0.954s-3.79-0.954-3.79-0.954c-0.142-0.075-0.311-0.119-0.49-0.119-0.009 0-0.017 0-0.026 0l0.001-0z"></path>
</svg>
