<!-- Generated by IcoMoon.io -->
<svg version="1.1" xmlns="http://www.w3.org/2000/svg" width="32" height="32" viewBox="0 0 32 32">
<path fill="#111" d="M31.36 3.2c0.316 0 0.592 0.228 0.64 0.54s-0.138 0.625-0.44 0.72l-30.72 9.6c-0.063 0.019-0.136 0.020-0.2 0.020h-0.020c-0.354 0-0.64-0.287-0.64-0.64 0-0.115 0.028-0.227 0.080-0.32l2.22-6.68-2.1-2.16c-0.179-0.184-0.22-0.443-0.12-0.68s0.323-0.4 0.58-0.4h30.72zM23.54 8.3l2.8 11.78c0.327 0.232 0.54 0.61 0.54 1.040 0 0.704-0.576 1.28-1.28 1.28h-4.040c-0.512 0-1.020-0.196-1.34-0.58l-1.86-1.98-6.14 1.72-7.1 6.34c-0.256 0.256-0.52 0.32-0.84 0.32s-0.564-0.127-0.82-0.32c-0.384-0.512-0.388-1.272 0.060-1.72 0 0 6.152-6.971 6.6-7.42 0.448-0.512 0.76-0.972 1.4-1.1l1.7-0.48 1.52-6.14 1.44-0.44-1.54 6.18 2.32-0.66c0.768-0.192 1.72-0.116 2.36 0.78l2.5 2.94h3.16l-2.68-11.16 1.24-0.38zM19.52 10.24c1.216 0 2.24 1.024 2.24 2.24s-1.024 2.24-2.24 2.24c-1.216 0-2.24-1.024-2.24-2.24s1.024-2.24 2.24-2.24z"></path>
</svg>
