<!-- Generated by IcoMoon.io -->
<svg version="1.1" xmlns="http://www.w3.org/2000/svg" width="27" height="32" viewBox="0 0 27 32">
<path fill="#111" d="M2.984 15.25c-0.125 1.688 1.25 3.188 2.938 3.25 1.125 0.063 2.063-0.5 2.687-1.313 0.063 0 0.125 0 0.188-0.063 0.313-0.063 0.563-0.188 0.813-0.313-0.063 0.25-0.063 0.5-0.125 0.75-0.125 0.438-0.125 0.938-0.063 1.313-0.688 3.563-1.563 7.063-2.563 10.563-0.688 2.313 2.875 3.25 3.5 1 0.875-3 1.625-6 2.25-9.063 0.063 0 0.125 0 0.188 0 1.688 2.438 2.563 5.25 2.063 8.313-0.313 2.313 3.188 3.313 3.563 1 0.688-4.438-0.438-8.25-2.938-11.688 0.438-1.813 0.688-3.563 0.875-5.375 1.438 1.063 3.125 1.875 4.938 2.5 2.25 0.75 3.188-2.813 0.938-3.5-2.25-0.75-4.188-2-5.813-3.75-0.75-2.688-4.875-2.75-5.875-0.188-0.063-0.063-0.125-0.063-0.188-0.063-0.75-0.188-1.563-0.125-2.313 0.063-0.438-0.313-0.938-0.5-1.5-0.5-1.688-0.125-3.125 1.188-3.25 2.875-0.125 1.438-0.25 2.813-0.313 4.188zM10.046 14.437c-0.25 0.25-0.563 0.438-0.813 0.563 0.063-1.188 0.188-2.375 0.25-3.563 0.063-0.375 0-0.75-0.125-1.063 0.375 0 0.688 0.063 0.938 0.188 0 1.313-0.125 2.625-0.25 3.875zM18.109 3.125c0-1.75-1.375-3.125-3.063-3.125s-3.125 1.375-3.125 3.125c0 1.687 1.438 3.062 3.125 3.062s3.063-1.375 3.063-3.063z"></path>
</svg>
