<!-- Generated by IcoMoon.io -->
<svg version="1.1" xmlns="http://www.w3.org/2000/svg" width="32" height="32" viewBox="0 0 32 32">
<path fill="#111" d="M14.813 2.625c0 1.438-1.188 2.625-2.625 2.625s-2.625-1.188-2.625-2.625c0-1.438 1.188-2.625 2.625-2.625s2.625 1.188 2.625 2.625zM16.063 6.188h-7.688c-0.563 0.125-1.188 0.313-1.75 0.813s-0.938 1.375-0.938 2.25v8.375c0 0.688 0.625 1.313 1.313 1.313s1.313-0.625 1.313-1.313v-7.938l0.688 2v19c-0.063 0.688 0.625 1.313 1.313 1.313s1.313-0.625 1.313-1.313v-12h1.188v12c0 0.688 0.625 1.313 1.313 1.313s1.313-0.625 1.313-1.313v-19l0.688-2.125c0.063 0.25 0.188 0.5 0.375 0.688l3.125 2.75c0.25 0.188 0.563 0.313 0.875 0.313h4.188c0.563 0.063 1.125-0.375 1.313-0.938h-4.563v-1.688h-0.438l-2.375-2.063c-0.125-0.625-0.438-1.25-0.875-1.625-0.563-0.5-1.188-0.688-1.688-0.813zM22 8.375v3.438h7.875l1.5-1.75-1.5-1.688zM3.938 18.625c-0.25 0-0.438 0.063-0.625 0.188-0.063 0-0.125 0.063-0.125 0.063-0.125 0.063-0.188 0.188-0.25 0.25s-0.063 0.125-0.063 0.125c-0.063 0.125-0.125 0.188-0.125 0.25s-0.063 0.063-0.063 0.125c0 0.063 0 0.125 0 0.125 0 0.063 0 0.125 0 0.125v0.938h-0.75c-0.688 0-1.313 0.625-1.313 1.313v8.5c0 0.688 0.625 1.313 1.313 1.313h4.063c0.688 0 1.313-0.625 1.313-1.313v-8.5c0-0.688-0.625-1.313-1.313-1.313h-0.688v-0.938c0-0.063 0-0.063-0.063-0.125 0-0.125 0-0.25-0.063-0.375-0.063-0.063-0.063-0.063-0.063-0.125-0.063-0.063-0.063-0.063-0.063-0.125-0.063 0-0.063-0.063-0.125-0.063 0-0.063-0.063-0.063-0.063-0.125-0.063-0.063-0.125-0.125-0.188-0.125-0.125-0.063-0.25-0.125-0.375-0.188-0.063 0-0.125 0-0.125 0-0.063 0-0.125 0-0.125 0-0.063 0-0.125 0-0.125 0z"></path>
</svg>
