<!-- Generated by IcoMoon.io -->
<svg version="1.1" xmlns="http://www.w3.org/2000/svg" width="32" height="32" viewBox="0 0 32 32">
<path fill="#111" d="M16.814 18.854l0.769-0.052c0-0.102 0.013-0.23 0.013-0.359 0-0.269-0.461-0.512-0.564-0.026-0.077 0.167-0.154 0.308-0.218 0.436v0zM11.395 19.981l-1.819 0.141c0.192 0.205 0.282 0.474 0.282 0.743 0 0.628-0.525 1.153-1.14 1.153s-1.14-0.525-1.14-1.153c0-0.23 0.064-0.461 0.205-0.653l-1.832 0.090c-0.038 0.205-0.064 0.384-0.064 0.576 0 1.55 1.281 2.844 2.831 2.844s2.818-1.281 2.818-2.844c0-0.307-0.051-0.627-0.141-0.897v0zM15.955 18.918l-2.6 0.103 1.204-3.536-0.026-2.050-12.336 0.91 1.397 5.265-1.973 0.128 0.039 0.807 3.613-0.205c-0.026 0.192-0.052 0.359-0.052 0.538 0 1.922 1.588 3.51 3.497 3.51s3.485-1.576 3.485-3.51c0-0.307-0.038-0.627-0.128-0.922l3.651-0.243c-0.051 0.346-0.179 0.474-0.449 0.961-0.282 0.486-0.589 0.909-0.525 1.178 0.653 0.026 1.358-1.038 1.473-1.371 0.115-0.32 0.205-0.602 0.282-0.82l1.012-0.051c0 0.103-0.026 0.23-0.026 0.397-0.154 0.807-0.615 0.704-0.846 1.217-0.064 0.846-0.141 1.473-0.397 2.268-0.282 0.448 0.166 0.486 0.141 1.294 0.154 0.090 0.717 0 0.909 0.090 0.128-0.641-0.295-1.063-0.32-1.256-0.141 0.026 0.218-1.383 0.717-2.152 0.41-0.333 0.602-0.461 1.14-0.627 0.192 0.064 0.307 0 0.384 0.499 0.038 0.218 0.103 0.487 0.038 0.641 0.282 0.192 0.474 0.192 0.871 0.615s0.448 0.833 0.512 0.935c0.064 0.115 0.589-0.141 0.435 0.064 0.051 0.115-0.064 0.449-0.038 0.551 0.090-0.013 0.82 0.115 1.038 0.115 0.038-0.256-0.026-0.448-0.064-0.666-0.32-0.281-0.705-0.807-0.91-1.165-0.551-0.448-0.846-1.512-1.114-2.101 0.179-0.32 0.295-0.359 0.628-0.422 1.166 0.295 2.19 0.397 3.753 0.102-0.205 1.089-0.243 1.422-1.153 3.548 0.269 0.154 0.243 0.461 0.205 0.948 0.359 0 0.743 0 1.102 0-0.128-0.308-0.282-0.795-0.423-1.102 0.141-1.448 0.948-1.845 1.396-3.1 0.717 0.218 1.204 0.436 1.973 0.705 0.013 1.14-0.256 1.038-0.615 1.781-0.102 0.423-0.397 0.397-0.589 0.461-0.026 0.397 0.717 0.948 0.782 1.281 0.103-0.333 0.564-0.756 0.487-1.102 0.308-0.371 0.589-1.806 0.692-2.485-0.167-0.589-1.076-1.038-1.589-1.755 0.192-0.641 0.256-1.396 0.154-2.114 0.589-0.833 1.204-1.742 1.332-1.717 0.128-0.051 0.32-0.115 0.461 0.102 0.154 0.205 0.333 0.512 0.448 0.807 0.102 0.295-0.192 0.359 0.038 0.692 0.461 0 0.935 0.051 1.307-0.192 0-0.5-0.32-2.152-0.32-2.985 0.051-0.192 0.115-0.436 0.115-0.589-0.064-0.154-0.256-0.231-0.538-0.551 0.064-0.512 0.115-1.076 0.179-1.486-0.179 0.32-0.448 0.705-0.653 1.038-0.384 0.064-0.807-0.077-1.127 0.064-2.28 1.127-2.306 2.818-3.702 3.267-1.114 0.358-1.857 0.064-3.715 0.23-0.397 0.038-1.012-0.23-1.601-0.090-0.589 0.154-1.614 0.794-1.922 0.999-0.423 0.295-0.73 1.409-1.14 2.255v0z"></path>
<path fill="#111" d="M11.429 7.125c-0.423 0-0.769 0.346-0.769 0.782 0 0.423 0.346 0.769 0.769 0.769 0.435 0 0.781-0.346 0.781-0.769 0-0.435-0.346-0.782-0.781-0.782v0z"></path>
<path fill="#111" d="M14.619 16.451v-3.036c-0.974 0.064-2.050 0.154-3.049 0.179-0.615-0.026-0.743-0.359-0.743-0.91v-2.677c-0.038-0.589 0.256-1.025 1.038-0.756 1.14 0.423 2.191 0.794 3.318 1.204 0.653 0.282 0.307 1.256-0.371 0.999l-1.653-0.576-0.397 0.705c-0.090 0.154-0.013 0.615 0.218 0.615l1.653-0.077c0.628-0.013 1.025 0.115 1.025 0.782 0 1.268 0 2.293 0 3.548 0.013 0.73-1.025 0.756-1.038 0v0z"></path>
</svg>
