<!-- Generated by IcoMoon.io -->
<svg version="1.1" xmlns="http://www.w3.org/2000/svg" width="32" height="32" viewBox="0 0 32 32">
<path fill="#111" d="M12.438 5c-0.625 0-1.125-0.188-1.563-0.625s-0.688-0.938-0.688-1.563c0-0.563 0.25-1.063 0.688-1.5s0.938-0.688 1.563-0.688c0.625 0 1.188 0.25 1.625 0.688s0.625 0.938 0.625 1.5c0 0.625-0.188 1.125-0.625 1.563s-1 0.625-1.625 0.625zM31.938 9.563c0.125 0.375 0.063 0.75-0.125 1.125-0.375 0.563-0.875 0.813-1.625 0.688l-0.438-0.063c-0.188 0.875-0.625 1.563-1.375 2.125-0.688 0.563-1.5 0.813-2.438 0.813-0.375 0-0.75-0.063-1.188-0.125l-3.438 6.625v9.188c0 0.375-0.125 0.688-0.313 1-0.25 0.25-0.563 0.438-1 0.438s-0.75-0.188-1-0.438c-0.25-0.313-0.313-0.625-0.313-1v-9.25h-7.563l-1.375 2.125 2.813 6.375c0.188 0.375 0.25 0.688 0.125 1.063-0.063 0.375-0.313 0.688-0.688 0.875s-0.75 0.25-1.125 0.125c-0.375-0.125-0.688-0.313-0.938-0.688l-3.25-7.438v-2.313l-1.375 2.188v6.938c0 0.375-0.125 0.688-0.5 1-0.375 0.25-0.75 0.438-1.125 0.438-0.438 0-0.813-0.188-1.125-0.5-0.375-0.313-0.563-0.625-0.563-0.938v-7.938l1.313-1.875v-6.25l-1.313 1.813v5h-2v-5.063c0-0.875 0.313-1.563 0.938-2.125s1.438-0.813 2.375-0.813h6.688v-5c0-0.625 0.25-1.125 0.688-1.563 0.438-0.375 1-0.625 1.625-0.625s1.188 0.25 1.688 0.625c0.438 0.438 0.688 0.938 0.688 1.563v0.688l3.25 0.875c0.313 0 0.563 0.188 0.688 0.438 0.125 0.188 0.188 0.5 0.125 0.75-0.063 0.313-0.188 0.5-0.5 0.625-0.25 0.188-0.5 0.25-0.75 0.188l-2.813-0.625v2.063h3.25l9.063-9.188-0.25 2.313 4.438 2.813c0.375 0.25 0.625 0.563 0.75 0.938zM27.875 12.813c0.563-0.438 0.938-1 1.125-1.625l-2.313-0.438-1.438 2.625c0.188 0.063 0.438 0.063 0.688 0.063 0.75 0 1.375-0.188 1.938-0.625z"></path>
</svg>
