<!-- Generated by IcoMoon.io -->
<svg version="1.1" xmlns="http://www.w3.org/2000/svg" width="30" height="32" viewBox="0 0 30 32">
<path fill="#111" d="M18.145 25.24c0.445 0 0.835 0.334 0.835 0.724l-0.835 3.563c0 0.39-0.39 0.724-0.835 0.724h-5.455c-0.445 0-0.835-0.334-0.835-0.724l-0.835-3.563c0-0.39 0.39-0.724 0.835-0.724v0c1.67 0.612 5.399 0.557 7.069 0zM15.863 1.75c6.68 0.39 9.574 4.843 8.795 9.686-0.501 3.284-2.95 7.57-5.956 10.298-0.445 0.39-0.223 0.891-0.612 1.113v1.503c0 0.111-0.056 0.223-0.111 0.223l-0.946 0.223c-0.111 0-0.167-0.056-0.167-0.111v-1.503c-1.392 0.223-3.229 0.278-4.564 0.056v1.447c0 0.056-0.056 0.111-0.167 0.111l-0.946-0.223c-0.056 0-0.111-0.111-0.111-0.223v-1.503c-0.445-0.278-0.278-0.779-0.724-1.169-2.895-2.728-5.232-6.902-5.566-10.242-0.557-4.898 2.338-9.352 9.073-9.686 0 0 1.28 0 2.004 0zM19.704 10.434c0.223-3.117-0.668-8.016-4.453-8.016-0.278 0-0.835 0-0.835 0-3.674 0-4.787 4.787-4.676 8.016 0.056 3.284 2.004 8.684 3.229 11.411 0.223 0.445 3.006 0.445 3.229 0.056 1.28-2.728 3.284-8.183 3.507-11.467z"></path>
</svg>
