<!-- Generated by IcoMoon.io -->
<svg version="1.1" xmlns="http://www.w3.org/2000/svg" width="32" height="32" viewBox="0 0 32 32">
<path fill="#111" d="M2 4.267h2c0.276 0 0.5 0.224 0.5 0.5v10c0 0.276-0.224 0.5-0.5 0.5h-2c-0.276 0-0.5-0.224-0.5-0.5v-10c0-0.276 0.224-0.5 0.5-0.5z"></path>
<path fill="#111" d="M1.5 25.267c0.725 0.015 1.438-0.18 2.054-0.563 0.468-0.299 1.015-0.452 1.57-0.438 0.555-0.014 1.102 0.138 1.571 0.438 0.615 0.383 1.329 0.578 2.053 0.563 0.724 0.015 1.438-0.18 2.053-0.563 0.468-0.299 1.015-0.452 1.571-0.438 0.555-0.014 1.102 0.138 1.571 0.438 0.616 0.383 1.329 0.578 2.054 0.563 0.725 0.016 1.439-0.18 2.055-0.563 0.966-0.583 2.176-0.583 3.142 0 1.267 0.75 2.842 0.75 4.109 0 0.967-0.583 2.178-0.583 3.145 0 0.616 0.383 1.33 0.578 2.055 0.563 0.276 0 0.5-0.224 0.5-0.5s-0.224-0.5-0.5-0.5c-0.556 0.014-1.104-0.138-1.572-0.438-1.267-0.75-2.842-0.75-4.109 0-0.966 0.583-2.176 0.583-3.143 0-1.267-0.75-2.842-0.75-4.109 0-0.966 0.583-2.176 0.583-3.141 0-0.616-0.382-1.329-0.578-2.054-0.563-0.725-0.016-1.438 0.18-2.053 0.563-0.468 0.299-1.015 0.452-1.57 0.438-0.555 0.014-1.102-0.138-1.57-0.438-0.616-0.382-1.329-0.578-2.054-0.563-0.724-0.016-1.438 0.18-2.053 0.563-0.468 0.299-1.015 0.452-1.571 0.438-0.276 0-0.5 0.224-0.5 0.5s0.224 0.5 0.5 0.5z"></path>
<path fill="#111" d="M30.5 26.267c-0.556 0.014-1.104-0.138-1.572-0.438-1.267-0.75-2.842-0.75-4.109 0-0.966 0.583-2.176 0.583-3.143 0-1.267-0.75-2.842-0.75-4.109 0-0.966 0.583-2.176 0.583-3.141 0-0.616-0.382-1.329-0.578-2.054-0.563-0.725-0.016-1.438 0.18-2.053 0.563-0.468 0.299-1.015 0.452-1.57 0.438-0.555 0.014-1.102-0.138-1.57-0.438-0.616-0.382-1.329-0.578-2.054-0.563-0.724-0.016-1.438 0.18-2.053 0.563-0.468 0.299-1.015 0.452-1.571 0.438-0.276 0-0.5 0.224-0.5 0.5s0.224 0.5 0.5 0.5c0.725 0.015 1.438-0.18 2.054-0.563 0.468-0.299 1.015-0.452 1.57-0.438 0.555-0.014 1.102 0.138 1.571 0.438 0.615 0.383 1.329 0.578 2.053 0.563 0.724 0.015 1.438-0.18 2.053-0.563 0.468-0.299 1.015-0.452 1.571-0.438 0.555-0.014 1.102 0.138 1.571 0.438 0.616 0.383 1.329 0.578 2.054 0.563 0.725 0.016 1.439-0.18 2.055-0.563 0.966-0.583 2.176-0.583 3.142 0 1.267 0.75 2.842 0.75 4.109 0 0.967-0.583 2.178-0.583 3.145 0 0.616 0.383 1.33 0.578 2.055 0.563 0.276 0 0.5-0.224 0.5-0.5s-0.224-0.5-0.5-0.5z"></path>
<path fill="#111" d="M4 22.267h24c1.464 0.001 2.713-1.057 2.955-2.5h-29.91c0.242 1.443 1.491 2.501 2.955 2.5z"></path>
<path fill="#111" d="M28 16.267h-18.56l-0.945-7.56c-0.030-0.251-0.243-0.439-0.495-0.44h-2.5v8h-1.5c-1.464-0-2.713 1.057-2.955 2.5h29.91c-0.242-1.443-1.491-2.5-2.955-2.5z"></path>
<path fill="#111" d="M23.54 9.762c-0.515-0.921-1.486-1.492-2.54-1.495h-6.5c-0.276 0-0.5 0.224-0.5 0.5v6.5h12.713zM18.5 12.267v-3h2.5c0.697 0.002 1.337 0.383 1.67 0.995l0.87 1.505 0.575 1h-5.115c-0.276 0-0.5-0.224-0.5-0.5z"></path>
</svg>
