<!-- Generated by IcoMoon.io -->
<svg version="1.1" xmlns="http://www.w3.org/2000/svg" width="32" height="32" viewBox="0 0 32 32">
<path fill="#111" d="M28.375 5.875c-0.813 0-1.5-0.313-2.063-0.875s-0.813-1.25-0.813-2.063c0-0.75 0.25-1.5 0.813-2.063s1.25-0.875 2.063-0.875c0.813 0 1.5 0.313 2.125 0.875 0.563 0.563 0.875 1.313 0.875 2.063 0 0.813-0.313 1.5-0.875 2.063-0.625 0.563-1.313 0.875-2.125 0.875zM19.938 31.375h8c0.5-0.125 0.75-0.375 0.75-0.75v-0.625h0.625c0 0 0 0.188 0 0.5 0.063 0.25 0 0.563-0.25 0.875-0.188 0.313-0.5 0.563-0.938 0.625h-8.188zM1.375 25.313l5.313 5.313c0.25 0.125 0.563 0.063 0.875-0.25l0.375-0.375 0.688 0.625c0 0.063 0 0.125-0.063 0.188-0.063 0.125-0.188 0.25-0.375 0.438-0.188 0.125-0.375 0.25-0.563 0.375-0.188 0.063-0.375 0.125-0.625 0.125s-0.5-0.125-0.75-0.25l-5.625-5.688zM21.938 23.125l-6.438-6.563c-0.688-0.563-1-1.313-1-2.25 0-0.875 0.313-1.625 1-2.25l4.188-4.313h-10.125c-0.375 0-0.688-0.125-1-0.438-0.25-0.25-0.375-0.625-0.375-1s0.125-0.75 0.375-1c0.313-0.313 0.625-0.438 1-0.438h14.688l0.5 0.063c0.375 0.063 0.75 0.25 1.188 0.5 0.438 0.313 0.75 0.75 0.938 1.313l0.125 0.375c0.063 0.313 0 0.75-0.063 1.25-0.125 0.5-0.313 0.938-0.625 1.313l-5.688 5.813 4.25 4.25c0.25 0.313 0.438 0.75 0.438 1.313v7.438c0 0.375-0.188 0.75-0.563 1.188-0.313 0.375-0.688 0.563-1.125 0.563-0.5 0-0.875-0.188-1.188-0.5-0.375-0.375-0.5-0.813-0.5-1.25zM14.563 17.375l2.063 2.125-8.688 8.813c-0.063 0.063-0.188 0.125-0.313 0.188-0.438 0.188-0.875 0.25-1.375 0.063-0.438-0.125-0.75-0.438-1-0.875-0.438-0.875-0.25-1.563 0.5-2.188l8.438-8.5z"></path>
</svg>
