<!-- Generated by IcoMoon.io -->
<svg version="1.1" xmlns="http://www.w3.org/2000/svg" width="32" height="32" viewBox="0 0 32 32">
<path fill="#111" d="M13.063 7.438c0-1.125 0.875-1.938 1.938-1.938s1.938 0.813 1.938 1.938c0 1.063-0.875 1.875-1.938 1.875s-1.938-0.813-1.938-1.875zM30.75 20.938c0.438 0.188 1 0.563 1.188 0.875 0.063 0.125 0.063 0.25 0 0.438s-0.313 0.375-0.688 0.5c-0.25 0.063-0.688 0.5-1.125 0.813-0.188 0.188-0.375 0.313-0.563 0.438-0.313 0.313-0.75 0.563-1.188 0.75-0.563 0.313-1.563 0.625-3 0.938-1.125 0.25-2.188 0.438-2.938 0.563s-2.188 0.25-3.063 0.25h-15.563c-0.813 0-1.875-0.188-2.313-0.563-0.438-0.313-0.75-1.063-0.75-1.688 0-0.438-0.063-0.688-0.125-0.75-0.375 0-0.625-0.25-0.625-0.563 0-0.5 1.125-0.875 1.625-1 0.688-0.188 1.625-0.438 2-0.438v0c0.188 0 0.625-0.25 1.063-0.625 0.313-0.375 0.313-1 0.063-1.375-0.125-0.188-0.75-1.063-0.313-1.438 0.25-0.188 0.625-0.188 0.813 0.063 0-0.063 0.063 0 0.063 0 0.063 0 0.188-0.063 0.313-0.125 0.25-0.188 0.938-0.188 1.313-0.188 0.25 0 0.563 0 0.813 0l1.125 0.125c0.625 0.063 1.375 0.313 2 0.5-0.063-0.125-0.063-0.25-0.188-0.313l-1.563-1.438c-0.188-0.188-0.25-0.438-0.125-0.688l3.188-6.125c0.063-0.188 0.313-0.313 0.563-0.25l2.188 0.813c0.188 0.063 0.313 0.25 0.313 0.5 0 0 0 0 0 0l0.688 2.813 3.188 1.25c0.375 0.125 0.563 0.5 0.5 0.875 0.313 0.063 0.625 0.188 0.875 0.375 0.313 0.25 0.875 0.75 1.25 0.75 0.063 0 0.063-0.063 0.125-0.063 0.25-0.125 0.625-0.375 1.063-0.375 0.313 0 0.625 0.125 0.938 0.25 1.438 0.75 3.5 1.875 4.875 2.813l0.5 0.313c0.563 0.438 1.188 0.875 1.5 1zM18.938 18.813c0.438-0.188 0.688-0.5 0.625-0.688-0.125-0.438-0.313-0.75-0.5-0.875-0.188-0.188-0.313-0.438-0.313-0.688-0.063 0-0.063 0-0.125 0 0 0-0.063 0-0.125 0l-3.563-1.438c-0.25-0.125-0.438-0.313-0.5-0.563l-0.375-1.313-1.438 2.75c-0.125 0.25-0.125 0.563 0 0.75l0.813 1.5c0.125 0.25 0.125 0.5 0 0.688 0.688 0.063 1.75 0.125 3.125 0.188 0.813 0.063 1.875-0.125 2.375-0.313z"></path>
</svg>
