<!-- Generated by IcoMoon.io -->
<svg version="1.1" xmlns="http://www.w3.org/2000/svg" width="32" height="32" viewBox="0 0 32 32">
<path fill="#111" d="M19.67 14.659l-1.899 1.658c0.971-0.001 1.772-0.719 1.899-1.658z"></path>
<path fill="#111" d="M16.076 15.294l2.806-2.45c-0.384-0.274-0.869-0.407-1.373-0.338-1.048 0.145-1.78 1.112-1.635 2.159 0.031 0.226 0.101 0.438 0.201 0.629z"></path>
<path fill="#111" d="M8.704 21.731l1.891-1.652-1.271 0.343c-0.508 0.137-0.808 0.66-0.671 1.167 0.013 0.049 0.031 0.096 0.051 0.142z"></path>
<path fill="#111" d="M22.315 9.286c-0.524-0.038-0.98 0.357-1.018 0.882l-0.043 0.605 1.522-1.329c-0.133-0.089-0.29-0.146-0.461-0.158z"></path>
<path fill="#111" d="M11.475 21.815l1.979-0.534c0.1-0.027 0.195-0.070 0.281-0.128l1.981-1.325 0.215 1.552c1.11-0.708 2-1.173 2.050-1.198 0.076-0.039 0.159-0.059 0.242-0.059s0.166 0.020 0.242 0.059c0.055 0.028 1.156 0.603 2.442 1.453l-0.453-3.28c0.006-0.008 0.012-0.016 0.017-0.025l2.276-3.456c0.090-0.136 0.143-0.293 0.155-0.456l0.197-2.756-2.037 1.778-0.042 0.593-1.86 2.824c0 0-0.117 0.004-2.364 0.308l-5.321 4.646z"></path>
<path fill="#111" d="M12.002 25.942c0.795 0.068 1.271 0.394 1.598 0.618 0.269 0.184 0.36 0.247 0.66 0.247s0.391-0.062 0.66-0.247c0.366-0.251 0.92-0.631 1.9-0.631s1.533 0.379 1.9 0.631c0.269 0.184 0.36 0.247 0.66 0.247s0.391-0.062 0.66-0.247c0.366-0.251 0.92-0.631 1.9-0.631s1.533 0.379 1.9 0.631c0.261 0.179 0.355 0.242 0.634 0.246 0.020-0.145 0.031-0.293 0.031-0.442 0-2.453-6.28-5.713-6.28-5.713s-5.59 2.903-6.221 5.291z"></path>
<path fill="#111" d="M24.906 9.417c0 0-0.603-0.777-0.585-0.654l-16.718 14.599 0.585 0.654 16.718-14.599z"></path>
<path fill="#111" d="M27.058 26.587c-0.776 0-1.193 0.286-1.528 0.515-0.295 0.202-0.528 0.362-1.032 0.362s-0.737-0.16-1.032-0.362c-0.335-0.23-0.752-0.515-1.528-0.515s-1.193 0.286-1.528 0.515c-0.295 0.202-0.528 0.362-1.032 0.362s-0.737-0.16-1.032-0.362c-0.335-0.23-0.752-0.515-1.528-0.515s-1.193 0.286-1.528 0.515c-0.295 0.202-0.528 0.362-1.032 0.362s-0.737-0.16-1.032-0.362c-0.335-0.23-0.752-0.515-1.528-0.515s-1.193 0.286-1.528 0.515c-0.295 0.202-0.528 0.362-1.032 0.362s-0.737-0.16-1.032-0.362c-0.335-0.23-0.302-0.163-0.418-0.061-0.108 0.094-0.421 0.412-0.339 0.542 0.098 0.156-0.033 0.040 0.262 0.242 0.335 0.23 0.752 0.515 1.528 0.515s1.193-0.286 1.528-0.515c0.295-0.202 0.528-0.362 1.032-0.362s0.737 0.16 1.032 0.362c0.335 0.23 0.752 0.515 1.528 0.515s1.193-0.286 1.528-0.515c0.295-0.202 0.528-0.362 1.032-0.362s0.737 0.16 1.032 0.362c0.335 0.23 0.752 0.515 1.528 0.515s1.193-0.286 1.528-0.515c0.295-0.202 0.528-0.362 1.032-0.362s0.737 0.16 1.032 0.362c0.335 0.23 0.752 0.515 1.528 0.515s1.193-0.286 1.528-0.515c0.295-0.202 0.528-0.362 1.032-0.362 0.242 0 0.439-0.196 0.439-0.439s-0.196-0.439-0.439-0.439z"></path>
<path fill="#111" d="M28.8 2.739c0.204-0.112 0.456-0.167 0.68-0.081 0.185 0.082 0.339 0.224 0.45 0.393 0.349 0.526 0.495 1.169 0.474 1.795-0.004 0.346-0.132 0.678-0.309 0.972-0.297 0.515-0.699 0.959-1.114 1.382-0.577 0.56-1.19 1.094-1.891 1.495-0.492 0.279-1.047 0.415-1.592 0.55-0.309 0.101-0.629 0.191-0.896 0.384-0.191 0.142-1.038 0.159-0.855-0.012 0.081-0.075 0.155-0.16 0.207-0.258 0.076-0.142 0.18-0.266 0.265-0.401 0.084-0.169 0.182-0.33 0.267-0.497 0.333-0.672 0.488-1.422 0.888-2.062 0.384-0.594 0.815-1.156 1.263-1.703 0.24-0.298 0.505-0.576 0.764-0.857 0.42-0.418 0.869-0.821 1.397-1.099z"></path>
<path fill="#111" d="M1.709 27.812c-0.108 0.206-0.159 0.459-0.069 0.682 0.085 0.183 0.23 0.335 0.4 0.443 0.532 0.34 1.177 0.475 1.803 0.443 0.346-0.010 0.676-0.144 0.966-0.325 0.51-0.306 0.947-0.715 1.363-1.137 0.55-0.587 1.074-1.209 1.463-1.916 0.27-0.497 0.397-1.054 0.523-1.601 0.095-0.31 0.18-0.632 0.368-0.902 0.139-0.193 0.142-1.041-0.026-0.854-0.074 0.083-0.157 0.158-0.255 0.212-0.14 0.079-0.263 0.184-0.397 0.272-0.167 0.087-0.327 0.187-0.493 0.275-0.666 0.345-1.414 0.512-2.047 0.923-0.587 0.394-1.142 0.835-1.681 1.292-0.294 0.245-0.567 0.515-0.844 0.779-0.411 0.427-0.806 0.882-1.075 1.415z"></path>
</svg>
