<!-- Generated by IcoMoon.io -->
<svg version="1.1" xmlns="http://www.w3.org/2000/svg" width="32" height="32" viewBox="0 0 32 32">
<path fill="#111" d="M27.149 16.463c3.106-3.822 2.785-8.768 2.457-10.9-0.090-0.587-0.527-1.414-0.943-1.838-2.129-2.166-3.796-3.089-4.791-3.481-0.553-0.217-0.647 0.011-0.29 0.486 0.654 0.869 1.526 2.562 1.694 5.524 0.189 3.343-1.166 7.426-1.864 9.278-0.21 0.556-0.029 1.32 0.507 1.577 2.034 0.976 3.23-0.647 3.23-0.647z"></path>
<path fill="#111" d="M19.678 0.098c-2.991 0.614-4.512 2.806-4.726 4.4-0.029 0.22 0.034 0.57 0.129 0.77 0.252 0.53 0.81 1.456 1.687 1.57 0.219 0.029 0.526-0.133 0.684-0.287 0.874-0.845 3.613-3.341 6.262-4.178-0 0-0.785-2.942-4.036-2.276z"></path>
<path fill="#111" d="M9.871 11.88c0 1.19-0.965 2.155-2.155 2.155s-2.155-0.965-2.155-2.155c0-1.19 0.965-2.155 2.155-2.155s2.155 0.965 2.155 2.155z"></path>
<path fill="#111" d="M5.268 14.505l-2.864 5.147c-0.443 0.785-0.167 1.786 0.609 2.228l5.788 3.492c0.204 0.116 0.499 0.388 0.631 0.584l0.437 0.643h-0.003c-3.56 0.269-5.074 0.924-5.716 1.426-0.269 0.21-0.415 0.613-0.415 0.885v0.664c0 0.273 0.146 0.676 0.415 0.885 0.663 0.517 2.57 1.405 7.888 1.533 0.241 0.006 0.477 0.009 0.707 0.009 5.416 0 7.847-1.559 8.641-2.229 0.154-0.13 0.243-0.323 0.243-0.529 0-0.207-0.088-0.4-0.243-0.529-0.754-0.637-3.058-2.128-8.132-2.222l-0.372-0.007-0.899-1.789c-0.148-0.297-0.467-0.693-0.725-0.903l-4.261-3.463c-0.087-0.070-0.105-0.207-0.040-0.298l0.303-0.431c0.2 0.204 0.491 0.342 0.764 0.342h6.338c0.041 0 0.121-0.003 0.2-0.022l2.1 2.683c0.106 0.136 0.264 0.207 0.424 0.207 0.116 0 0.233-0.037 0.331-0.115 0.234-0.183 0.275-0.521 0.092-0.755l-4.842-6.186c-0.183-0.234-0.521-0.277-0.755-0.092-0.234 0.183-0.275 0.521-0.092 0.755l1.532 1.957c-0.175-0.038-0.369-0.058-0.582-0.058h-3.485c-0.431 0-0.988-0.116-1.040-0.208l-1.111-2.486c-0.002-0.004-0.115-0.208-0.319-0.384l0.665 0.262c0.047 0.068 0.073 0.115 0.074 0.116l0.852 1.902 0.189-0.269c0.13-0.183 0.154-0.436 0.068-0.654l2.444-1.139c0.271-0.143 0.56-0.483 0.657-0.771l1.599-4.313c0.207-0.557 0.027-1.136-0.401-1.293s-0.945 0.166-1.154 0.721l-1.479 3.919c-0.079 0.247-0.361 0.492-0.626 0.537l-2.225 0.691-1.056-0.599c-0.471-0.313-0.915-0.265-1.154 0.158z"></path>
</svg>
