<!-- Generated by IcoMoon.io -->
<svg version="1.1" xmlns="http://www.w3.org/2000/svg" width="32" height="32" viewBox="0 0 32 32">
<path fill="#111" d="M10.733 14.367l0.382 0.529c1.329-0.136 2.763-0.312 4.303-0.529 0.012-0.012 0.023-0.024 0.035-0.035 0-0.047-0.188-0.118-0.57-0.206l-4.15 0.241z"></path>
<path fill="#111" d="M24.13 19.993c0 0.312 0.452 0.47 1.357 0.47 0.388 0 0.582-0.123 0.582-0.364 0-0.617-0.37-0.905-1.116-0.87-0.547 0.035-0.823 0.288-0.823 0.764z"></path>
<path fill="#111" d="M23.777 17.013c0.312 0.106 0.788 0.305 1.434 0.605 0.253 0.147 0.588 0.394 0.999 0.741 1.299-0.747 2.98-1.693 5.043-2.827 0.071-0.036 0.106-0.071 0.106-0.1 0-0.165-0.752-0.282-2.257-0.364l-5.326 1.946z"></path>
<path fill="#111" d="M0.64 20.128c0.7 0.681 1.182 1.017 1.446 1.005 0.623-0.035 5.484-0.212 14.584-0.529 0.423 0.147 0.84 0.276 1.24 0.388 0.952 0.247 1.787 0.376 2.498 0.388 2.058 0.024 3.569-0.253 4.538-0.829-0.758 0.012-1.194-0.141-1.293-0.453-0.035-0.076-0.053-0.159-0.053-0.241 0-0.529 0.37-0.881 1.105-1.052 0.706-0.159 1.17-0.006 1.399 0.464 0.129 0.253 0.112 0.465-0.053 0.635 0.141-0.065 0.288-0.264 0.441-0.599 0.071-0.794-1.246-1.646-3.938-2.551-1.017-1.37-2.087-2.028-3.215-1.969-1.2 0.071-2.692 0.235-4.468 0.5-1.44 0.218-2.551 0.317-3.333 0.294-0.323-0.012-1.352-1.664-3.092-4.955-0.312-0.012-0.547 0-0.711 0.035-0.124 0.035-0.294 0.083-0.5 0.135l0.811 3.745-5.291 0.535c0.047 0.094 0.165 0.188 0.359 0.294 0.464 0.012 2.193-0.041 5.19-0.159l0.412 1.505c0.3 0.288 0.888 0.805 1.775 1.552 0.376 0.288 0.934 0.606 1.669 0.964l-11.522 0.899zM17.846 15.743c0.87-0.288 1.622-0.429 2.251-0.429 0.253 0 0.464 0.023 0.635 0.070 0.37 0.1 0.87 0.558 1.499 1.381-0.335 0.012-0.911 0.070-1.734 0.171-0.747 0.153-1.546 0.435-2.392 0.846l-0.259-2.040zM15.46 17.53l0.358-1.534 1.323-0.171-0.617 1.858-1.064-0.153zM16.988 17.765l0.535-1.946 0.206 2.069-0.741-0.123z"></path>
</svg>
