<!-- Generated by IcoMoon.io -->
<svg version="1.1" xmlns="http://www.w3.org/2000/svg" width="32" height="32" viewBox="0 0 32 32">
<path fill="#111" d="M31.128 15.775c-0.032-0.514-0.418-0.9-0.932-0.932l-4.080-0.353-2.988-3.020c-0.418-0.418-0.964-0.643-1.542-0.643h-13.846c-0.707 0-1.381 0.353-1.767 0.932l-1.928 2.699-2.345 0.161c-0.546 0.032-0.964 0.482-0.964 0.996v2.409c0 0.546 0.45 1.028 1.028 1.028h1.992c0.096 1.189 1.092 2.12 2.313 2.12s2.217-0.932 2.313-2.12h15.259c0.096 1.189 1.092 2.12 2.313 2.12s2.217-0.932 2.313-2.12h1.992c0.578 0 1.060-0.482 0.996-1.092l-0.128-2.185zM6.071 19.919c-0.61 0-1.092-0.482-1.092-1.124s0.482-1.092 1.092-1.092c0.61 0 1.092 0.482 1.092 1.092s-0.482 1.124-1.092 1.124zM9.476 14.329h-3.373l1.189-1.671c0.096-0.161 0.289-0.225 0.45-0.225h1.735v1.895zM14.005 14.329h-2.891v-1.928h2.891v1.928zM18.535 14.329h-2.891v-1.928h2.891v1.928zM20.141 12.402h1.413c0.161 0 0.289 0.064 0.385 0.161l1.735 1.767h-3.534v-1.928zM25.924 19.919c-0.61 0-1.124-0.482-1.124-1.124s0.482-1.092 1.124-1.092 1.092 0.482 1.092 1.092-0.482 1.124-1.092 1.124z"></path>
</svg>
