<!-- Generated by IcoMoon.io -->
<svg version="1.1" xmlns="http://www.w3.org/2000/svg" width="32" height="32" viewBox="0 0 32 32">
<path fill="#111" d="M28.308 21.321l-1.419-6.314-2.554-11.706c-0.142-0.639-0.709-1.064-1.348-1.064h-3.973c-0.78 0-1.419 0.639-1.419 1.419s0.639 1.419 1.419 1.419h2.838l2.27 10.146-4.186 8.869h-8.159c-0.355-3.476-3.264-6.101-6.811-6.101-0.568 0-1.064 0.497-1.064 1.064s0.497 1.064 1.064 1.064c2.412 0 4.399 1.774 4.683 4.044h-1.49c-0.568-1.632-2.128-2.767-3.973-2.767-2.27 0-4.186 1.845-4.186 4.186s1.845 4.186 4.186 4.186c1.845 0 3.406-1.135 3.973-2.767l12.558-0.071c0.568 0 0.993-0.284 1.277-0.78l3.051-6.456 0.497 2.341c-1.135 0.709-1.916 2.058-1.916 3.547 0 2.27 1.845 4.186 4.186 4.186s4.186-1.845 4.186-4.186c0.071-2.27-1.561-4.044-3.689-4.257zM4.257 27.565c-1.135 0-2.058-0.922-2.058-2.058s0.922-2.058 2.058-2.058c0.639 0 1.135 0.284 1.561 0.709h-0.851c-0.78 0-1.419 0.639-1.419 1.419s0.639 1.419 1.419 1.419v0h0.851c-0.355 0.284-0.922 0.568-1.561 0.568zM27.883 27.565c-1.135 0-2.058-0.922-2.058-2.058 0-0.426 0.142-0.851 0.355-1.135l0.142 0.709c0.142 0.639 0.709 1.064 1.348 1.064 0.071 0 0.213 0 0.284 0 0.78-0.142 1.206-0.922 1.064-1.632l-0.142-0.78c0.639 0.355 1.135 1.064 1.135 1.845-0.071 1.064-0.993 1.987-2.128 1.987z"></path>
</svg>
