<!-- Generated by IcoMoon.io -->
<svg version="1.1" xmlns="http://www.w3.org/2000/svg" width="32" height="32" viewBox="0 0 32 32">
<path fill="#111" d="M2.197 2.274c-0.057-0.291 0.143-0.603 0.428-0.68 0.122-0.034 0.25-0.018 0.374-0.003 9.26 1.175 18.519 2.351 27.779 3.526 0.174 0.026 0.362 0.027 0.516 0.122 0.138 0.081 0.239 0.222 0.276 0.377 0.053 0.244-0.064 0.516-0.281 0.641-0.106 0.063-0.229 0.081-0.348 0.103-9.587 1.711-19.174 3.422-28.76 5.133-0.165 0.027-0.329 0.064-0.496 0.074-0.218 0.008-0.444-0.096-0.556-0.288-0.096-0.153-0.113-0.351-0.046-0.518 0.964-2.008 1.927-4.017 2.888-6.026-0.518-0.687-1.036-1.375-1.553-2.063-0.089-0.123-0.194-0.245-0.223-0.399z"></path>
<path fill="#111" d="M22.229 8.473c0.363-0.095 0.727-0.19 1.090-0.284 1.011 4.537 2.022 9.075 3.033 13.613 0.301 0.166 0.613 0.315 0.894 0.514 0.332 0.227 0.662 0.458 0.976 0.712 0.217 0.191 0.441 0.392 0.558 0.662 0.084 0.174 0.066 0.39-0.042 0.551-0.143 0.218-0.352 0.381-0.56 0.533-0.281 0.185-0.587 0.332-0.911 0.426-0.466 0.159-0.952 0.248-1.437 0.321 0.338 0.445 0.671 0.894 1.008 1.339 0.433-0.122 0.915-0.103 1.318 0.105 0.541 0.251 0.947 0.808 0.949 1.414 0.024 0.61-0.363 1.187-0.9 1.454-0.589 0.322-1.36 0.26-1.894-0.144-0.275-0.202-0.496-0.485-0.597-0.813-0.167-0.514-0.037-1.112 0.334-1.505-0.433-0.577-0.865-1.153-1.299-1.728-0.945 0.101-1.894 0.146-2.844 0.164-1.017 0.002-2.034-0.005-3.049-0.060-0.556-0.035-1.112-0.069-1.668-0.104-1.138-0.094-2.276-0.21-3.406-0.378-0.209-0.033-0.42-0.054-0.626-0.102-0.415-0.093-0.831-0.177-1.244-0.278-0.265 0.687-0.529 1.373-0.793 2.061 0.307 0.224 0.541 0.556 0.622 0.93 0.113 0.481-0.025 1.015-0.364 1.375-0.505 0.587-1.417 0.765-2.107 0.415-0.293-0.134-0.54-0.359-0.718-0.626-0.209-0.332-0.288-0.746-0.206-1.131 0.098-0.501 0.465-0.926 0.922-1.14 0.3-0.157 0.647-0.197 0.98-0.171 0.249-0.645 0.497-1.29 0.745-1.934-0.699-0.171-1.395-0.357-2.089-0.546-0.196-1.072-0.384-2.145-0.567-3.22-0.67-0-1.339-0.001-2.009-0 0.048 0.77 0.097 1.54 0.145 2.31 0.053 0.901 0.136 1.801 0.113 2.704-0.035 0.844-0.032 1.695-0.183 2.529-0.027 0.173-0.054 0.352-0.144 0.507-0.388-0.382-0.566-0.92-0.662-1.444-0.081-0.425-0.107-0.858-0.17-1.286-0.050-0.353-0.098-0.706-0.149-1.059-0.047-0.309-0.048-0.622-0.067-0.933-0.122-2.512-0.248-5.024-0.368-7.536-0.044-0.782 0.183-1.54 0.357-2.293 0.083-0.303 0.146-0.612 0.257-0.907 0.031-0.087 0.077-0.168 0.142-0.234 0.103 0.111 0.116 0.27 0.169 0.407 0.196 0.742 0.227 1.515 0.262 2.279 0.019 0.741 0.082 1.479 0.124 2.219 0.037 0.586 0.073 1.173 0.111 1.759 0.64 0 1.279-0 1.919-0-0.101-0.678-0.193-1.358-0.258-2.041-0.016-0.222-0.036-0.448 0.019-0.667 1.238-0.147 2.487 0.056 3.683 0.372 0.758 0.203 1.5 0.459 2.235 0.733 0.124-0.694 0.248-1.389 0.374-2.083 0.248-1.295 0.498-2.589 0.748-3.884 0.174-0.89 0.327-1.784 0.492-2.676 0.354-0.11 0.707-0.223 1.060-0.337-0.563 3.133-1.063 6.276-1.625 9.409 0.672 0.296 1.341 0.602 1.993 0.94 0.443 0.227 0.879 0.465 1.316 0.703 0.122-0.462 0.345-0.923 0.743-1.207-0.28-0.119-0.532-0.313-0.695-0.574-0.193-0.328-0.219-0.755-0.044-1.097 0.142-0.299 0.409-0.527 0.713-0.651 0.455-0.187 1.001-0.135 1.413 0.134 0.257 0.171 0.466 0.428 0.54 0.731 0.070 0.266 0.038 0.555-0.084 0.801-0.147 0.283-0.399 0.502-0.688 0.632 0.352 0.244 0.588 0.627 0.718 1.030 0.117 0.353 0.148 0.729 0.132 1.098 0.402-0.067 0.81-0.201 1.116-0.482 0.205-0.182 0.374-0.43 0.654-0.502 0.318-0.080 0.645 0.041 0.926 0.187 0.404 0.213 0.797 0.445 1.212 0.637-0.882-4.218-1.766-8.435-2.648-12.652z"></path>
</svg>
