<!-- Generated by IcoMoon.io -->
<svg version="1.1" xmlns="http://www.w3.org/2000/svg" width="32" height="32" viewBox="0 0 32 32">
<path fill="#111" d="M6.688 11.063h-2.875c0 0 0.438-1.25 1.875-1.25h6c1.938 0 4 0.563 5.938 1.313-5.875 0.125-7.188 1.938-7.188 1.938h11.313c1.563 0.875 2.813 1.688 3.25 2h-9.75c-5.875 0.063-8.875 0.563-10.875 1.25zM32.125 15.938c-3.25 3.563-4.625 6.188-11 6.188-5.375 0-21.125 0-21.125 0l1.5-3.5c2.375-1.188 4-2.625 13.75-2.688zM20.625 18c0-0.25-0.438-0.438-0.938-0.438s-0.875 0.188-0.875 0.438c0 0.313 0.375 0.5 0.875 0.5s0.938-0.188 0.938-0.5zM25.563 18c0-0.25-0.375-0.438-0.938-0.438-0.5 0-0.875 0.188-0.875 0.438 0 0.313 0.375 0.5 0.875 0.5 0.563 0 0.938-0.188 0.938-0.5z"></path>
</svg>
