<!-- Generated by IcoMoon.io -->
<svg version="1.1" xmlns="http://www.w3.org/2000/svg" width="32" height="32" viewBox="0 0 32 32">
<path fill="#111" d="M16.33 4.527h-0.182c-0.572 0.065-1.191 0.15-1.637 0.551-1.006 0.905-1.28 2.532-0.505 3.671 0.508-0.224 1.049-0.442 1.616-0.386 0.697 0.036 1.308 0.418 1.825 0.857 0.362 0.332 0.891 0.266 1.341 0.349-0.004-0.534-0.008-1.069-0.013-1.604-0.598-0.085-1.196-0.164-1.793-0.247-0.001-0.425-0.001-0.849 0-1.274 0.615 0.101 1.229 0.207 1.845 0.303-0.097-0.432-0.212-0.881-0.505-1.226-0.479-0.608-1.254-0.87-1.993-0.994z"></path>
<path fill="#111" d="M16.771 9.147c-0.635-0.486-1.535-0.572-2.254-0.228-0.505 0.177-0.803 0.643-1.146 1.022-0.87 1.094-1.688 2.229-2.527 3.348 1.012 0.764 2.028 1.521 3.040 2.284 0.979-1.355 1.948-2.718 2.924-4.075 1.518 1.161 3.033 2.329 4.548 3.493-0.465 0.956-1.415 1.536-2.372 1.912-0.104-0.467-0.398-0.974-0.932-0.999-1.234-0.064-2.474-0.002-3.711-0.011-0.297-0.021-0.649 0.083-0.888-0.149-0.932-0.732-1.864-1.466-2.799-2.194-0.502 0.754-1.185 1.42-1.449 2.307-1.514 0.008-3.028 0.017-4.542 0.014-0.46 0.481-0.427 1.364 0.098 1.77 1.396-0.004 2.835 0.070 4.135 0.629 0.953 0.419 1.76 1.185 2.17 2.151 0.561 1.28 0.514 2.719 0.345 4.078 1.314-0.019 2.629-0.033 3.942-0.075 1.386-0.024 2.836-0.124 4.081-0.792 0.361-0.209 0.762-0.484 0.826-0.929 0.28-1.346 0.841-2.686 1.859-3.642 1.051-0.988 2.516-1.358 3.924-1.391 0.322-0.677 0.622-1.406 0.567-2.171-0.036-0.686-0.441-1.31-0.994-1.698-1.114-0.799-2.458-1.155-3.718-1.648-0.024 0.278-0.048 0.554-0.073 0.833-1.677-1.287-3.371-2.556-5.053-3.837z"></path>
<path fill="#111" d="M27.432 18.589c-1.796-0.85-4.102-0.361-5.391 1.152-1.356 1.489-1.54 3.88-0.437 5.564 0.804 1.298 2.274 2.1 3.79 2.167h0.203c1.026-0.060 2.051-0.395 2.844-1.066 1.040-0.834 1.652-2.134 1.709-3.458v-0.259c-0.051-1.735-1.126-3.395-2.718-4.101zM26.175 19.856c1.017 0.222 1.883 1.010 2.2 2.001 0.33 0.976 0.121 2.116-0.549 2.901-0.66 0.81-1.763 1.223-2.793 1.047-1.266-0.181-2.329-1.26-2.505-2.525-0.161-0.996 0.212-2.057 0.97-2.726 0.709-0.65 1.741-0.911 2.677-0.699z"></path>
<path fill="#111" d="M9.503 19.295c-1.558-1.389-4.069-1.489-5.734-0.233-1.16 0.828-1.864 2.212-1.918 3.629v0.252c0.055 1.295 0.635 2.57 1.634 3.406 0.797 0.699 1.839 1.066 2.89 1.123h0.234c1.74-0.056 3.4-1.138 4.1-2.74 0.85-1.819 0.341-4.153-1.206-5.438zM7.283 19.894c0.92 0.245 1.697 0.955 2.028 1.847 0.325 0.851 0.242 1.851-0.229 2.632-0.472 0.803-1.335 1.365-2.264 1.456-0.806 0.094-1.644-0.158-2.263-0.683-0.765-0.63-1.178-1.653-1.067-2.638 0.085-0.964 0.676-1.86 1.518-2.33 0.682-0.393 1.519-0.491 2.277-0.284z"></path>
</svg>
