<!-- Generated by IcoMoon.io -->
<svg version="1.1" xmlns="http://www.w3.org/2000/svg" width="32" height="32" viewBox="0 0 32 32">
<path fill="#111" d="M31.375 14.563c0.375 0.125 0.625 0.5 0.625 0.875v12.75c0 0.563-0.438 1-1 1h-30c-0.438 0-0.813-0.313-0.938-0.75-0.125-0.375 0-0.875 0.375-1.063l4.438-2.813c-1.875-0.438-3.5-1.813-4.25-3.75-0.5-1.438-0.438-3.063 0.25-4.5 0.625-1.438 1.813-2.5 3.313-3.063 0.625-0.25 1.313-0.313 2-0.313 0.5 0 0.938 0 1.375 0.125l0.188-1.563-0.188-0.375-0.438 0.125c-0.125 0.063-0.188 0.063-0.313 0.063-0.438 0-0.813-0.25-0.938-0.625-0.188-0.5 0.063-1.063 0.625-1.25l2.688-1c0.563-0.188 1.125 0.063 1.25 0.563 0.125 0.25 0.125 0.5 0 0.688l2.75-1-0.375-1c-0.125-0.375 0-0.813 0.313-1.063l1.563-1.313-1-0.688c-0.438-0.313-0.563-0.875-0.25-1.375 0.25-0.438 0.875-0.563 1.313-0.25l4 2.625c0.438 0.313 0.563 0.875 0.25 1.375-0.188 0.25-0.5 0.438-0.813 0.438-0.188 0-0.375-0.063-0.563-0.188l-1.25-0.813-1.438 1.25 0.313 0.875 2.188 1.063c0.688-1 1.688-1.813 2.875-2.25 0.625-0.188 1.313-0.313 2-0.313 2.5 0 4.688 1.563 5.563 3.875 0.5 1.5 0.438 3.063-0.188 4.5-0.5 1.063-1.313 1.938-2.313 2.563l1.063 0.938 3.875-4.125c0.25-0.313 0.688-0.438 1.063-0.25l-0.001 0.002zM18.438 12.25c-0.125 0.688-0.063 1.375 0.188 2.063 0.563 1.563 2.063 2.563 3.688 2.563 0.438 0 0.938-0.063 1.375-0.188 0.938-0.375 1.75-1.125 2.188-2.063s0.5-2.063 0.125-3c-0.563-1.563-2.063-2.625-3.688-2.625-0.438 0-0.938 0.063-1.375 0.25-0.625 0.25-1.25 0.625-1.688 1.188l3.5 1.625c0.438 0.25 0.688 0.813 0.438 1.313-0.125 0.375-0.5 0.563-0.875 0.563-0.125 0-0.25-0.063-0.438-0.125l-3.438-1.564zM13.563 17.188l-1.563 0.563c0.188 0.875 0.125 1.75-0.125 2.563 0.125 0 0.25 0.063 0.313 0.063l5 1.25 2.625-3.313c-1.375-0.688-2.5-1.875-3.063-3.313-0.438-1.188-0.438-2.438-0.125-3.625l-1.438-0.688-1 5.75c-0.063 0.375-0.313 0.625-0.625 0.75h0.001zM9.625 12.063l-0.125 1.813c0.75 0.563 1.375 1.25 1.813 2l1-0.313 0.875-4.75-3.563 1.25zM9.25 16.313l-0.063 0.375 0.25-0.125c-0.063-0.063-0.125-0.188-0.188-0.25h0.001zM2.5 20.188c0.563 1.563 2.063 2.563 3.688 2.563 0.5 0 0.938-0.063 1.375-0.25 1-0.313 1.75-1.063 2.188-2 0.313-0.688 0.438-1.375 0.375-2.063l-1.688 0.625h-0.063l-1.813 0.688c-0.125 0-0.25 0.063-0.375 0.063-0.375 0-0.75-0.25-0.938-0.688-0.188-0.5 0.125-1.063 0.625-1.25l1.313-0.438 0.188-2.375c-0.375-0.125-0.75-0.188-1.188-0.188s-0.875 0.063-1.313 0.25c-1 0.375-1.813 1.063-2.25 2-0.438 1-0.5 2.063-0.125 3.063h0.001z"></path>
</svg>
