<!-- Generated by IcoMoon.io -->
<svg version="1.1" xmlns="http://www.w3.org/2000/svg" width="32" height="32" viewBox="0 0 32 32">
<path fill="#111" d="M11.208 7.13c-1.057 0-1.917-0.86-1.917-1.917s0.86-1.917 1.917-1.917c1.057 0 1.917 0.86 1.917 1.917s-0.86 1.917-1.917 1.917z"></path>
<path fill="#111" d="M29.868 16.359h-0.968c-0.234-1.622-1.63-2.875-3.316-2.875s-3.082 1.253-3.316 2.875h-0.968c0.239-2.153 2.068-3.833 4.284-3.833s4.045 1.68 4.284 3.833zM27.931 16.359h-4.695c0.223-1.092 1.19-1.917 2.347-1.917 0.631 0 1.205 0.245 1.633 0.645 0.357 0.334 0.613 0.775 0.714 1.272zM15.821 9.82c0.326-0.233 0.712-0.357 1.114-0.357h0.238c0.47 0 0.922 0.172 1.274 0.484l3.943 3.022c-0.271 0.254-0.824 0.915-1.037 1.221l-3.261-2.292c-0.245-0.175-0.492-0.518-0.794-0.518h-0.254c-0.384 0-0.974 0.962-1.245 1.234l-1.665 1.082c-0.251-0.167-0.222-0.101-0.527-0.163v-1.007l0.033-1.146 2.184-1.56zM9.771 7.734h1.438c0.793 0 1.438 0.645 1.438 1.438v3.354l-1.917-0.479v-3.354l0.437 2.932c0 0.265 1.479 0.901 1.479 0.901v0.958h-2.875v-5.75zM7.854 8.692c0.529 0 0.958 0.43 0.958 0.958v4.313c0 0.265 0.214 0.479 0.479 0.479h3.833c0.793 0 1.438 0.645 1.438 1.438v0.479h-7.667v-6.708c0-0.529 0.43-0.958 0.958-0.958zM5.938 14.162v2.197h-2.197l2.197-2.197zM29.896 16.88v1.917h-27.792v-1.917h27.792zM27.979 21.672h-23.958c-1.057 0-1.917-1.818-1.917-2.875h27.792c0 1.057-0.86 2.875-1.917 2.875z"></path>
<path fill="#111" d="M3.129 24.997c-0.486 0-0.917-0.308-0.917-0.703 0-0.44 0.431-0.748 0.917-0.748 0.971 0 1.888-0.352 2.535-0.967 0.162-0.176 0.431-0.264 0.702-0.264 0.216 0 0.486 0.088 0.647 0.264 0.647 0.616 1.565 0.967 2.535 0.967s1.942-0.352 2.589-0.967c0.162-0.176 0.378-0.264 0.647-0.264s0.539 0.088 0.702 0.264c0.647 0.616 1.565 0.967 2.535 0.967s1.888-0.352 2.535-0.967c0.162-0.176 0.431-0.264 0.702-0.264s0.486 0.088 0.702 0.264c0.594 0.616 1.565 0.967 2.535 0.967 0.199 0 0.396-0.015 0.589-0.044 0.747-0.112 1.433-0.435 1.947-0.924 0.162-0.176 0.431-0.264 0.647-0.264 0.27 0 0.539 0.088 0.702 0.264 0.647 0.616 1.565 0.967 2.535 0.967 0.486 0 0.917 0.308 0.917 0.748 0 0.396-0.378 0.703-0.917 0.703-1.025 0-2.050-0.264-2.912-0.703-0.108-0.088-0.216-0.132-0.324-0.22-0.054 0.088-0.162 0.132-0.27 0.22-0.863 0.44-1.888 0.703-2.912 0.703-1.079 0-2.104-0.264-2.912-0.703-0.108-0.088-0.216-0.132-0.324-0.22-0.108 0.088-0.216 0.132-0.324 0.22-0.863 0.44-1.888 0.703-2.912 0.703s-2.050-0.264-2.912-0.703c-0.108-0.088-0.216-0.132-0.324-0.22-0.108 0.088-0.216 0.132-0.324 0.22-0.809 0.44-1.834 0.703-2.912 0.703-1.025 0-2.050-0.264-2.912-0.703-0.108-0.088-0.216-0.132-0.27-0.22-0.108 0.088-0.216 0.132-0.324 0.22-0.863 0.44-1.888 0.703-2.912 0.703h-0.004z"></path>
<path fill="#111" d="M3.129 28.703c-0.486 0-0.917-0.308-0.917-0.703 0-0.44 0.431-0.748 0.917-0.748 0.971 0 1.888-0.352 2.535-0.967 0.162-0.176 0.431-0.264 0.702-0.264 0.216 0 0.486 0.088 0.647 0.264 0.647 0.616 1.565 0.967 2.535 0.967s1.942-0.352 2.589-0.967c0.162-0.176 0.378-0.264 0.647-0.264s0.539 0.088 0.702 0.264c0.647 0.616 1.565 0.967 2.535 0.967s1.888-0.352 2.535-0.967c0.162-0.176 0.431-0.264 0.702-0.264s0.486 0.088 0.702 0.264c0.594 0.616 1.565 0.967 2.535 0.967 0.199 0 0.396-0.015 0.589-0.044 0.747-0.112 1.433-0.435 1.947-0.924 0.162-0.176 0.431-0.264 0.647-0.264 0.27 0 0.539 0.088 0.702 0.264 0.647 0.616 1.565 0.967 2.535 0.967 0.486 0 0.917 0.308 0.917 0.748 0 0.396-0.378 0.703-0.917 0.703-1.025 0-2.050-0.264-2.912-0.703-0.108-0.088-0.216-0.132-0.324-0.22-0.054 0.088-0.162 0.132-0.27 0.22-0.863 0.44-1.888 0.703-2.912 0.703-1.079 0-2.104-0.264-2.912-0.703-0.108-0.088-0.216-0.132-0.324-0.22-0.108 0.088-0.216 0.132-0.324 0.22-0.863 0.44-1.888 0.703-2.912 0.703s-2.050-0.264-2.912-0.703c-0.108-0.088-0.216-0.132-0.324-0.22-0.108 0.088-0.216 0.132-0.324 0.22-0.809 0.44-1.834 0.703-2.912 0.703-1.025 0-2.050-0.264-2.912-0.703-0.108-0.088-0.216-0.132-0.27-0.22-0.108 0.088-0.216 0.132-0.324 0.22-0.863 0.44-1.888 0.703-2.912 0.703h-0.004z"></path>
</svg>
