<!-- Generated by IcoMoon.io -->
<svg version="1.1" xmlns="http://www.w3.org/2000/svg" width="32" height="32" viewBox="0 0 32 32">
<path fill="#111" d="M29.715 11.057c0 4.745-22.875 9.982-24.607 9.982-0.971 0-2.073-0.224-2.073-1.119 0-0.299 0.345-0.731 0.951-1.253l-0.001 0-1.606-2.853c-0.217-0.386-0.045-0.876 0.366-1.040l0.276-0.11c0.5-0.2 1.063-0.17 1.539 0.082l2.915 1.543c1.135-0.673 2.422-1.378 3.779-2.072l-5.681-3.685c-0.449-0.292-0.445-0.951 0.009-1.236l0.465-0.292c0.773-0.486 1.714-0.629 2.597-0.396l9.45 2.493c2.947-1.17 5.611-1.968 7.187-1.968 0.421 0 0.843 0.011 1.25 0.040l-2.854 1.288-0.068 0.96 4.405-2.025c1.056 0.252 1.699 0.722 1.699 1.661zM18.218 19.248l3.525 4.004c0.215 0.244 0.565 0.317 0.859 0.18l0.472-0.219c0.861-0.4 1.368-1.308 1.258-2.25l-0.441-3.773c-0.027-0.233-0.264-0.381-0.486-0.303l-5.034 1.773c-0.245 0.086-0.325 0.393-0.153 0.588z"></path>
</svg>
