<!-- Generated by IcoMoon.io -->
<svg version="1.1" xmlns="http://www.w3.org/2000/svg" width="32" height="32" viewBox="0 0 32 32">
<path fill="#111" d="M14.575 8.208c0.099 0.013 0.198 0.027 0.296 0.041-0.001 0.36 0.010 0.724-0.021 1.084-0.099-0.014-0.198-0.027-0.296-0.041 0-0.362-0.010-0.724 0.021-1.084z"></path>
<path fill="#111" d="M12.708 8.933c0.368 0.197 0.673 0.49 0.924 0.82-0.055 0.039-0.166 0.116-0.221 0.154-0.265-0.299-0.588-0.578-0.702-0.975z"></path>
<path fill="#111" d="M15.797 9.922c0.126-0.441 0.495-0.739 0.847-1.002 0.083 0.508-0.407 0.879-0.847 1.002z"></path>
<path fill="#111" d="M13.896 10.264c0.426-0.542 1.362-0.467 1.735 0.104 0.277 0.474 0.192 1.051 0.233 1.58-0.771-0.027-1.542-0.066-2.312-0.083 0.076-0.529-0.090-1.187 0.344-1.601zM14.209 10.511c-0.208 0.143-0.158 0.456-0.22 0.658 0.272-0.318 0.576-0.605 0.874-0.898-0.225 0.057-0.455 0.116-0.654 0.24z"></path>
<path fill="#111" d="M11.941 10.863c0.376-0.005 0.752-0.006 1.129-0.003 0 0.076 0 0.152 0.001 0.229-0.36 0.009-0.719 0.019-1.078 0.027-0.018-0.084-0.035-0.168-0.052-0.252z"></path>
<path fill="#111" d="M16.361 10.853c0.36-0.001 0.724-0.010 1.085 0.020-0.014 0.099-0.028 0.198-0.041 0.298-0.361-0.005-0.721 0.001-1.079-0.035 0.011-0.094 0.023-0.189 0.035-0.283z"></path>
<path fill="#111" d="M12.337 12.422c1.741-0.209 3.554-0.21 5.232 0.357 1.563 0.489 2.99 1.376 4.162 2.517 0.215 0.181 0.401 0.434 0.71 0.449 1.333 0.196 2.685 0.261 4.013 0.488 1.197 0.219 2.411 0.855 2.974 1.982 0.442 0.799 0.344 1.742 0.36 2.62-0.027 0.259 0.045 0.604-0.17 0.811-0.568 0.423-1.323 0.243-1.977 0.305 0.1-0.91 0.147-1.926-0.427-2.698-0.723-1.216-2.316-1.74-3.642-1.314-1.051 0.373-1.95 1.296-2.134 2.42-0.11 0.52-0.076 1.062 0.045 1.576-3.511 0.002-7.022 0.003-10.533 0 0.204-0.901 0.121-1.907-0.414-2.682-0.813-1.322-2.692-1.836-4.063-1.11-1.379 0.632-2.068 2.302-1.686 3.745-0.653-0.056-1.327-0.061-1.94-0.325-0.203-0.157-0.444-0.34-0.463-0.618-0.106-1.272-0.205-2.549-0.161-3.825 0.010-0.609 0.416-1.104 0.873-1.46 0.822-0.588 1.889-0.322 2.827-0.498 0.307 0.045 0.5-0.205 0.724-0.356 1.601-1.344 3.622-2.146 5.691-2.381zM9.165 13.94c-0.483 0.261-1.079 0.497-1.306 1.041-0.134 0.4 0.182 0.729 0.555 0.74 2.578 0.329 5.186 0.329 7.78 0.418 1.553-0.023 3.119 0.112 4.663-0.102-0.453-0.992-1.346-1.716-2.317-2.17-1.252-0.641-2.665-0.953-4.067-0.96-1.813-0.034-3.649 0.284-5.308 1.032zM13.95 18.108c-0.72 0.139-0.809 1.323-0.148 1.603 0.507 0.259 1.239-0.208 1.088-0.808 0.092-0.504-0.466-0.948-0.939-0.795zM17.738 18.106c-0.767 0.115-0.828 1.414-0.091 1.625 0.405 0.179 0.817-0.145 0.946-0.524-0.277-0.017-0.505 0.136-0.71 0.301-0.127-0.059-0.253-0.121-0.378-0.183-0.004-0.203-0.012-0.609-0.016-0.811 0.36-0.236 0.719 0.037 1.086 0.084-0.158-0.307-0.446-0.61-0.837-0.492zM11.921 18.119c-0.001 0.537-0.001 1.074 0 1.611 0.092-0.002 0.185-0.004 0.278-0.005 0.012-0.192 0.031-0.376 0.043-0.567 0.204-0.034 0.405-0.073 0.609-0.113 0.367-0.089 0.431-0.729 0.061-0.855-0.319-0.097-0.663-0.043-0.99-0.072zM15.199 18.143c0.023 0.528 0.029 1.057 0.038 1.586 0.365-0.001 0.731-0.001 1.096 0 0-0.092-0.001-0.183-0.001-0.274-0.275-0.002-0.55-0.003-0.825-0.005-0.001-0.435-0.003-0.871-0.003-1.305l-0.305-0.002zM16.539 18.144c-0.001 0.528-0.001 1.057 0 1.585h0.345c0-0.529 0-1.057 0-1.585h-0.345zM18.813 18.143c-0.001 0.529-0.001 1.057 0 1.586 0.413-0.001 0.826-0.001 1.241 0 0-0.092-0.001-0.183 0-0.274-0.299-0.001-0.598-0.004-0.896-0.004 0-0.102 0-0.306 0-0.408 0.275-0.003 0.551-0.004 0.827-0.005-0.001-0.091-0.001-0.181-0.001-0.271-0.276-0.003-0.551-0.004-0.826-0.006v-0.334c0.288-0.012 0.575-0.023 0.865-0.035 0.012-0.082 0.026-0.164 0.039-0.245-0.417-0.001-0.834-0.003-1.25-0.003z"></path>
<path fill="#111" d="M7.472 18.252c1.009-0.179 2.076 0.298 2.651 1.137 0.716 0.95 0.707 2.389-0.059 3.307-0.52 0.715-1.41 1.086-2.279 1.096-1.448-0.048-2.742-1.351-2.687-2.821-0.034-1.335 1.057-2.56 2.374-2.718zM7.401 19.212c-0.732 0.166-1.337 0.861-1.338 1.622-0.17 1.072 0.854 2.133 1.928 1.992 0.949 0.009 1.796-0.909 1.713-1.854 0.063-1.159-1.203-2.085-2.304-1.761z"></path>
<path fill="#111" d="M24.148 18.245c1.089-0.179 2.26 0.382 2.791 1.351 0.653 1.049 0.471 2.559-0.459 3.387-0.78 0.775-2.057 1.040-3.053 0.542-1.244-0.51-1.928-2.004-1.552-3.286 0.281-1.030 1.205-1.87 2.273-1.994zM24.487 19.137c-0.947 0.028-1.775 0.853-1.782 1.803-0.085 1.128 1.106 2.149 2.212 1.851 0.964-0.135 1.648-1.196 1.446-2.137-0.131-0.873-1.004-1.548-1.876-1.518z"></path>
<path fill="#111" d="M14.010 18.369c0.58-0.149 0.794 0.78 0.367 1.062-0.215 0.116-0.566 0.041-0.641-0.21-0.063-0.283-0.081-0.747 0.274-0.852z"></path>
<path fill="#111" d="M12.198 18.403c0.205 0.013 0.416 0.037 0.621 0.059 0 0.106 0 0.212 0.001 0.318-0.208 0.021-0.415 0.043-0.622 0.066 0-0.111 0-0.332 0-0.443z"></path>
</svg>
