<!-- Generated by IcoMoon.io -->
<svg version="1.1" xmlns="http://www.w3.org/2000/svg" width="32" height="32" viewBox="0 0 32 32">
<path fill="#111" d="M6.881 8.983c0.099-0.136 0.181-0.291 0.312-0.399 0.489-0.024 0.98-0.016 1.469 0.004 0.024 0.377 0.013 0.756 0.014 1.133-0.536-0.376-1.163-0.59-1.795-0.738z"></path>
<path fill="#111" d="M4.815 9.663c0.406-0.028 0.813-0.018 1.221-0.021 0.761-0.014 1.518 0.219 2.16 0.622 0.38 0.235 0.623 0.622 0.909 0.955 0.576 0.684 1.136 1.383 1.732 2.050 0.442 0.504 1.096 0.798 1.765 0.806 3.43-0.002 6.86-0.002 10.291-0.001 1.095 0.092 2.238 0.219 3.202 0.791 0.431 0.242 0.809 0.573 1.122 0.954 0.13 0.154 0.25 0.339 0.454 0.4 0.556 0.204 1.123 0.378 1.667 0.616 0.288 0.127 0.559 0.304 0.764 0.546v0.52c-0.329 0.582-1.026 0.77-1.635 0.894-0.805 0.132-1.62 0.23-2.436 0.206-2.382-0.004-4.763 0.004-7.145-0.004-0.568-0.012-1.076 0.284-1.586 0.493-2.454 1.058-4.861 2.219-7.282 3.351-0.702 0.353-1.476 0.611-2.27 0.59-0.708-0.006-1.415 0.003-2.123-0.005-0.284-0.386-0.666-0.682-0.958-1.059 0.634-0.052 1.199 0.262 1.778 0.461 1.931-1.397 3.882-2.766 5.818-4.155-0.717-0.147-1.452-0.329-2.081-0.714 0.658-0.039 1.331-0.059 1.962-0.271 0.481-0.187 0.65-0.753 0.623-1.228-0.001-0.409-0.153-0.88-0.552-1.062-0.475-0.209-1.002-0.234-1.511-0.284-0.461-0.069-0.93-0.053-1.389 0.014-0.607 0.029-1.206 0.163-1.773 0.383-0.481-0.979-0.954-1.964-1.403-2.959-0.628 0.239-1.196 0.607-1.798 0.901-0.258 0.092-0.54 0.041-0.808 0.051-0.546-0.019-1.095 0.039-1.637-0.039 1.161-0.828 2.374-1.582 3.547-2.393-0.205-0.471-0.436-0.931-0.63-1.407zM23.487 15.528c-0.362 0.094-0.756-0.034-1.1 0.138-0.050 0.336 0.299 0.509 0.546 0.646 0.804 0.414 1.725 0.338 2.599 0.326 0.346-0.036 0.68-0.142 1.009-0.251-0.449-0.628-1.199-1.001-1.935-1.173-0.368 0.121-0.728 0.281-1.12 0.315zM15.817 15.79c0.001 0.234 0.002 0.467 0 0.701 0.199 0.229 0.531 0.177 0.778 0.065 0.009-0.255 0.009-0.511 0.011-0.766-0.224-0.201-0.566-0.201-0.789 0zM17.828 15.731c-0.015 0.294-0.021 0.588 0.022 0.88 0.256 0.032 0.563 0.105 0.756-0.121-0.026-0.25 0.070-0.543-0.088-0.761-0.196-0.16-0.478-0.089-0.69 0.001zM19.983 15.661c-0.219 0.084-0.254 0.347-0.241 0.552-0.004 0.18 0.076 0.431 0.294 0.429 0.202 0.024 0.503 0.023 0.556-0.229 0.021-0.225 0.054-0.479-0.082-0.676-0.151-0.109-0.351-0.124-0.527-0.076z"></path>
<path fill="#111" d="M15.586 10.573c0.21 0.007 0.429-0.032 0.633 0.026 0.314 0.206 0.61 0.441 0.914 0.663 0.232 0.167 0.478 0.358 0.557 0.649 0.146 0.474 0.279 0.952 0.406 1.432-0.788 0.030-1.579 0.013-2.368 0.010 0.174-0.588 0.359-1.173 0.549-1.756 0.017-0.085 0.083-0.199 0.005-0.273-0.229-0.254-0.473-0.493-0.696-0.751z"></path>
<path fill="#111" d="M8.943 15.62c0.406-0.084 0.823-0.038 1.233-0.048 0.339 0.007 0.689-0.041 1.016 0.072-0.113 0.274-0.26 0.551-0.236 0.857-0.022 0.321 0.102 0.624 0.234 0.911-1.014 0.172-2.062 0.098-3.056-0.154-0.351-0.106-0.727-0.249-0.947-0.56-0.034-0.194-0.041-0.427 0.151-0.543 0.459-0.346 1.050-0.451 1.606-0.536z"></path>
<path fill="#111" d="M11.687 15.778c0.153 0.019 0.35-0.032 0.451 0.118 0.206 0.241 0.206 0.581 0.172 0.88-0.057 0.199-0.148 0.433-0.367 0.498-0.235 0.081-0.391-0.18-0.464-0.364-0.184-0.376-0.044-0.826 0.209-1.133z"></path>
</svg>
