<!-- Generated by IcoMoon.io -->
<svg version="1.1" xmlns="http://www.w3.org/2000/svg" width="32" height="32" viewBox="0 0 32 32">
<path fill="#111" d="M0 9.376c0.181-0.189 0.36-0.44 0.654-0.421 1.445-0.026 2.891-0.001 4.336-0.009 0.319-0.025 0.65 0.14 0.73 0.469 0.381 1.223 0.721 2.459 1.075 3.69 0.867-0.276 1.712-0.629 2.601-0.841 1.671-0.409 3.384-0.703 5.107-0.739 0.339-0.026 0.797 0.089 0.829 0.498 0.086 0.895-0.019 1.797 0.046 2.696 2.394 0.004 4.786 0.121 7.165 0.387 0.521 0.074 0.979-0.246 1.477-0.332 0.902-0.165 1.884 0.030 2.619 0.589 0.295 0.21 0.556 0.5 0.929 0.566 1.258 0.285 2.515 0.591 3.732 1.021 0.262 0.089 0.485 0.26 0.699 0.433v0.459c-0.7 0.924-1.544 1.729-2.3 2.605-0.273 0.273-0.519 0.674-0.949 0.676-0.834 0.102-1.753-0.22-2.516 0.235-0.924 0.525-2.105 0.536-3.054 0.069-0.294-0.135-0.585-0.321-0.922-0.304-3.878 0.006-7.755-0.003-11.633 0.005-0.523 0.009-1.090-0.102-1.563 0.181-0.89 0.504-2.006 0.604-2.959 0.218-0.838-0.335-1.581-0.974-1.929-1.819-0.105-0.234-0.176-0.484-0.304-0.707-0.786-0.53-1.768-0.755-2.493-1.374-0.195-0.514-0.067-1.089-0.097-1.626-0.030-1.034 0.063-2.075-0.042-3.104-0.356-1.049-0.794-2.072-1.24-3.086v-0.434zM6.911 16.045c-1.061 0.201-1.888 1.253-1.786 2.336 0.058 1.185 1.189 2.197 2.377 2.093 1.225-0.045 2.241-1.255 2.086-2.469-0.098-1.269-1.438-2.252-2.678-1.96zM24.164 16.051c-1.047 0.215-1.858 1.253-1.758 2.326 0.041 1.139 1.079 2.121 2.218 2.1 1.246 0.052 2.349-1.12 2.253-2.356-0.031-1.326-1.422-2.398-2.712-2.070z"></path>
</svg>
