<!-- Generated by IcoMoon.io -->
<svg version="1.1" xmlns="http://www.w3.org/2000/svg" width="32" height="32" viewBox="0 0 32 32">
<path fill="#111" d="M1.6 25.257c0.613 0.001 1.196-0.262 1.6-0.723 0.405 0.459 0.988 0.722 1.6 0.722s1.195-0.263 1.6-0.722c0.405 0.459 0.988 0.722 1.6 0.722s1.195-0.263 1.6-0.722c0.405 0.459 0.988 0.722 1.6 0.722s1.195-0.263 1.6-0.722c0.405 0.459 0.988 0.722 1.6 0.722s1.195-0.263 1.6-0.722c0.405 0.459 0.988 0.722 1.6 0.722s1.195-0.263 1.6-0.722c0.405 0.459 0.988 0.722 1.6 0.722s1.195-0.263 1.6-0.722c0.405 0.459 0.988 0.722 1.6 0.722s1.195-0.263 1.6-0.722c0.405 0.459 0.988 0.722 1.6 0.722s1.195-0.263 1.6-0.722c0.405 0.459 0.988 0.722 1.6 0.723 0.295 0 0.533-0.239 0.533-0.533s-0.239-0.533-0.533-0.533c-0.306-0-0.597-0.131-0.8-0.361-0.207-0.22-0.496-0.345-0.798-0.345s-0.591 0.125-0.798 0.345c-0.209 0.22-0.499 0.344-0.802 0.344s-0.593-0.124-0.802-0.344c-0.207-0.22-0.496-0.345-0.798-0.345s-0.591 0.125-0.798 0.345c-0.209 0.22-0.499 0.344-0.802 0.344s-0.593-0.124-0.802-0.344c-0.207-0.22-0.496-0.345-0.798-0.345s-0.591 0.125-0.798 0.345c-0.209 0.22-0.499 0.344-0.802 0.344s-0.593-0.124-0.802-0.344c-0.207-0.22-0.496-0.345-0.798-0.345s-0.591 0.125-0.798 0.345c-0.209 0.22-0.499 0.344-0.802 0.344s-0.593-0.124-0.802-0.344c-0.207-0.22-0.496-0.345-0.798-0.345s-0.591 0.125-0.798 0.345c-0.209 0.22-0.499 0.344-0.802 0.344s-0.593-0.124-0.802-0.344c-0.207-0.22-0.496-0.345-0.798-0.345s-0.591 0.125-0.798 0.345c-0.209 0.22-0.499 0.344-0.802 0.344s-0.593-0.124-0.802-0.344c-0.207-0.22-0.496-0.345-0.798-0.345s-0.591 0.125-0.798 0.345c-0.209 0.22-0.499 0.344-0.802 0.344s-0.593-0.124-0.802-0.344c-0.207-0.22-0.496-0.345-0.798-0.345s-0.591 0.125-0.798 0.345c-0.209 0.22-0.499 0.344-0.802 0.344s-0.593-0.124-0.802-0.344c-0.207-0.22-0.496-0.345-0.798-0.345s-0.591 0.125-0.798 0.345c-0.203 0.229-0.494 0.361-0.8 0.361-0.295 0-0.533 0.239-0.533 0.533s0.239 0.533 0.533 0.533z"></path>
<path fill="#111" d="M1.6 28.457c0.613 0.001 1.196-0.262 1.6-0.723 0.405 0.459 0.988 0.722 1.6 0.722s1.195-0.263 1.6-0.722c0.405 0.459 0.988 0.722 1.6 0.722s1.195-0.263 1.6-0.722c0.405 0.459 0.988 0.722 1.6 0.722s1.195-0.263 1.6-0.722c0.405 0.459 0.988 0.722 1.6 0.722s1.195-0.263 1.6-0.722c0.405 0.459 0.988 0.722 1.6 0.722s1.195-0.263 1.6-0.722c0.405 0.459 0.988 0.722 1.6 0.722s1.195-0.263 1.6-0.722c0.405 0.459 0.988 0.722 1.6 0.722s1.195-0.263 1.6-0.722c0.405 0.459 0.988 0.722 1.6 0.722s1.195-0.263 1.6-0.722c0.405 0.459 0.988 0.722 1.6 0.723 0.295 0 0.533-0.239 0.533-0.533s-0.239-0.533-0.533-0.533c-0.306-0-0.597-0.131-0.8-0.361-0.207-0.22-0.496-0.345-0.798-0.345s-0.591 0.125-0.798 0.345c-0.209 0.22-0.499 0.344-0.802 0.344s-0.593-0.124-0.802-0.344c-0.207-0.22-0.496-0.345-0.798-0.345s-0.591 0.125-0.798 0.345c-0.209 0.22-0.499 0.344-0.802 0.344s-0.593-0.124-0.802-0.344c-0.207-0.22-0.496-0.345-0.798-0.345s-0.591 0.125-0.798 0.345c-0.209 0.22-0.499 0.344-0.802 0.344s-0.593-0.124-0.802-0.344c-0.207-0.22-0.496-0.345-0.798-0.345s-0.591 0.125-0.798 0.345c-0.209 0.22-0.499 0.344-0.802 0.344s-0.593-0.124-0.802-0.344c-0.207-0.22-0.496-0.345-0.798-0.345s-0.591 0.125-0.798 0.345c-0.209 0.22-0.499 0.344-0.802 0.344s-0.593-0.124-0.802-0.344c-0.207-0.22-0.496-0.345-0.798-0.345s-0.591 0.125-0.798 0.345c-0.209 0.22-0.499 0.344-0.802 0.344s-0.593-0.124-0.802-0.344c-0.207-0.22-0.496-0.345-0.798-0.345s-0.591 0.125-0.798 0.345c-0.209 0.22-0.499 0.344-0.802 0.344s-0.593-0.124-0.802-0.344c-0.207-0.22-0.496-0.345-0.798-0.345s-0.591 0.125-0.798 0.345c-0.209 0.22-0.499 0.344-0.802 0.344s-0.593-0.124-0.802-0.344c-0.207-0.22-0.496-0.345-0.798-0.345s-0.591 0.125-0.798 0.345c-0.203 0.229-0.494 0.361-0.8 0.361-0.295 0-0.533 0.239-0.533 0.533s0.239 0.533 0.533 0.533z"></path>
<path fill="#111" d="M0.533 18.667h1.6c0.295 0 0.533-0.239 0.533-0.533s-0.239-0.533-0.533-0.533h-1.6c-0.295 0-0.533 0.239-0.533 0.533s0.239 0.533 0.533 0.533z"></path>
<path fill="#111" d="M31.467 17.6h-3.2c-0.295 0-0.533 0.239-0.533 0.533s0.239 0.533 0.533 0.533h3.2c0.295 0 0.533-0.239 0.533-0.533s-0.239-0.533-0.533-0.533z"></path>
<path fill="#111" d="M29.467 12.091c-0.686-0.957-2.019-1.177-2.976-0.491-3.287 2.345-3.111 2.267-3.344 2.267h-1.861c-0.077-0.092-0.176-0.164-0.287-0.207 1.496-4.41 1.557-4.403 1.557-5.126 0.002-0.765-0.54-1.423-1.291-1.568 0.772-0.647 0.988-1.745 0.518-2.636s-1.498-1.333-2.468-1.060c-0.97 0.272-1.618 1.185-1.555 2.19s0.818 1.831 1.814 1.981l-3.093 1.664c-0.064-0.117-0.033-0.075-0.373-0.414-0.209-0.202-0.542-0.199-0.748 0.007s-0.209 0.538-0.007 0.748l0.278 0.278c-0.27 0.427-0.205 0.984 0.158 1.336s0.922 0.401 1.34 0.119c0.071 0.132-0.085-0.042 1.631 1.68 0.059 0.058 0.131 0.1 0.21 0.124l-0.295 0.886c-7.435 0-5.688 0.053-6.237-0.128 1.532-4.516 1.584-4.494 1.584-5.205 0.002-0.765-0.54-1.423-1.291-1.568 0.772-0.647 0.988-1.745 0.518-2.636s-1.498-1.333-2.468-1.060c-0.97 0.272-1.618 1.185-1.555 2.19s0.818 1.831 1.814 1.981l-3.163 1.703c-0.066-0.118-0.018-0.059-0.412-0.453-0.134-0.139-0.332-0.194-0.519-0.145s-0.332 0.194-0.381 0.381c-0.049 0.186 0.007 0.385 0.145 0.519l0.331 0.331c0.006 0.006 0.014 0.008 0.021 0.014-0.22 0.418-0.139 0.93 0.199 1.259s0.852 0.398 1.264 0.169c0.073 0.133-0.102-0.060 1.678 1.721 0.059 0.057 0.131 0.099 0.209 0.123l-0.273 0.806c-1.313 0-1.402 0.037-1.597-0.101l-3.035-2.165c-0.618-0.465-1.44-0.559-2.148-0.246s-1.19 0.986-1.26 1.757c-0.070 0.771 0.283 1.519 0.922 1.955 3.582 2.56 3.292 2.365 3.595 2.533h-2.352c-0.295 0-0.533 0.239-0.533 0.533s0.239 0.533 0.533 0.533h9.067c0.254-0.001 0.472-0.181 0.521-0.43s-0.085-0.499-0.319-0.596c-0.146-0.74-0.237-0.977-0.005-1.374 0.081-0.16 0.146-0.21 0.523-0.587 0.202-0.197 0.47-0.309 0.752-0.315 0.56 0.063 1.114 0.169 1.659 0.315 0.418 0.077 0.366 0.11 2.624 2.368l3.093-0.405-0.128-0.651c-0.070-0.349 0.040-0.71 0.293-0.96 0.402-0.407 0.427-0.444 0.581-0.523 0.219-0.133 0.48-0.177 0.731-0.123 2.063 0.419 1.551 0.143 2.848 1.44l2.464-1.76c0.461-0.328 0.773-0.827 0.866-1.385s-0.040-1.131-0.37-1.591zM10.773 11.997l-1.294-1.294 2.115-1.14zM19.334 11.917l-1.25-1.25 2.044-1.104z"></path>
<path fill="#111" d="M16.811 20.299l0.080 0.080c0.212 0.203 0.546 0.203 0.757 0l0.752-0.752c0.1-0.1 0.156-0.237 0.155-0.379 0.002-0.14-0.054-0.276-0.155-0.373l-2.149-2.149-1.445-0.293-0.352 0.352 0.272 1.349 0.021 0.096z"></path>
<path fill="#111" d="M27.045 19.627c0.208-0.21 0.208-0.548 0-0.757l-1.643-1.643h-0.005l-0.501-0.501-1.445-0.293-0.139 0.144-0.037 0.037c-0.011 0.005-0.016 0.016-0.027 0.021l-0.149 0.149 0.144 0.725 0.144 0.72 2.064 2.069c-0.25 0.026-0.482 0.143-0.651 0.331-0.208 0.22-0.497 0.344-0.8 0.344s-0.592-0.124-0.8-0.344-0.497-0.344-0.8-0.344-0.592 0.124-0.8 0.344-0.497 0.344-0.8 0.344-0.592-0.124-0.8-0.344-0.497-0.344-0.8-0.344-0.592 0.124-0.8 0.344-0.497 0.344-0.8 0.344-0.592-0.124-0.8-0.344-0.497-0.344-0.8-0.344-0.592 0.124-0.8 0.344-0.497 0.344-0.8 0.344-0.592-0.124-0.8-0.344-0.497-0.344-0.8-0.344-0.592 0.124-0.8 0.344-0.497 0.344-0.8 0.344-0.592-0.124-0.8-0.344-0.497-0.344-0.8-0.344-0.592 0.124-0.8 0.344-0.497 0.344-0.8 0.344-0.592-0.124-0.8-0.344-0.497-0.344-0.8-0.344-0.592 0.124-0.8 0.344-0.497 0.344-0.8 0.344-0.592-0.124-0.8-0.344-0.497-0.344-0.8-0.344-0.592 0.124-0.8 0.344c-0.202 0.23-0.494 0.362-0.8 0.363-0.295 0-0.533 0.239-0.533 0.533s0.239 0.533 0.533 0.533c0.613-0 1.196-0.264 1.6-0.725 0.404 0.461 0.987 0.725 1.6 0.725s1.196-0.264 1.6-0.725c0.404 0.461 0.987 0.725 1.6 0.725s1.196-0.264 1.6-0.725c0.404 0.461 0.987 0.725 1.6 0.725s1.196-0.264 1.6-0.725c0.404 0.461 0.987 0.725 1.6 0.725s1.196-0.264 1.6-0.725c0.404 0.461 0.987 0.725 1.6 0.725s1.196-0.264 1.6-0.725c0.404 0.461 0.987 0.725 1.6 0.725s1.196-0.264 1.6-0.725c0.404 0.461 0.987 0.725 1.6 0.725s1.196-0.264 1.6-0.725c0.404 0.461 0.987 0.725 1.6 0.725s1.196-0.264 1.6-0.725c0.404 0.461 0.987 0.725 1.6 0.725 0.295 0 0.533-0.239 0.533-0.533s-0.239-0.533-0.533-0.533c-0.306-0-0.598-0.133-0.8-0.363-0.208-0.22-0.497-0.344-0.8-0.344s-0.592 0.124-0.8 0.344-0.497 0.344-0.8 0.344-0.592-0.124-0.8-0.344c-0.059-0.068-0.129-0.126-0.208-0.171 0.034-0.024 0.066-0.050 0.096-0.080z"></path>
</svg>
