<!-- Generated by IcoMoon.io -->
<svg version="1.1" xmlns="http://www.w3.org/2000/svg" width="23" height="32" viewBox="0 0 23 32">
<path fill="#111" d="M19.585 9.807c-0.446-0.771-1.434-1.035-2.205-0.589l-2.184 1.263-1.547-1.205v-0.157c0-1.308-1.020-2.411-2.327-2.461-0.741-0.028-1.404 0.282-1.866 0.782l-4.115 1.47c-0.484 0.173-0.856 0.565-1.003 1.056l-0.907 3.026c-0.256 0.854 0.228 1.754 1.082 2.010 0.864 0.258 1.758-0.24 2.010-1.082l0.673-2.245 1.614-0.576c0 1.047 0.023 4.285 0.030 5.394 0.002 0.25 0.041 0.497 0.118 0.735l0.902 2.81h-1.353v3.227h1.585l-0.566 3.429h3.273l0.565-3.429h1.195c0.553 0 1.066-0.282 1.362-0.748s0.333-1.050 0.099-1.55l-2.381-5.080c0.017-0.534 0.011-1.981 0.011-2.518l0.421 0.328c0.29 0.226 0.64 0.34 0.992 0.34 0.277 0 0.556-0.071 0.807-0.217l3.126-1.807c0.771-0.446 1.036-1.433 0.59-2.205z"></path>
<path fill="#111" d="M12.036 6.051c1.67 0 3.026-1.354 3.026-3.026s-1.356-3.026-3.026-3.026c-1.67 0-3.026 1.354-3.026 3.026s1.356 3.026 3.026 3.026z"></path>
<path fill="#111" d="M9.186 30.336c-0.46 0-0.831 0.373-0.831 0.832s0.371 0.832 0.831 0.832c0.46 0 0.832-0.372 0.832-0.832s-0.372-0.832-0.832-0.832z"></path>
<path fill="#111" d="M11.456 30.336c-0.46 0-0.832 0.373-0.832 0.832s0.373 0.832 0.832 0.832c0.46 0 0.832-0.372 0.832-0.832s-0.372-0.832-0.832-0.832z"></path>
<path fill="#111" d="M13.725 30.336c-0.46 0-0.832 0.373-0.832 0.832s0.372 0.832 0.832 0.832c0.46 0 0.832-0.372 0.832-0.832s-0.372-0.832-0.832-0.832z"></path>
<path fill="#111" d="M4.031 20.625c0.46 0 0.831-0.372 0.831-0.832s-0.371-0.832-0.831-0.832c-0.459 0-0.832 0.372-0.832 0.832s0.374 0.832 0.832 0.832z"></path>
<path fill="#111" d="M4.031 22.895c0.46 0 0.831-0.372 0.831-0.832s-0.371-0.832-0.831-0.832c-0.459 0-0.832 0.372-0.832 0.832s0.374 0.832 0.832 0.832z"></path>
<path fill="#111" d="M4.031 23.5c-0.459 0-0.832 0.372-0.832 0.832s0.374 0.832 0.832 0.832c0.46 0 0.831-0.372 0.831-0.832s-0.371-0.832-0.831-0.832z"></path>
<path fill="#111" d="M5.282 19.717c0.001 0.026 0.004 0.051 0.004 0.077 0 0.512-0.306 0.951-0.744 1.146 0.426 0.195 0.724 0.624 0.724 1.123 0 0.509-0.309 0.945-0.749 1.135 0.44 0.189 0.749 0.626 0.749 1.135 0 0.063-0.027 0.117-0.035 0.177h0.138c0.612 0 1.109-0.497 1.109-1.109h1.223v-3.683h-2.417z"></path>
<path fill="#111" d="M13.729 29.916c0.060 0 0.116 0.006 0.18 0.014v-0.099c0-0.613-0.516-1.109-1.096-1.109v-1.245h-3.674v2.434c0-0.001 0.035-0.004 0.061-0.004 0.513 0 0.945 0.306 1.142 0.745 0.195-0.424 0.619-0.721 1.116-0.721 0.501 0 0.931 0.301 1.125 0.73 0.195-0.439 0.634-0.746 1.145-0.746z"></path>
</svg>
