<!-- Generated by IcoMoon.io -->
<svg version="1.1" xmlns="http://www.w3.org/2000/svg" width="32" height="32" viewBox="0 0 32 32">
<path fill="#111" d="M19.181 5.276c-0.584-0.134-1.225 0.019-1.678 0.414-0.58 0.487-0.822 1.335-0.573 2.052 0.172 0.531 0.588 0.973 1.106 1.179 0.608 0.251 1.342 0.151 1.865-0.248 0.565-0.415 0.861-1.16 0.737-1.851-0.116-0.746-0.721-1.381-1.456-1.547z"></path>
<path fill="#111" d="M16.952 9.309c-0.732-0.12-1.498-0.167-2.219 0.039-0.557 0.154-1.060 0.465-1.486 0.851-0.556 0.502-1.011 1.101-1.448 1.707-0.652 0.927-1.291 1.869-1.777 2.895-0.258 0.533-0.442 1.1-0.528 1.686-1.846 0.003-3.692-0.005-5.539 0.003-0.309-0.013-0.554 0.306-0.49 0.602 0.044 0.252 0.295 0.428 0.546 0.41 4.664 0.006 9.329-0.006 13.993 0.005-0.595 0.506-1.241 0.952-1.85 1.441-0.111 0.075-0.219 0.21-0.369 0.161-1.614-0.31-3.225-0.669-4.87-0.775-1.442-0.097-2.892-0.047-4.329 0.109-1.447 0.176-2.895 0.479-4.23 1.079-0.424 0.2-0.854 0.411-1.212 0.72 2.589-0.69 5.316-0.857 7.97-0.49 0.847 0.11 1.675 0.318 2.511 0.484 0.739 0.161 1.483 0.289 2.223 0.442-0.16 0.193-0.381 0.318-0.574 0.475-0.226 0.165-0.434 0.373-0.708 0.458-0.421 0.134-0.869 0.107-1.302 0.175-0.144 0.020-0.275 0.091-0.389 0.179-1.014 0.779-2.028 1.558-3.044 2.334-0.251 0.183-0.544 0.4-0.555 0.741-0.050 0.355 0.214 0.626 0.412 0.884 0.175 0.216 0.324 0.454 0.521 0.651 0.266 0.252 0.713 0.259 0.997 0.032 1.104-0.843 2.204-1.693 3.309-2.535 0.338-0.255 0.33-0.722 0.493-1.080 0.111-0.29 0.293-0.557 0.543-0.744 0.542-0.413 1.079-0.832 1.623-1.243 0.081-0.077 0.188-0.082 0.291-0.057 2.261 0.363 4.549 0.578 6.841 0.563 2.188-0.070 4.392-0.621 6.27-1.768 0.803-0.494 1.533-1.116 2.109-1.864 0.065-0.086 0.122-0.178 0.173-0.272-0.255 0.14-0.482 0.323-0.735 0.466-1.637 0.962-3.504 1.482-5.383 1.695-1.602 0.183-3.219 0.095-4.82-0.053-0.867-0.087-1.736-0.178-2.592-0.341 0.166-0.172 0.369-0.302 0.556-0.449 0.495-0.383 0.994-0.759 1.488-1.143 0.122-0.092 0.235-0.199 0.373-0.265 0.189-0.030 0.382-0.013 0.572-0.016 2.552 0.005 5.103-0.003 7.654 0.004 0.243-0.004 0.536 0.039 0.718-0.161 0.209-0.2 0.18-0.57-0.046-0.744-0.169-0.144-0.407-0.112-0.613-0.116-2.317 0.008-4.635-0.003-6.953 0.005 0.993-0.795 2.019-1.548 3.021-2.333 0.12-0.093 0.241-0.184 0.367-0.268 0.154 0.056 0.307 0.116 0.462 0.171-0.091-0.104-0.186-0.205-0.278-0.308 0.155-0.148 0.379-0.279 0.391-0.518 0.039-0.294-0.22-0.581-0.516-0.573-0.259-0.003-0.434 0.221-0.639 0.345-1.344-1.223-2.839-2.312-4.523-3.020-0.774-0.318-1.587-0.538-2.411-0.677zM19.895 12.498c1.163 0.201 2.299 0.542 3.41 0.936-0.094 0.098-0.198 0.184-0.307 0.265-0.922 0.692-1.822 1.412-2.749 2.095-0.175-0.070-0.303-0.233-0.469-0.325-0.403-0.257-0.923-0.431-1.388-0.242-0.685 0.272-1.202 0.82-1.787 1.246-0.708 0.035-1.419 0-2.127 0.017-0.022-0.396 0.097-0.781 0.233-1.148 0.271-0.687 0.664-1.327 1.162-1.873 0.422-0.462 0.942-0.875 1.567-1.007 0.809-0.178 1.647-0.096 2.457 0.036z"></path>
</svg>
