<!-- Generated by IcoMoon.io -->
<svg version="1.1" xmlns="http://www.w3.org/2000/svg" width="32" height="32" viewBox="0 0 32 32">
<path fill="#111" d="M10.292 7.788c-0.233 0-0.466-0.175-0.466-0.466 0-0.233 0.233-0.408 0.466-0.408h9.202c0.233 0 0.408 0.175 0.408 0.408 0 0.291-0.175 0.466-0.408 0.466zM2.080 12.040c-0.291 0-0.466-0.175-0.466-0.408s0.175-0.466 0.466-0.466h9.202c0.233 0 0.408 0.233 0.408 0.466s-0.175 0.408-0.408 0.408zM4.526 16.582c0-0.233 0.175-0.466 0.466-0.466h9.202c0.233 0 0.408 0.233 0.408 0.466s-0.175 0.408-0.408 0.408h-9.202c-0.291 0-0.466-0.175-0.466-0.408zM9.768 21.65c0.291 0 0.466 0.175 0.466 0.466 0 0.233-0.175 0.408-0.466 0.408h-8.212c-0.291 0-0.466-0.175-0.466-0.408 0-0.291 0.175-0.466 0.466-0.466zM24.678 10.525c-1.34 0-2.388-1.048-2.388-2.388s1.048-2.388 2.388-2.388c1.34 0 2.388 1.048 2.388 2.388s-1.048 2.388-2.388 2.388zM28.58 9.826c0.932-1.223 3.029-0.058 2.097 1.223-1.747 2.446-4.193 3.378-6.814 2.621-0.757 1.398-1.573 2.796-2.271 4.252 1.048 0.524 2.388 1.514 3.029 2.039 0.815 0.699 1.864 3.262 2.504 4.601 0.699 1.398-1.514 2.446-2.155 1.048-0.582-1.165-1.514-3.495-2.039-3.902-0.582-0.466-2.388-1.747-3.728-2.213-0.058-0.058-0.116-0.058-0.175-0.116-1.689 2.155-5.009 3.145-7.805 1.514-1.456-0.874-0.116-2.97 1.34-2.097 2.097 1.165 4.193-0.349 5.184-2.271 0.932-1.922 1.631-3.262 2.446-4.659-1.573-0.466-2.97 0-4.077 1.514-0.874 1.281-2.97 0.058-2.039-1.223 2.097-2.97 5.3-3.728 8.445-1.806 0.175 0.058 0.757 0.408 0.874 0.466 1.98 1.165 3.844 0.932 5.184-0.99z"></path>
</svg>
