<!-- Generated by IcoMoon.io -->
<svg version="1.1" xmlns="http://www.w3.org/2000/svg" width="32" height="32" viewBox="0 0 32 32">
<path fill="#111" d="M30.541 27.908c-1.158 0-1.998 0.134-2.68 0.315l2.357-4.714-13.27 0.647v-1.248l13.516-0.676-13.516-18.179v-3.227h-1.897v6.973l-11.066 15.908 11.066-0.692v1.233l-13.277 0.648v3.016l-1.264-0.004v1.897h0.948c1.645 0 2.412 0.289 3.301 0.623 0.928 0.349 1.979 0.745 3.969 0.745s3.042-0.396 3.969-0.745c0.889-0.335 1.656-0.623 3.301-0.623s2.413 0.289 3.301 0.623c0.928 0.349 1.979 0.745 3.969 0.745s3.042-0.396 3.969-0.745c0.889-0.335 1.656-0.623 3.301-0.623h0.948v-1.897h-0.948zM16.948 9.228l0.573 1.431c1.134 2.836 0.883 5.973-0.573 8.546v-9.977z"></path>
</svg>
