<!-- Generated by IcoMoon.io -->
<svg version="1.1" xmlns="http://www.w3.org/2000/svg" width="32" height="32" viewBox="0 0 32 32">
<path fill="#111" d="M23.118 5.481c-0.731 0.236-1.225 0.661-1.385 1.183-0.181 0.605 0.236 1.266 1.037 1.649 0.313 0.153 0.529 0.202 1.002 0.223 0.591 0.028 0.612 0.028 0.668-0.132 0.035-0.091 0.153-0.758 0.258-1.475 0.146-0.946 0.181-1.35 0.125-1.426-0.111-0.181-1.183-0.188-1.705-0.021z"></path>
<path fill="#111" d="M19.632 5.794c-0.452 0.167-0.668 0.459-0.689 0.918-0.007 0.244-0.042 0.271-1.037 0.939-0.571 0.376-1.085 0.765-1.148 0.863-0.139 0.216-0.076 0.55 0.132 0.696 0.306 0.216 0.522 0.132 1.538-0.556 0.536-0.362 0.974-0.654 0.981-0.64 0.007 0.007 0.418 1.42 0.898 3.138l0.891 3.117-0.216 0.188c-0.181 0.153-0.445 0.745-1.558 3.521l-1.343 3.34-2.38 0.021c-1.308 0.007-2.38-0.007-2.38-0.035 0-0.035 0.049-0.216 0.104-0.404 0.118-0.369 0.459-2.22 0.584-3.117 0.042-0.299 0.139-0.654 0.209-0.8 0.16-0.299 0.598-0.738 1.071-1.051 0.202-0.139 0.411-0.362 0.543-0.584 0.188-0.327 0.209-0.411 0.188-0.856-0.028-0.578-0.223-0.939-0.696-1.28-0.529-0.383-0.696-0.404-4.508-0.48-5.010-0.111-5.886-0.104-6.304 0.042-0.473 0.16-1.016 0.71-1.134 1.155-0.118 0.424-0.056 0.891 0.174 1.28 0.097 0.174 0.167 0.32 0.153 0.334-0.007 0.014-0.216 0.16-0.445 0.334-0.564 0.417-1.211 1.085-1.586 1.649-1.085 1.628-1.635 3.639-1.211 4.446 0.091 0.174 0.251 0.376 0.355 0.452 0.195 0.146 0.236 0.146 9.296 0.167l9.094 0.014 0.341-0.223c0.598-0.396 1.858-2.018 2.957-3.799 0.438-0.717 0.543-0.842 0.661-0.807 0.076 0.021 0.348 0.056 0.612 0.076 0.257 0.021 0.466 0.049 0.466 0.069 0 0.014-0.167 0.299-0.376 0.64-0.424 0.71-0.96 1.969-1.322 3.131-0.139 0.438-0.251 0.821-0.251 0.856 0 0.091 0.633 0.063 0.925-0.042l0.257-0.097v0.328c0.007 1.67 1.385 3.361 3.096 3.799 0.522 0.132 1.552 0.132 2.052 0 1.315-0.348 2.421-1.378 2.867-2.665 0.139-0.396 0.16-0.598 0.16-1.371-0.007-0.814-0.021-0.953-0.195-1.385-0.104-0.264-0.306-0.654-0.459-0.87l-0.264-0.396 0.396-0.188c0.71-0.334 0.731-0.835 0.049-1.524-0.988-1.002-2.387-1.517-3.841-1.426-0.341 0.028-0.716 0.063-0.835 0.084l-0.209 0.042-0.007-0.404c-0.007-0.751-0.48-1.336-1.134-1.398l-0.334-0.028-1.315-2.929-1.315-2.922-0.348-0.258c-0.891-0.661-1.301-1.545-1.085-2.352 0.097-0.348 0.028-0.522-0.257-0.668-0.306-0.153-0.591-0.181-0.87-0.084zM28.476 20.767c0.39 0.195 0.696 0.508 0.932 0.953 0.223 0.411 0.223 1.28 0.007 1.691-0.251 0.466-0.487 0.703-0.939 0.925-0.786 0.396-1.691 0.251-2.317-0.376-0.39-0.39-0.55-0.807-0.556-1.399 0-0.647 0.264-1.19 0.758-1.565 0.424-0.32 0.647-0.396 1.266-0.404 0.396-0.007 0.556 0.028 0.848 0.174z"></path>
<path fill="#111" d="M2.85 23.766c0.084 0.355 0.459 1.051 0.751 1.392 0.842 0.995 1.879 1.482 3.145 1.482 0.758 0 1.287-0.125 1.934-0.466 0.884-0.466 1.545-1.211 1.892-2.143l0.174-0.452h-2.289l-0.299 0.299c-0.39 0.389-0.758 0.556-1.287 0.591-0.605 0.042-1.065-0.125-1.503-0.55l-0.355-0.341h-2.213l0.049 0.188z"></path>
</svg>
