<!-- Generated by IcoMoon.io -->
<svg version="1.1" xmlns="http://www.w3.org/2000/svg" width="32" height="32" viewBox="0 0 32 32">
<path fill="#111" d="M27.583 9.341c0.127-0.129 0.373-0.109 0.471 0.047 0.045 0.082 0.039 0.18 0.045 0.271 0.004 1.163-0.007 2.326 0.004 3.489 0.214 0.024 0.467-0.003 0.633 0.161 0.246 0.234 0.201 0.7-0.102 0.865-0.166 0.076-0.354 0.070-0.531 0.091-0.014 1.239 0.008 2.479-0.010 3.718 0.017 0.219-0.244 0.355-0.428 0.26-0.157-0.056-0.167-0.243-0.169-0.383-0.001-1.157 0.003-2.315-0.001-3.472-0.675 0.97-1.299 1.976-1.958 2.956-0.169 0.24-0.406 0.438-0.686 0.532-0.958 0.285-1.959 0.385-2.933 0.598 0.298 0.811 0.602 1.62 0.903 2.429 1.928 0.017 3.857-0.001 5.786 0.001 0.246 0.009 0.503-0.035 0.74 0.046 0.117 0.18 0.073 0.411 0.069 0.614-0.002 0.215-0.168 0.371-0.34 0.47-0.589 0.349-1.235 0.588-1.879 0.813-0.148 0.067-0.297-0.028-0.438-0.069-0.995-0.365-2.122-0.345-3.108 0.044-0.462 0.182-0.939 0.372-1.444 0.364-0.476 0.012-0.938-0.126-1.37-0.316-1.096-0.469-2.378-0.47-3.475-0.004-0.547 0.227-1.139 0.393-1.734 0.296-0.55-0.059-1.030-0.36-1.56-0.495-0.987-0.266-2.063-0.176-2.994 0.244-0.273 0.154-0.57 0.006-0.846-0.054-1.165-0.296-2.334-0.583-3.487-0.927-0.117-0.038-0.244-0.113-0.268-0.245-0.028-0.2-0.031-0.408 0.006-0.607 0.061-0.138 0.234-0.139 0.362-0.145 2.136-0.004 4.271-0.001 6.406-0.006 0.314-0.81 0.625-1.622 0.903-2.444-2.774-0.417-5.548-0.849-8.321-1.27-0.557-0.076-1.071-0.387-1.422-0.822-0.238-0.292-0.287-0.677-0.383-1.030-0.429-1.679-0.856-3.359-1.289-5.037-0.029-0.092-0.008-0.188 0.012-0.279 0.492-0.019 0.981 0.045 1.472 0.065 0.298 0.024 0.6 0.014 0.893 0.077 0.166 0.029 0.226 0.204 0.298 0.333 0.316 0.667 0.675 1.315 0.948 2.001 0.193 0.453 0.344 0.937 0.662 1.323 0.147 0.175 0.351 0.339 0.593 0.331 0.962-0.003 1.924-0.011 2.887-0.013 0.282 0.009 0.522-0.161 0.774-0.261 1.452-0.628 2.925-1.22 4.456-1.628 1.424-0.355 2.859-0.666 4.303-0.925 0.379-0.069 0.781-0.046 1.131 0.126 0.657 0.316 1.284 0.692 1.939 1.009 0.659 0.248 1.371 0.294 2.060 0.42 0.776 0.086 1.549 0.21 2.329 0.262 0.013-1.167 0.001-2.335 0.005-3.503 0.008-0.109 0-0.237 0.086-0.319zM19.757 12.033c0.236 0.804 0.524 1.592 0.79 2.386 0.426 0.010 0.852 0.004 1.279 0.006 0.174-0.003 0.388-0.008 0.489-0.177 0.177-0.276 0.347-0.558 0.494-0.851 0.108-0.19-0.055-0.386-0.228-0.458-0.566-0.287-1.123-0.591-1.692-0.872-0.353-0.184-0.761-0.109-1.133-0.033zM15.884 12.876c-0.611 0.167-1.208 0.388-1.788 0.641-0.294 0.114-0.267 0.489-0.221 0.744 0.034 0.18 0.255 0.156 0.395 0.165 1.809-0.007 3.619 0.006 5.428-0.007-0.237-0.746-0.484-1.49-0.75-2.226-1.027 0.2-2.047 0.436-3.064 0.684zM13.991 20.922c2.699 0.011 5.398-0.005 8.097-0.011-0.285-0.817-0.59-1.628-0.903-2.435-2.093-0.008-4.186-0.003-6.279-0.003-0.323 0.808-0.619 1.629-0.915 2.448z"></path>
<path fill="#111" d="M5.265 23.632c0.933-0.41 2.033-0.406 2.963 0.010 0.721 0.325 1.539 0.449 2.317 0.284 0.573-0.103 1.077-0.426 1.65-0.529 0.764-0.158 1.57-0.049 2.278 0.271 0.899 0.402 1.954 0.442 2.87 0.076 0.433-0.18 0.876-0.352 1.346-0.396 0.676-0.079 1.365 0.049 1.983 0.329 0.792 0.348 1.706 0.423 2.538 0.173 0.385-0.112 0.742-0.305 1.132-0.404 0.61-0.163 1.263-0.16 1.873 0.003 0.405 0.107 0.777 0.31 1.181 0.419 0.313 0.088 0.638 0.116 0.961 0.141 0.010 0.756 0.008 1.512 0.001 2.268-0.573 0.013-1.13-0.152-1.651-0.378-0.841-0.36-1.816-0.388-2.676-0.076-0.311 0.116-0.613 0.259-0.936 0.341-0.828 0.22-1.72 0.115-2.497-0.237-0.957-0.43-2.090-0.424-3.044 0.013-0.975 0.449-2.134 0.446-3.109-0.003-0.954-0.436-2.088-0.44-3.045-0.008-0.913 0.419-1.992 0.47-2.927 0.091-0.408-0.171-0.826-0.334-1.269-0.383-0.68-0.093-1.378 0.024-2.003 0.3-0.489 0.214-1.018 0.346-1.554 0.339-0.003-0.756-0.005-1.513 0.001-2.27 0.557-0.019 1.108-0.145 1.616-0.375z"></path>
</svg>
