<!-- Generated by IcoMoon.io -->
<svg version="1.1" xmlns="http://www.w3.org/2000/svg" width="28" height="28" viewBox="0 0 28 28">
<path fill="#111" d="M4.046 7.247c0.208 0.039 0.552 0.040 0.617 0.306 0.046 0.313 0.042 0.632 0.056 0.949 0.998 0.010 1.997-0.028 2.995 0.007 0.114-0.002 0.2 0.089 0.262 0.175 0.058 0.256-0.148 0.438-0.258 0.639-0.314 0.466-0.668 0.908-0.95 1.396-0.097 1.189-0.014 2.386-0.039 3.579-1.234-0.003-2.467 0.013-3.701-0.012-0.030-1.113-0.011-2.226-0.024-3.339-0.206-0.038-0.408-0.095-0.6-0.176 0.002-0.647-0.021-1.295 0.021-1.941 0.011-0.121 0.069-0.23 0.116-0.34 0.423 0.007 0.847 0.010 1.27 0.011 0.025-0.425-0.044-0.896 0.235-1.255zM3.301 9.343c-0.008 0.211-0.015 0.423-0.022 0.634 0.965 0.001 1.93 0.003 2.895-0.003 0.138-0.214 0.278-0.426 0.412-0.643-1.095 0.019-2.19 0.001-3.285 0.011z"></path>
<path fill="#111" d="M9.026 10.854c1.057-0.001 2.115-0.001 3.172-0.001-0.001 0.458-0.001 0.915-0.002 1.373-1.057 0.019-2.114 0.027-3.17-0.005 0-0.456-0.001-0.911 0-1.367z"></path>
<path fill="#111" d="M12.74 10.854c1.077-0.001 2.154-0.001 3.231 0 0 0.454 0 0.909 0 1.364-1.069 0.034-2.139 0.009-3.207 0.032-0.015-0.465-0.020-0.931-0.024-1.396z"></path>
<path fill="#111" d="M16.475 10.871c1.072-0.030 2.145-0.016 3.218-0.017-0.004 0.465-0.009 0.931-0.022 1.396-1.070-0.027-2.14 0.009-3.21-0.031 0.002-0.45-0.001-0.899 0.014-1.349z"></path>
<path fill="#111" d="M9.026 12.768c1.057-0.001 2.115-0.001 3.172-0.001 0 0.456 0 0.911 0 1.367-1.058 0.001-2.115 0.001-3.172 0.001-0.001-0.456-0.001-0.912 0-1.367z"></path>
<path fill="#111" d="M12.744 12.768c1.076-0.001 2.151-0.001 3.227 0 0 0.455 0 0.911 0 1.366-1.076 0.001-2.151 0.001-3.227 0-0.001-0.456-0.001-0.911 0-1.366z"></path>
<path fill="#111" d="M16.463 12.768c1.076-0.001 2.151-0.001 3.227 0 0 0.455 0 0.911 0 1.366-1.076 0.001-2.151 0.001-3.227 0-0.001-0.456-0.001-0.911 0-1.366z"></path>
<path fill="#111" d="M20.237 12.768c1.057-0.001 2.115-0.001 3.172-0.001 0.005 0.455 0.020 0.911 0.007 1.366-1.060 0.003-2.119 0.002-3.179 0.002-0.001-0.456-0.001-0.912 0-1.367z"></path>
<path fill="#111" d="M8.995 14.696c1.068-0.024 2.135-0.014 3.203-0.014 0 0.455 0 0.91 0 1.365-0.729-0.001-1.459 0.028-2.186-0.008-0.087 0.004-0.143-0.067-0.194-0.125-0.309-0.381-0.58-0.792-0.822-1.218z"></path>
<path fill="#111" d="M12.744 14.682c1.076-0.001 2.151-0.001 3.227 0 0 0.455 0 0.911 0 1.366-1.076 0.001-2.151 0.001-3.227 0-0.001-0.456-0.001-0.911 0-1.366z"></path>
<path fill="#111" d="M16.463 14.682c1.076-0.001 2.151-0.001 3.227 0 0 0.455 0 0.911 0 1.366-1.076 0.001-2.151 0.001-3.227 0-0.001-0.456-0.001-0.911 0-1.366z"></path>
<path fill="#111" d="M20.237 14.682c1.062 0.001 2.125-0.007 3.187 0.007-0.355 0.36-0.731 0.698-1.104 1.038-0.176 0.142-0.345 0.361-0.608 0.308-0.491 0.030-0.984 0.017-1.475 0.016-0.001-0.457-0.001-0.913 0-1.369z"></path>
<path fill="#111" d="M0.947 15.025c0.167-0.194 0.476-0.080 0.694-0.127 2.098 0.002 4.196 0.001 6.293 0 0.372-0.106 0.577 0.251 0.761 0.495 0.291 0.421 0.603 0.827 0.89 1.25 4.006 0.018 8.013-0.002 12.019 0.012 0.242-0.039 0.552 0.071 0.74-0.139 0.555-0.483 1.078-1.002 1.634-1.484 0.186-0.165 0.459-0.102 0.685-0.132 0.742-0.008 1.488-0.033 2.229 0.024 0.234 0.044 0.269 0.329 0.17 0.508-0.57 1.231-1.168 2.451-1.731 3.684-0.097 0.59 0.325 1.090 0.496 1.631-7.202 0.010-14.404 0.007-21.606 0.002-1.074-1.752-2.155-3.499-3.235-5.247-0.081-0.141-0.157-0.332-0.038-0.476z"></path>
</svg>
