<!-- Generated by IcoMoon.io -->
<svg version="1.1" xmlns="http://www.w3.org/2000/svg" width="25" height="32" viewBox="0 0 25 32">
<path fill="#111" d="M21.041 11.642l-3.322-0.72-2.909-2.918c-0.41-0.49-1.018-0.81-1.706-0.81h-1.504c-0.288 0-0.56 0.058-0.813 0.157l-2.947-0.723-2.528-2.886c-0.435-0.499-1.187-0.544-1.683-0.112-0.496 0.435-0.544 1.187-0.112 1.683l2.774 3.168c0.16 0.186 0.374 0.314 0.611 0.374l2.464 0.605v8.019l-2.333 7.632c-0.192 0.63 0.163 1.296 0.794 1.491 0.618 0.192 1.293-0.154 1.488-0.794l2.16-7.059h1.91l0.707 2.080-1.107 4.336c-0.163 0.637 0.224 1.286 0.861 1.45 0.634 0.16 1.286-0.221 1.45-0.861l1.194-4.678c0.058-0.224 0.048-0.461-0.026-0.678l-1.13-3.328v-5.162l0.944 0.947c0.163 0.163 0.368 0.275 0.592 0.323l3.667 0.797c0.64 0.141 1.28-0.266 1.418-0.912 0.138-0.643-0.269-1.28-0.915-1.421z"></path>
<path fill="#111" d="M12.35 6.035c1.578 0 2.858-1.28 2.858-2.858s-1.277-2.858-2.858-2.858c-1.578 0-2.858 1.28-2.858 2.858s1.28 2.858 2.858 2.858z"></path>
<path fill="#111" d="M20.081 26.106l-1.194 1.542h-13.075l-1.194-1.542c-0.301-0.39-0.861-0.461-1.254-0.16-0.39 0.304-0.464 0.864-0.16 1.254l1.462 1.888c0.17 0.218 0.429 0.346 0.707 0.346h1.014c-0.154 0.23-0.266 0.493-0.266 0.79 0 0.803 0.65 1.456 1.456 1.456 0.803 0 1.456-0.653 1.456-1.456 0-0.298-0.112-0.56-0.266-0.79h7.165c-0.154 0.23-0.266 0.493-0.266 0.79 0 0.803 0.65 1.456 1.456 1.456 0.803 0 1.456-0.653 1.456-1.456 0-0.298-0.112-0.56-0.266-0.79h1.014c0.278 0 0.538-0.128 0.707-0.346l1.462-1.888c0.304-0.39 0.23-0.954-0.16-1.254-0.394-0.304-0.954-0.234-1.258 0.16z"></path>
</svg>
