<!-- Generated by IcoMoon.io -->
<svg version="1.1" xmlns="http://www.w3.org/2000/svg" width="32" height="32" viewBox="0 0 32 32">
<path fill="#111" d="M13.169 6.225h0.593c0.443 0.073 0.885 0.225 1.226 0.526 0.469 0.391 0.765 0.987 0.777 1.598 0.028 0.36-0.032 0.723-0.164 1.059-0.225 0.563-0.705 1.012-1.274 1.215-0.44 0.167-0.93 0.208-1.387 0.088-0.522-0.138-1.006-0.456-1.306-0.91-0.267-0.389-0.416-0.857-0.422-1.328 0.013-0.583 0.252-1.161 0.665-1.574 0.337-0.362 0.801-0.604 1.291-0.674z"></path>
<path fill="#111" d="M16.862 10.19c-0.030-0.255 0.172-0.537 0.442-0.537 0.142 0 0.322-0.028 0.426 0.093 0.857 1.065 1.697 2.145 2.58 3.189 0.18 0.242 0.458 0.374 0.699 0.546 1.576 0.998 3.077 2.118 4.447 3.385 0.181 0.152 0.341 0.327 0.509 0.493 0.377 0.363 0.715 0.764 1.058 1.158 0.318 0.383 0.634 0.77 0.913 1.183 0.051 0.085 0.139 0.208 0.048 0.297-0.147 0.167-0.314 0.317-0.485 0.458-0.505 0.41-1.025 0.804-1.571 1.161-0.539 0.348-1.126 0.612-1.713 0.868-0.124 0.056-0.254 0.096-0.386 0.129-0.043 0.016-0.106 0.016-0.119 0.070 0.025 0.095 0.080 0.178 0.131 0.261 0.321 0.503 0.677 0.982 1.020 1.47 0.064 0.087 0.115 0.187 0.201 0.257 0.195 0.033 0.396 0.004 0.593 0.012 0.597-0.010 1.208 0.053 1.788-0.124 0.801-0.265 1.525-0.723 2.167-1.264 0.166-0.139 0.329-0.283 0.512-0.399 0.129-0.086 0.294-0.082 0.44-0.053 0.152 0.034 0.25 0.171 0.314 0.303v0.398c-0.223 0.286-0.495 0.532-0.783 0.752-0.677 0.538-1.434 0.981-2.249 1.271-0.184 0.066-0.377 0.105-0.571 0.128-0.255 0.030-0.511 0.062-0.768 0.050-0.141-0.008-0.283 0.004-0.421 0.031h-5.534c-0.329-0.068-0.681 0.017-0.997-0.122-0.142-0.072-0.186-0.247-0.186-0.394-0.010-0.209 0.124-0.428 0.325-0.495 0.404-0.084 0.819-0.037 1.228-0.055 0.524-0.055 1.052-0.013 1.578-0.029-0.090-0.139-0.204-0.26-0.309-0.387-0.356-0.423-0.716-0.843-1.066-1.271-0.040-0.042-0.082-0.096-0.145-0.097-0.141-0.014-0.282-0.002-0.423-0.003-0.921-0-1.842 0-2.763-0-0.208-0-0.417 0.009-0.624-0.012-3.032-0.327-6.063-0.656-9.095-0.982-1.408-0.155-2.816-0.311-4.221-0.483-0.050-0.010-0.104-0.011-0.149-0.039-0.053-0.064-0.082-0.143-0.115-0.218-0.442-1.001-0.894-1.997-1.344-2.994-0.050-0.111-0.091-0.227-0.158-0.329-0.044-0.070-0.133-0.078-0.205-0.1-0.189-0.048-0.388-0.091-0.545-0.212-0.103-0.094-0.157-0.227-0.209-0.353v-0.393c0.057-0.14 0.126-0.281 0.239-0.384 0.145-0.115 0.341-0.128 0.518-0.114 0.631 0.059 1.255 0.17 1.88 0.274 1.302 0.212 2.601 0.445 3.903 0.653 0.104 0.017 0.207 0.039 0.312 0.037 0.095-0.342-0.001-0.704 0.050-1.051 0.026-0.112 0.089-0.21 0.14-0.312 0.296-0.586 0.585-1.175 0.883-1.76 0.222-0.383 0.393-0.792 0.612-1.177 0.145-0.278 0.294-0.555 0.448-0.828 0.118-0.198 0.236-0.407 0.424-0.547 0.278-0.215 0.607-0.413 0.972-0.396 0.255 0.010 0.519-0.031 0.763 0.059 0.336 0.111 0.629 0.315 0.928 0.499 0.391 0.244 0.774 0.499 1.157 0.756 0.385 0.24 0.758 0.497 1.135 0.748 0.15 0.101 0.336 0.103 0.509 0.129 0.823 0.116 1.646 0.234 2.467 0.359 0.077 0.009 0.168 0.029 0.231-0.031 0.159-0.132 0.313-0.274 0.447-0.431-0.041-0.088-0.108-0.159-0.167-0.235-0.577-0.748-1.17-1.483-1.746-2.232-0.139-0.199-0.302-0.394-0.369-0.632zM13.395 14.186c-0.153 0.22-0.249 0.474-0.389 0.702-0.251 0.49-0.492 0.985-0.741 1.476-0.050 0.105-0.109 0.208-0.135 0.323 0.339 0.255 0.675 0.515 1.011 0.774 0.215 0.148 0.419 0.311 0.629 0.464 0.076 0.049 0.155 0.111 0.25 0.109 0.109-0.073 0.199-0.17 0.3-0.253 0.172-0.173 0.368-0.32 0.534-0.498 0.222-0.182 0.416-0.394 0.637-0.577 0.167-0.188 0.376-0.331 0.546-0.517 0.104-0.109 0.229-0.195 0.335-0.302 0.101-0.101 0.195-0.21 0.309-0.297 0.053-0.045 0.119-0.085 0.141-0.155-0.614-0.122-1.239-0.182-1.851-0.321-0.245-0.056-0.442-0.22-0.649-0.353-0.209-0.147-0.433-0.274-0.643-0.42-0.090-0.060-0.182-0.121-0.286-0.156z"></path>
<path fill="#111" d="M3.424 22.427c0.093-0.128 0.262-0.125 0.403-0.111 1.165 0.112 2.328 0.239 3.492 0.359 2.916 0.309 5.833 0.616 8.748 0.938 0.228 0.039 0.467 0.024 0.685 0.107 0.060 0.495-0.16 0.986-0.487 1.348-0.244 0.289-0.587 0.466-0.922 0.627-0.155 0.075-0.331 0.048-0.497 0.050-1.042-0.002-2.084-0.001-3.127-0-0.241 0.005-0.486-0.023-0.724 0.030h-5.352c-0.328-0.070-0.667 0.005-0.996-0.063-0.448-0.060-0.833-0.333-1.131-0.66-0.328-0.376-0.502-0.875-0.511-1.372 0.008-0.446 0.147-0.897 0.418-1.253z"></path>
</svg>
