<!-- Generated by IcoMoon.io -->
<svg version="1.1" xmlns="http://www.w3.org/2000/svg" width="32" height="32" viewBox="0 0 32 32">
<path fill="#111" d="M30.125 2.75c1 2.75-1 5.625-3.938 5.625-0.563 0-1.188-0.125-1.75-0.438-2.063-0.938-3-3.438-2-5.5 0.688-1.563 2.25-2.438 3.75-2.438 1.688 0 3.313 1 3.938 2.75zM26.5 28.813c0.5 0.25 0.75 0.875 0.5 1.375-0.75 1.563-2.563 2.25-4.188 1.5 0 0 0 0 0 0l-20.625-9.688c-0.5-0.25-0.75-0.875-0.5-1.375s0.875-0.75 1.375-0.5l10.125 4.688 1.625-3.563-5-6.313c-0.313-0.438-0.5-0.938-0.438-1.5s0.375-1.063 0.813-1.438c0.5-0.375 1-0.688 1.063-0.75l-3.375-1.563-0.438 0.938c-0.188 0.375-0.563 0.625-0.938 0.625-0.75 0-1.25-0.813-0.938-1.5l0.438-0.938-0.938-0.438c-0.563-0.25-0.75-0.875-0.5-1.375 0.25-0.563 0.813-0.75 1.375-0.563l0.938 0.438 0.438-0.938c0.25-0.5 0.875-0.75 1.375-0.5 0.563 0.25 0.75 0.875 0.5 1.375l-0.438 1c1 0.438 2.75 1.25 4.313 2 1.75-1.438 4.688-3.813 5-3.938 1.125-0.375 2.313 0.188 2.688 1.25l1.75 4.75 3 1.438c1 0.438 1.438 1.688 1 2.75-0.5 1-1.75 1.5-2.813 1 0.063 0.063-5.813-2.688-6-2.875l-1.938 1.563 3.188 3.938c0.438 0.625 0.563 1.438 0.25 2.188l-2.25 4.688c0 0 0.063 0 0.063 0l6.75 3.25c0.5 0.25 1.125 0 1.375-0.5s0.875-0.75 1.375-0.5z"></path>
</svg>
