<!-- Generated by IcoMoon.io -->
<svg version="1.1" xmlns="http://www.w3.org/2000/svg" width="32" height="32" viewBox="0 0 32 32">
<path fill="#111" d="M29.125 22.75c1.563 0 2.875-1.313 2.875-2.938 0-1.563-1.313-2.875-2.875-2.875-1.625 0-2.875 1.313-2.875 2.875 0 1.625 1.25 2.938 2.875 2.938zM26.688 23.25l-0.875-1.625 0.563-8.313c0.063-0.75-0.5-1.375-1.188-1.438-0.75-0.063-1.375 0.5-1.438 1.25l-0.438 6.25c0-0.188-0.063-0.438-0.125-0.625-0.25-0.625-1.063-0.75-1.688-0.5l-5.813 2.813c-0.438 0.188-0.563 0.75-0.375 1.188l1.25 2.438-3.25 1.875 0.063 0.125-10.938-3c-1.063-0.313-2.063 0.313-2.375 1.313-0.25 1 0.313 2.063 1.313 2.375l12.125 3.313c0.188 0 0.375 0.063 0.5 0.063 0.375 0 0.75-0.125 1.063-0.313l0.938-0.625 10.313-5.375c0.438-0.188 0.625-0.75 0.375-1.188zM8.625 22.875c0.313 0 0.625-0.25 0.625-0.625v-9c0-0.313-0.313-0.563-0.625-0.563s-0.563 0.25-0.563 0.563v9c0 0.375 0.25 0.625 0.563 0.625zM10.688 19.188c0.375 0 0.625-0.25 0.625-0.625v-9c0-0.313-0.25-0.625-0.625-0.625-0.313 0-0.563 0.313-0.563 0.625v9c0 0.375 0.25 0.625 0.563 0.625zM21.125 15.188c0.313 0 0.563-0.313 0.563-0.625v-9c0-0.313-0.25-0.625-0.563-0.625s-0.625 0.313-0.625 0.625v9c0 0.313 0.313 0.625 0.625 0.625zM19.063 11.438c0.313 0 0.563-0.25 0.563-0.563v-9c0-0.375-0.25-0.625-0.563-0.625-0.375 0-0.625 0.25-0.625 0.625v9c0 0.313 0.25 0.563 0.625 0.563z"></path>
</svg>
