<!-- Generated by IcoMoon.io -->
<svg version="1.1" xmlns="http://www.w3.org/2000/svg" width="32" height="32" viewBox="0 0 32 32">
<path fill="#111" d="M16.625 14.938c1 0.375 1.563 1.438 1.25 2.5-0.375 1-1.5 1.563-2.5 1.188-1-0.313-1.563-1.438-1.25-2.438 0.375-1.063 1.5-1.563 2.5-1.25zM30.25 3.438c0.188 0.625 0.063 1.313-0.313 1.875l-2.813 4.063c-0.313 0.438-0.813 0.688-1.313 0.688-0.063 0-0.188 0-0.313 0l-3.938 5.313c0.125 0.188 0.125 0.375 0.063 0.625l-0.813 3.563c-0.063 0.313-0.25 0.5-0.5 0.625l-0.063 0.063-1.813 0.813v4.25l0.625 0.813 0.063 0.063c0.188 0.25 0.313 0.5 0.25 0.75l-0.125 4.063c-0.063 0.563-0.563 1-1.125 1s-0.938-0.438-1-1l-0.125-3.5-1.063-1.125-1.125 1.125-0.125 3.5c0 0.563-0.5 1-1.063 1s-1-0.438-1-1l-0.188-4.063c0-0.25 0.063-0.5 0.25-0.75l0.063-0.063 0.813-1v-4.063l-1.813-0.813-0.063-0.063c-0.25-0.125-0.438-0.375-0.5-0.625l-0.813-3.563c-0.063-0.25-0.063-0.438 0.063-0.625l-3.938-5.313c-0.625 0.063-1.25-0.188-1.625-0.688-0.688-1.063-1.438-2.063-2.125-3.063l-0.688-1c-0.375-0.563-0.5-1.25-0.313-1.875 0.125-0.688 0.563-1.188 1.125-1.375 4.188-1.375 8.563-2.063 13.125-2.063s8.938 0.688 13.125 2.063c0.563 0.188 1 0.688 1.125 1.375zM24.938 9.875c-0.688-0.25-1.375-0.438-2.125-0.563l-1.438 5.375zM9.188 9.313c-0.75 0.125-1.438 0.313-2.125 0.563l3.563 4.813zM20 15.5c0.063-0.313 0.375-0.563 0.688-0.563l1.563-5.75c-2-0.438-4.125-0.688-6.25-0.688s-4.25 0.25-6.25 0.688l1.563 5.75c0.313 0 0.625 0.25 0.688 0.563l1 3.063 1.563 0.563h2.875l1.563-0.563z"></path>
</svg>
