<!-- Generated by IcoMoon.io -->
<svg version="1.1" xmlns="http://www.w3.org/2000/svg" width="32" height="32" viewBox="0 0 32 32">
<path fill="#111" d="M29.27 6.146c0.241-0.299 0.828-0.242 0.933 0.154 0.19 0.841 0.18 1.714 0.341 2.56 0.491-0.035 1.067-0.26 1.456 0.161v0.461c-0.271 0.465-0.866 0.357-1.313 0.491 0.046 0.922 0.289 1.825 0.281 2.751-0.26 0.248-0.747 0.414-0.988 0.049-0.2-0.44-0.159-0.946-0.244-1.416-0.474 0.765-0.802 1.613-1.216 2.411-0.226 0.404-0.344 0.876-0.645 1.231-1.239 0.494-2.539 0.819-3.799 1.251 0.201 0.346 0.47 0.645 0.704 0.969 0.454-0.125 0.949-0.19 1.401-0.025 0.898 0.275 1.527 1.238 1.402 2.171-0.075 1.113-1.21 1.999-2.306 1.831-0.997-0.13-1.811-1.061-1.777-2.073-0.031-0.453 0.223-0.839 0.364-1.249-0.275-0.497-0.675-0.914-1.011-1.369-0.527 0.145-1.064 0.267-1.606 0.343-0.255 0.055-0.563 0.050-0.729 0.288-0.391 0.485-0.691 1.060-1.19 1.449-0.348 0.126-0.724 0.080-1.085 0.082-0.429-0.032-0.811 0.218-1.236 0.216-0.83 0.049-1.662 0.015-2.492 0.016-0.55-0.176-0.231-0.876-0.165-1.279-1.494 0.043-2.988 0.058-4.48 0.004-0.365-0.076-0.445 0.364-0.524 0.62 0.133 0.392 0.519 0.684 0.525 1.13 0.159 0.902-0.601 1.81-1.51 1.836-0.918 0.073-1.772-0.779-1.7-1.698 0.027-0.78 0.683-1.434 1.446-1.529 0.249-0.005 0.22-0.266 0.265-0.441-1.531-0.025-3.046-0.253-4.57-0.369-0.522-0.063-0.601-0.669-0.796-1.055-0.479-1.039-0.873-2.121-1.395-3.139-0.323-0.053-0.649 0.035-0.973 0.005-0.422-0.061-0.526-0.69-0.208-0.935 0.196-0.151 0.465-0.144 0.698-0.195-0.344-0.861-0.675-1.736-1.129-2.546v-0.42c0.131-0.174 0.294-0.335 0.521-0.36 0.779-0.131 1.569-0.204 2.354-0.293 0.313-0.016 0.743-0.124 0.914 0.23 0.876 1.38 1.731 2.774 2.592 4.164 1.135-0.071 2.26-0.248 3.391-0.355 0.559-0.023 0.98-0.419 1.438-0.688 2.62-1.601 5.391-3.064 8.416-3.715 1.539-0.265 3.192-0.294 4.644 0.356 0.406 0.171 0.775 0.475 1.234 0.481 1.302 0.075 2.606 0.092 3.907 0.179-0.019-0.689-0.137-1.367-0.233-2.049-0.015-0.23-0.076-0.505 0.091-0.696zM20.485 8.874c0.319 0.783 0.766 1.505 1.155 2.254 0.516-0.098 1.049-0.094 1.565-0.191 0.205-0.115 0.297-0.36 0.436-0.543 0.189-0.33 0.483-0.606 0.591-0.979-1.15-0.602-2.479-0.68-3.747-0.541zM18.922 9.182c-1.81 0.512-3.54 1.281-5.172 2.21 0.249 0.209 0.523 0.384 0.801 0.55 0.454 0.088 0.9-0.084 1.349-0.129 1.489-0.143 2.969-0.393 4.46-0.479 0.004-0.049 0.011-0.145 0.015-0.194-0.302-0.691-0.709-1.335-1.023-2.023-0.145 0.011-0.289 0.033-0.43 0.064zM25.159 18.27c-0.64 0.269-0.781 1.247-0.191 1.644 0.547 0.475 1.499 0.054 1.529-0.665 0.117-0.709-0.696-1.296-1.337-0.979zM8.026 19.136c-0.396 0.2-0.326 0.879 0.117 0.961 0.357 0.105 0.728-0.229 0.644-0.596-0.034-0.356-0.469-0.494-0.761-0.365z"></path>
</svg>
