<!-- Generated by IcoMoon.io -->
<svg version="1.1" xmlns="http://www.w3.org/2000/svg" width="32" height="32" viewBox="0 0 32 32">
<path fill="#111" d="M25.375 6.438c-0.75 0-1.375-0.25-1.875-0.75-0.563-0.5-0.813-1.125-0.813-1.875s0.25-1.313 0.813-1.813c0.5-0.5 1.125-0.75 1.875-0.75s1.375 0.25 1.875 0.75c0.563 0.5 0.813 1.063 0.813 1.813s-0.25 1.375-0.813 1.875c-0.5 0.5-1.125 0.75-1.875 0.75zM29.75 15.563l-5.25-4.75-5.688 2.688 3.813 3.375c0.375 0.313 0.5 0.688 0.5 1.188v0.125l-0.875 6.938c-0.125 0.688-0.5 1.125-1.125 1.375l5.563 2.063c0.5 0.188 1 0.188 1.5-0.063 0.438-0.25 0.813-0.313 1.25-0.188s0.813 0.375 1.063 0.75c0.25 0.375 0.25 0.813 0.125 1.25s-0.375 0.813-0.813 1c-1.375 0.75-2.813 0.875-4.313 0.375l-22.438-8.438c-1.5-0.563-2.5-1.563-3-3.063-0.125-0.438-0.063-0.875 0.125-1.313 0.188-0.375 0.5-0.688 0.938-0.813 0.438-0.188 0.875-0.125 1.25 0.063 0.438 0.188 0.688 0.5 0.875 1s0.5 0.813 1.063 1.063l2.563 0.938c-0.25-0.313-0.313-0.625-0.313-1 0-0.625 0.313-1.125 0.938-1.438l4.813-2.125-0.063-4.688c0.188-0.813 0.625-1.5 1.438-1.875l5.125-2.625-3.125-1.25c-0.188-0.063-0.313-0.188-0.438-0.313l-2.75-3.875c-0.188-0.313-0.25-0.563-0.188-0.813 0.063-0.375 0.188-0.688 0.438-0.875 0.313-0.188 0.625-0.25 1-0.25 0.375 0.063 0.625 0.188 0.875 0.5l2.625 3.813 5.938 2c0.313 0.125 0.563 0.375 0.813 0.625l7.5 6.813c0.313 0.25 0.5 0.563 0.5 0.938 0 0.313-0.125 0.625-0.375 0.875s-0.563 0.313-0.938 0.313c-0.313 0-0.688-0.063-0.938-0.313zM19.688 18.625l-4.063-3.625v2.938c-0.063 0.5-0.375 0.875-0.813 1.063l-5.875 2.688c-0.125 0.063-0.25 0.063-0.375 0.063l10.625 4c-0.188-0.25-0.25-0.563-0.25-0.875v-0.125z"></path>
</svg>
