<!-- Generated by IcoMoon.io -->
<svg version="1.1" xmlns="http://www.w3.org/2000/svg" width="32" height="32" viewBox="0 0 32 32">
<path fill="#111" d="M9.859 10.251l-2.166 0.167c-0.603 0.046-1.14 0.362-1.473 0.866l-2.498 3.778c-0.253 0.382-0.293 0.861-0.107 1.28s0.566 0.711 1.020 0.781l1.983 0.307c0.464-2.462 1.574-4.918 3.241-7.18z"></path>
<path fill="#111" d="M14.568 25.382l0.307 1.983c0.070 0.453 0.362 0.834 0.781 1.020 0.174 0.077 0.359 0.115 0.543 0.115 0.258 0 0.514-0.075 0.737-0.223l3.778-2.498c0.504-0.334 0.82-0.87 0.866-1.473l0.167-2.166c-2.263 1.667-4.718 2.778-7.181 3.241z"></path>
<path fill="#111" d="M13.823 24.008c0.069 0 0.138-0.006 0.207-0.017 1.031-0.173 2.026-0.463 2.974-0.843l-8.151-8.151c-0.38 0.948-0.671 1.942-0.843 2.974-0.068 0.407 0.068 0.821 0.36 1.112l4.548 4.548c0.242 0.242 0.569 0.377 0.905 0.377z"></path>
<path fill="#111" d="M26.507 14.584c1.995-3.856 2.068-7.931 1.964-9.842-0.036-0.655-0.558-1.177-1.213-1.213-0.311-0.017-0.68-0.029-1.096-0.029-2.137 0-5.518 0.324-8.746 1.993-2.565 1.327-5.93 4.249-7.914 8.089 0.023 0.018 0.046 0.038 0.068 0.059l8.789 8.789c0.021 0.021 0.041 0.045 0.059 0.068 3.84-1.985 6.762-5.349 8.089-7.914zM18.036 8.785c1.428-1.428 3.751-1.428 5.179 0 0.692 0.691 1.073 1.611 1.073 2.59s-0.381 1.898-1.073 2.59c-0.714 0.714-1.652 1.071-2.59 1.071s-1.876-0.357-2.59-1.071c-0.692-0.691-1.073-1.611-1.073-2.59s0.381-1.898 1.073-2.59z"></path>
<path fill="#111" d="M19.072 12.928c0.857 0.857 2.251 0.857 3.107 0 0.415-0.415 0.643-0.967 0.643-1.554s-0.229-1.139-0.643-1.554c-0.428-0.428-0.991-0.643-1.554-0.643s-1.125 0.214-1.554 0.643c-0.415 0.415-0.644 0.967-0.644 1.554s0.229 1.139 0.643 1.554z"></path>
<path fill="#111" d="M4.247 24.102c0.187 0 0.375-0.071 0.518-0.215l2.391-2.391c0.286-0.286 0.286-0.75 0-1.036s-0.75-0.286-1.036 0l-2.391 2.391c-0.286 0.286-0.286 0.75 0 1.036 0.143 0.143 0.33 0.215 0.518 0.215z"></path>
<path fill="#111" d="M9.348 22.652c-0.286-0.286-0.75-0.286-1.036 0l-4.598 4.598c-0.286 0.286-0.286 0.75 0 1.036 0.143 0.143 0.33 0.215 0.518 0.215s0.375-0.071 0.518-0.215l4.597-4.597c0.286-0.286 0.286-0.75 0-1.036z"></path>
<path fill="#111" d="M10.504 24.844l-2.391 2.391c-0.286 0.286-0.286 0.75 0 1.036 0.143 0.143 0.33 0.215 0.518 0.215s0.375-0.071 0.518-0.215l2.391-2.391c0.286-0.286 0.286-0.75 0-1.036s-0.75-0.286-1.036 0z"></path>
</svg>
