<!-- Generated by IcoMoon.io -->
<svg version="1.1" xmlns="http://www.w3.org/2000/svg" width="32" height="32" viewBox="0 0 32 32">
<path fill="#111" d="M30.307 27.348h-28.614c-0.273 0-0.493 0.221-0.493 0.493s0.22 0.493 0.493 0.493h28.613c0.273 0 0.493-0.221 0.493-0.493s-0.22-0.493-0.493-0.493z"></path>
<path fill="#111" d="M28.827 22.908h-17.267c-0.272 0-0.493-0.221-0.493-0.493v-6.413c0-0.272-0.221-0.493-0.493-0.493h-5.92c-0.272 0-0.493 0.221-0.493 0.493v1.48c0 0.226 0.154 0.424 0.373 0.479l1.6 0.4v4.548h-2.467c-0.272 0-0.493 0.221-0.493 0.493v1.48c0 0.272 0.221 0.493 0.493 0.493h2.467c0 1.088 0.885 1.973 1.973 1.973s1.973-0.885 1.973-1.973h1.48c0 1.088 0.885 1.973 1.973 1.973s1.973-0.885 1.973-1.973h1.48c0 1.088 0.885 1.973 1.973 1.973s1.973-0.885 1.973-1.973h1.48c0 1.088 0.885 1.973 1.973 1.973s1.973-0.885 1.973-1.973h2.467c0.272 0 0.493-0.221 0.493-0.493v-1.48c0-0.272-0.221-0.493-0.493-0.493z"></path>
<path fill="#111" d="M27.347 16.988h-2.467v-0.987c0-0.648-0.421-1.194-1.003-1.394 0.030-0.093 0.062-0.185 0.076-0.287 0.072-0.534-0.1-1.051-0.456-1.427 0.149-0.506 0.137-1.145-0.215-1.652-0.171-0.246-0.534-0.606-1.229-0.68 0.080-0.794-0.229-1.563-0.876-2.112-0.795-0.673-1.877-0.865-2.852-0.547-0.091-0.221-0.225-0.401-0.401-0.538-0.213-0.166-0.47-0.261-0.778-0.287 0.117-0.766-0.049-1.521-0.487-2.144-0.584-0.831-1.543-1.3-2.633-1.266-1.17 0-2.335 0.633-2.9 1.576-0.405 0.678-0.465 1.451-0.179 2.214-1.178 0.983-1.301 2.301-0.865 3.234 0.445 0.952 1.56 1.717 3.115 1.453 0.203 0.405 0.587 0.776 1.079 1.023 0.681 0.34 1.451 0.396 2.177 0.172 0.074 0.462 0.306 0.795 0.532 1.019 0.877 0.87 2.531 0.974 3.807 0.704 0.326 0.255 0.758 0.424 1.206 0.487-0.047 0.143-0.078 0.294-0.078 0.452v0.987h-2.575c-0.265-0.58-0.99-0.987-1.865-0.987s-1.6 0.406-1.865 0.987h-3.069c-0.272 0-0.493 0.221-0.493 0.493v4.44h15.293c0.844 0 1.48-1.060 1.48-2.467s-0.636-2.467-1.48-2.467z"></path>
</svg>
