<!-- Generated by IcoMoon.io -->
<svg version="1.1" xmlns="http://www.w3.org/2000/svg" width="32" height="32" viewBox="0 0 32 32">
<path fill="#111" d="M23.615 12.973h-6.054c-1.217 0-2.365 0.313-3.368 0.861v-0.006l-5.736 3.112-0.526-1.578c-0.275-0.824-1.046-1.38-1.914-1.38h-3.086c-0.344 0-0.588 0.337-0.479 0.664l1.46 4.381h5.576v1.009h-7.158c-0.555 0-1.009 0.454-1.009 1.009s0.454 1.009 1.009 1.009h1.245l-1.124 3.372c-0.109 0.327 0.134 0.664 0.479 0.664h3.086c0.869 0 1.64-0.556 1.914-1.38l0.526-1.578 5.736 3.112v-0.006c1.003 0.548 2.151 0.861 3.368 0.861h6.054c3.885 0 7.063-3.178 7.063-7.063s-3.178-7.063-7.063-7.063zM15.291 21.549c-0.836 0-1.513-0.678-1.513-1.513s0.678-1.513 1.513-1.513c0.836 0 1.513 0.678 1.513 1.513s-0.678 1.513-1.513 1.513zM20.588 21.549c-0.836 0-1.513-0.678-1.513-1.513s0.678-1.513 1.513-1.513 1.513 0.678 1.513 1.513-0.678 1.513-1.513 1.513zM25.885 21.549c-0.836 0-1.513-0.678-1.513-1.513s0.678-1.513 1.513-1.513 1.513 0.678 1.513 1.513-0.678 1.513-1.513 1.513z"></path>
<path fill="#111" d="M24.62 4.901c-0.555 0-1.005 0.45-1.005 1.005l-1.009 0.004c-1.669 0-3.027 1.358-3.027 3.027v1.009h-2.018v2.018h6.054v-2.018h-2.018v-1.009c0-0.556 0.452-1.009 1.009-1.009h1.009c0 0.556 0.451 1.009 1.007 1.009h1.011v-4.036h-1.012z"></path>
</svg>
