<!-- Generated by IcoMoon.io -->
<svg version="1.1" xmlns="http://www.w3.org/2000/svg" width="32" height="32" viewBox="0 0 32 32">
<path fill="#111" d="M20.927 3.64h-0.485v-1.426c0-0.348-0.282-0.631-0.631-0.631h-7.624c-0.348 0-0.631 0.282-0.631 0.631v1.426h-0.485c-3.482 0-6.306 2.824-6.306 6.306v12.918c0 1.614 1.304 2.918 2.918 2.918h0.885l-1.289 2.607c-0.461 0.937 0.221 2.028 1.261 2.028 0.536 0 1.021-0.301 1.261-0.781l0.014-0.033h12.362l0.019 0.033c0.235 0.48 0.725 0.781 1.261 0.781 0.814 0 1.402-0.668 1.402-1.402 0-0.207-0.047-0.419-0.146-0.626l-1.289-2.607h0.889c1.609 0 2.918-1.304 2.918-2.918v-12.918c0-3.482-2.823-6.306-6.306-6.306zM6.871 14.402v-4.456c0-2.32 1.882-4.198 4.198-4.198h2.744c0.555 0 1.007 0.452 1.007 1.007v7.647c0 0.555-0.452 1.007-1.007 1.007h-5.934c-0.555 0-1.007-0.452-1.007-1.007zM17.689 19.908v1.831h-3.379v-1.831zM7.581 20.704c0-1.369 1.111-2.475 2.475-2.475s2.475 1.106 2.475 2.475c0 1.365-1.111 2.471-2.475 2.471s-2.475-1.106-2.475-2.471zM10.282 28.661l0.466-0.941h10.499l0.471 0.941zM20.781 26.779h-9.567l0.494-0.998h8.584zM21.944 23.174c-1.369 0-2.475-1.106-2.475-2.471 0-1.369 1.106-2.475 2.475-2.475 1.365 0 2.471 1.106 2.471 2.475 0 1.365-1.106 2.471-2.471 2.471zM25.125 14.402c0 0.555-0.452 1.007-1.007 1.007h-5.929c-0.555 0-1.007-0.452-1.007-1.007v-7.647c0-0.555 0.452-1.007 1.007-1.007h2.739c2.32 0 4.198 1.878 4.198 4.198z"></path>
</svg>
