<!-- Generated by IcoMoon.io -->
<svg version="1.1" xmlns="http://www.w3.org/2000/svg" width="32" height="32" viewBox="0 0 32 32">
<path fill="#111" d="M0.188 28.938c0.563-0.375 1.188-0.563 1.938-0.5 1 0 2 0 3.063 0-0.125-1.313 0.5-2.375 0.875-3.5 0.625-1.938 1.25-3.813 1.875-5.75 0.063-0.188 0.188-0.313 0.313-0.5 0.75 0.875 1.5 1.75 2.25 2.688 0.063 0.063 0.125 0.125 0.063 0.313-0.688 2-1.375 4.063-2.063 6.063-0.063 0.188-0.063 0.375-0.063 0.625 1.563 0 3.125 0 4.75 0-0.063-0.125-0.188-0.188-0.188-0.25 0-2 0-4 0-6.063-0.5-0.438-0.938-0.813-1.375-1.313-0.875-1-1.875-1.938-2.688-3-0.375-0.5-0.625-1.063-0.375-1.875 0.625-2.188 1.375-4.313 2.125-6.438 0.125-0.313 0.188-0.625 0.25-0.938 0.25-0.688 0.875-0.938 1.438-1.063 1.313-0.125 2.563 0.063 3.563 1.063 1 1.063 2.063 2.063 3.313 2.813 0.938 0.625 2 1.063 2.938 1.625 0.125 0.063 0.25 0.125 0.438 0.25 0.375-2 0.688-3.938 1.063-6.063-0.25 0.125-0.438 0.188-0.563 0.25-1.188 0.563-2.375 1.188-3.563 1.75-0.375 0.188-0.813 0.25-1.188 0.375-0.688-0.688-1.313-1.375-1.938-2 0-0.063 0-0.125 0-0.188 0.75-0.25 1.5-0.5 2.25-0.75 1.313-0.438 2.5-1.188 3.75-1.75 0.5-0.25 1-0.375 1.375-0.688 0.438-0.313 0.875-0.188 1.313-0.188 0.25 0.063 0.5 0.313 0.813 0.563 0 0.375 0 0.75 0 1.063-0.063 0.188-0.188 0.5-0.313 0.5-0.688 0.063-0.25 0.875-0.688 1.063-0.063 0.813-0.125 1.563-0.25 2.313-0.063 0.313-0.188 0.563-0.25 0.875s-0.063 0.625-0.125 0.938c-0.188 0.625-0.25 1.313-0.375 2 0 0.188 0.188 0.438 0.313 0.625 0.25 0.313 0.5 0.688 0.75 1-0.375 0.625-0.563 1.375-1.438 1.313-0.125 0.313-0.313 0.688-0.375 1-0.063 0.5-0.063 1-0.188 1.5-0.25 0.75-0.188 1.5-0.313 2.313-0.063 0.25-0.188 0.563-0.25 0.875s0.125 0.688-0.25 0.875c0.063 0.688-0.125 1.375-0.25 2.063-0.063 0.313 0 0.625-0.188 1-0.313 0.5 0.125 1.063 0.313 1.625 0.125 0.313 0.313 0.563 0.5 1 1.813 0 3.75 0 5.625 0 0.875 0 1.75 0 2.625 0 0.313 0 0.563 0.125 0.813 0.188 0.5 0.188 0.563 0.5 0.563 0.938 0 0.25 0 0.5 0 0.75-0.5 0.625-1.125 0.813-1.875 0.875-0.375 0.063-0.75 0.188-1.188 0.25-0.375 0.063-0.813-0.125-1.125 0.25 0 0-0.063 0-0.125 0-1.188 0.063-2.375 0.125-3.5 0.25-4.625 0.5-9.188 0.125-13.813 0.25-0.625 0.063-1.25-0.313-1.875-0.25-0.688 0-1.375 0.125-2-0.063s-1.188-0.063-1.75-0.188c-1.25-0.25-2.5-0.25-3.688-0.75-0.563 0.188-0.688-0.438-1.063-0.5 0-0.5 0-1 0-1.5zM16.188 28.375c0.188 0.063 0.313 0.063 0.438 0.063 0.75 0 1.5-0.063 2.25-0.063 0.375-0.563 0.813-1.125 1.188-1.75 0.188-0.25 0.313-0.625 0.375-0.938 0.25-1.063 0.5-2.125 0.5-3.188 0.375-0.5 0.125-1.188 0.313-1.75 0.25-0.625 0.313-1.313 0.375-1.938 0.063-0.438 0.188-0.813 0.313-1.25 0.063-0.438-0.125-0.875 0.25-1.313 0.188-0.25-0.063-0.625-0.375-0.813-0.5-0.25-0.938-0.563-1.438-0.688-1.5-0.438-2.75-1.25-3.813-2.313-0.375-0.313-0.813-0.563-1.25-0.813-0.5 1.5-0.938 2.875-1.438 4.25-0.375 0.813-0.75 1.563 0 2.375 0.563 0.563 1 1.188 1.5 1.75 0.5 0.625 0.875 1.188 0.813 2.063-0.063 2.063 0 4.188 0 6.313zM16.688 0.188c0.438 0.5 1.063 0.75 1.5 1.313 0.625 0.813 0.625 1.75 0.375 2.625-0.5 1.813-2.313 2.563-3.563 2.25-0.813-0.188-1.625-0.625-2.063-1.438-0.938-1.563-0.563-2.625 0.25-3.813 0.313-0.375 0.813-0.625 1.25-0.938 0.75 0 1.5 0 2.25 0z"></path>
</svg>
