<!-- Generated by IcoMoon.io -->
<svg version="1.1" xmlns="http://www.w3.org/2000/svg" width="32" height="32" viewBox="0 0 32 32">
<path fill="#111" d="M16.938 7.125c-1.25 0.25-2.5-0.625-2.75-1.938-0.25-1.25 0.625-2.5 1.938-2.75 1.313-0.188 2.563 0.625 2.75 1.938 0.25 1.313-0.625 2.563-1.938 2.75zM27.5 23.5c0.063 0.563-1.438 1.25-3.875 1.813-1.5-0.813-3.5-0.688-4.938 0.313-1.563-1.125-3.813-1.125-5.375 0-0.813-0.563-1.75-0.875-2.75-0.875v0c-1 0-1.938 0.313-2.688 0.875-1.188-0.875-2.75-1.063-4.125-0.625 0.875-0.625 2.938-1.25 5.688-1.688l-1.375-4.25c-0.25-0.75 0.125-1.625 0.875-1.938l2.938-1.313 1.063-5.813-2.875 0.375-3.063 2.563c-0.25 0.188-0.438 0.25-0.688 0.25-0.313 0-0.625-0.125-0.813-0.375-0.375-0.438-0.313-1.125 0.125-1.5l3.313-2.75c0.125-0.125 0.313-0.188 0.5-0.25l5.125-0.688c0.188 0 0.313 0 0.438 0l2.563 0.438 3.188-1.125 1.875-3.25c0.313-0.5 1-0.688 1.5-0.375s0.625 0.938 0.375 1.438l-2.125 3.625c-0.125 0.25-0.375 0.375-0.625 0.5l-4.563 1.5-0.813 4.5 2.688-0.375c0.5-0.063 0.938 0.125 1.313 0.438 0.313 0.25 0.5 0.75 0.5 1.188l-0.063 6.188c3.938 0 6.625 0.438 6.688 1.188zM17.625 22.375l0.063-4.438-4 0.5-2.125 1 1.063 3.375c0.875-0.125 1.75-0.188 2.625-0.25 0.813-0.063 1.625-0.125 2.375-0.188zM31.688 27.188c0.438 0.438 0.438 1.125 0 1.5-1.188 1.188-3.063 1.188-4.25 0-0.313-0.313-0.875-0.313-1.188 0-1.125 1.125-3.063 1.125-4.188 0-0.375-0.313-0.938-0.313-1.25 0-1.125 1.125-3.125 1.125-4.188 0-0.313-0.313-0.938-0.313-1.25 0-0.563 0.563-1.313 0.875-2.063 0.875-0.813 0-1.563-0.313-2.125-0.875h-0.063c-0.125-0.125-0.313-0.25-0.563-0.25v0c-0.25 0-0.438 0.125-0.625 0.25-1.125 1.125-3.063 1.125-4.188 0-0.313-0.313-0.875-0.313-1.188 0-1.188 1.188-3.063 1.188-4.25 0-0.438-0.375-0.438-1.063 0-1.5 0.438-0.375 1.063-0.375 1.5 0 0.313 0.375 0.875 0.375 1.188 0 1.125-1.125 3.125-1.125 4.25 0 0.313 0.375 0.875 0.375 1.188 0 0.563-0.563 1.313-0.875 2.125-0.875v0c0.813 0 1.563 0.313 2.125 0.875v0.063c0.313 0.313 0.875 0.25 1.188-0.063 1.125-1.125 3.125-1.125 4.25 0 0.313 0.313 0.875 0.313 1.188 0 1.125-1.125 3.125-1.125 4.25 0 0.313 0.313 0.875 0.313 1.188 0 1.125-1.125 3.063-1.125 4.25 0 0.313 0.375 0.875 0.375 1.188 0 0.438-0.375 1.063-0.375 1.5 0z"></path>
</svg>
