<!-- Generated by IcoMoon.io -->
<svg version="1.1" xmlns="http://www.w3.org/2000/svg" width="32" height="32" viewBox="0 0 32 32">
<path fill="#111" d="M31.813 20.438c0-0.563 0-1.188 0-1.75-0.5-0.25-1-0.438-1.563-0.688 0 0 0-0.125 0-0.25-0.125-2.375-1.625-3.875-4-3.875-1 0-2.063 0.063-3.063 0-0.313-0.063-0.688-0.25-0.875-0.5-0.688-0.813-1.313-1.75-1.875-2.625-0.75-1.063-1.438-2.125-2.938-1.813-0.375-1.125-0.438-1.188-1.5-1.625-3.063 0-6.188 0-9.25 0-0.75 0.313-1.313 0.75-1.375 1.625-0.188 0-0.313 0-0.438 0-1.563 0-2.188 0.625-2.25 2.188 0 1.063 0 2.125 0 3.125 0 1.313 0 2.625 0 3.938-0.188 0-0.375 0.063-0.5 0.063-0.75-0.063-1 0.313-1 1 0 1.625 0 1.625 1.625 1.625 0.063 0 0.188 0 0.313 0 0.5 0.063 0.75-0.063 0.938-0.625 0.563-1.875 2.25-3.063 4.188-3 1.813 0 3.5 1.188 4.063 3 0.063 0.188 0.188 0.438 0.25 0.625 2.813 0 5.563 0 8.313 0 0.063-0.125 0.063-0.188 0.063-0.188 0.75-2.25 2.25-3.438 4.188-3.438 2.063-0.063 3.5 1.063 4.313 3.25 0.063 0.125 0.125 0.313 0.25 0.375 0.438 0.188 1.75-0.063 2.125-0.438zM8.75 10.25c1.063 0 2.125 0 3.188 0 1.188 0 1.188 0 1.188 1.188 0 0.563 0 1.063 0 1.625 0.063 0.625-0.25 0.813-0.813 0.813-2.438 0-4.813 0-7.25 0-0.625 0-0.875-0.25-0.875-0.875 0-0.563 0.063-1.188 0-1.813 0-0.75 0.313-1 1-1 1.188 0.063 2.375 0.063 3.563 0.063zM20.688 13.625c-0.063 0.063-0.125 0.188-0.188 0.25-1.813 0-3.688 0-5.5-0.063-0.188 0-0.5-0.375-0.5-0.625-0.063-0.75 0-1.438 0-2.188-0.063-0.563 0.25-0.813 0.813-0.75 0.813 0 1.563-0.063 2.375 0 0.25 0 0.563 0 0.688 0.188 0.813 1.063 1.563 2.125 2.313 3.188zM6.25 8.875c0-0.125-0.063-0.188-0.063-0.313 0.313-0.125 0.688-0.375 1-0.375 1.125-0.063 2.188-0.063 3.25 0 0.625 0 0.625 0 0.5 0.688-1.563 0-3.125 0-4.688 0zM11.875 8.875c-0.063-0.063-0.125-0.125-0.188-0.188 0.188-0.188 0.375-0.5 0.625-0.5 1.125-0.063 2.313-0.063 3.5 0 0.313 0 0.563 0.313 0.875 0.5-0.063 0.063-0.063 0.125-0.125 0.188-1.563 0-3.125 0-4.688 0zM14.438 15.313c0.438-0.313 0.625-0.563 0.875-0.563 0.5 0 1.063 0.125 1.625 0.188 0.125 0.063 0.25 0.25 0.438 0.375-0.188 0.125-0.313 0.313-0.438 0.313-0.563 0.063-1.125 0.188-1.625 0.188-0.25-0.063-0.438-0.25-0.875-0.5zM25.25 18.313c-1.813 0-3.313 1.5-3.313 3.313 0 1.75 1.5 3.25 3.313 3.25 1.75 0 3.25-1.438 3.25-3.25 0-1.875-1.438-3.25-3.25-3.313zM23.688 21.563c0-0.875 0.688-1.563 1.563-1.563 0.875 0.063 1.563 0.75 1.563 1.625s-0.75 1.563-1.625 1.563c-0.875-0.063-1.563-0.75-1.5-1.625zM8.188 18.313c-1.813 0-3.25 1.375-3.25 3.188 0 1.875 1.438 3.375 3.25 3.375 1.75 0 3.313-1.5 3.313-3.313-0.063-1.75-1.5-3.188-3.313-3.25zM8.25 23.188c-0.875 0-1.625-0.688-1.625-1.563-0.063-0.813 0.688-1.563 1.5-1.625 0.875 0 1.625 0.688 1.625 1.563 0.063 0.875-0.688 1.563-1.5 1.625zM-0.063 14.625c0 0.688 0 1.438 0 2.125 0 0.75 0.375 1.125 1.125 1.125 0.688 0 1.125-0.375 1.125-1.063 0-1.5 0-3 0-4.5 0-0.688-0.438-1-1.125-1-0.75 0-1.125 0.375-1.125 1.063 0 0.75 0 1.5 0 2.25z"></path>
</svg>
