<!-- Generated by IcoMoon.io -->
<svg version="1.1" xmlns="http://www.w3.org/2000/svg" width="32" height="32" viewBox="0 0 32 32">
<path fill="#111" d="M19.688 13.25c0-2.875 2.313-5.188 5.188-5.188s5.188 2.313 5.188 5.188c0 2.875-2.313 5.25-5.188 5.25s-5.188-2.375-5.188-5.25zM13.688 14.25l-3.313-2.438-7.375 1.438 0.875-4.125 7.125-2 6.188 4.625 4.563 7.688c-0.25 0.188-0.5 0.375-0.688 0.5-0.375 0.375-0.563 0.5-1 0.5s-0.563-0.125-1-0.5c-0.563-0.438-1.438-1.125-3-1.125s-2.438 0.688-3 1.125c-0.375 0.375-0.563 0.5-1 0.5s-0.563-0.125-1-0.5c-0.563-0.438-1.438-1.125-3-1.125-0.313 0-0.625 0.063-0.938 0.125zM29 21.25c0.563-0.5 1.438-1.188 3-1.188v3.25c-0.438 0-0.563 0.063-1 0.438-0.563 0.438-1.438 1.125-3 1.125s-2.438-0.688-3-1.125c-0.438-0.375-0.563-0.438-1-0.438s-0.563 0.063-1 0.438-1.438 1.125-3 1.125c-1.563 0-2.438-0.688-3-1.125-0.438-0.375-0.563-0.438-1-0.438s-0.563 0.063-1 0.438-1.438 1.125-3 1.125c-1.563 0-2.438-0.688-3-1.125-0.438-0.375-0.563-0.438-1-0.438s-0.563 0.063-1 0.438-1.438 1.125-3 1.125c-1.563 0-2.438-0.688-3-1.125-0.438-0.375-0.563-0.438-1-0.438v-3.25c1.563 0 2.438 0.688 3 1.188 0.438 0.313 0.563 0.438 1 0.438s0.563-0.125 1-0.438c0.563-0.5 1.438-1.188 3-1.188s2.438 0.688 3 1.188c0.438 0.313 0.563 0.438 1 0.438s0.563-0.125 1-0.438c0.563-0.5 1.438-1.188 3-1.188s2.438 0.688 3 1.188c0.438 0.313 0.563 0.438 1 0.438s0.563-0.125 1-0.438c0.563-0.5 1.438-1.188 3-1.188s2.438 0.688 3 1.188c0.438 0.313 0.563 0.438 1 0.438s0.563-0.125 1-0.438z"></path>
</svg>
