<!-- Generated by IcoMoon.io -->
<svg version="1.1" xmlns="http://www.w3.org/2000/svg" width="32" height="32" viewBox="0 0 32 32">
<path fill="#111" d="M22.628 7.364c0 1.056-0.856 1.913-1.913 1.913s-1.913-0.856-1.913-1.913c0-1.056 0.856-1.913 1.913-1.913s1.913 0.856 1.913 1.913z"></path>
<path fill="#111" d="M14.346 7.364c0 1.056-0.856 1.913-1.913 1.913s-1.913-0.856-1.913-1.913c0-1.056 0.856-1.913 1.913-1.913s1.913 0.856 1.913 1.913z"></path>
<path fill="#111" d="M26.345 19.222c-0.162 0-0.32 0.012-0.476 0.032l-0.875-2.633c-0.409 0.471-1.054 0.701-1.695 0.555l-0.901-0.205c0.168 0.345 0.225 0.729 0.166 1.104l1.388-0.159 0.030 0.085-1.832 1.524-0.715 2.398 3.024-2.516 0.094 0.284c-1.116 0.628-1.872 1.824-1.872 3.194 0 2.020 1.643 3.663 3.663 3.663s3.663-1.643 3.663-3.663c0-2.020-1.643-3.663-3.663-3.663zM26.345 25.162c-1.256 0-2.277-1.021-2.277-2.277 0-0.754 0.369-1.424 0.936-1.838l0.683 2.057c0.097 0.291 0.367 0.475 0.658 0.475 0.072 0 0.146-0.011 0.219-0.035 0.363-0.121 0.56-0.513 0.439-0.876l-0.684-2.058c0.009-0 0.017-0.001 0.026-0.001 1.256 0 2.277 1.021 2.277 2.277s-1.021 2.277-2.277 2.277z"></path>
<path fill="#111" d="M17.745 21.199l0.628-2.105-0.098-0.237c-0.488-0.187-1.942-0.746-2.507-0.962l-0.011-0.001c-0.331-0.143-0.689-0.347-0.927-0.62-0.051-0.059-0.093-0.115-0.126-0.169-0.264-0.060-0.104-0.024-0.586-0.134 0.168 0.345 0.225 0.729 0.166 1.104l1.407-0.161-2.178 4.278h-0.439l-0.366 1.228c-0.016 0.054-0.035 0.106-0.056 0.158 1.039 0 3.82 0 4.806 0-0.026-0.065-0.048-0.13-0.067-0.197-0.089-0.322-0.090-0.663 0.001-0.992 0.004-0.013 0.007-0.026 0.011-0.039l0.047-0.158c-1.291 0-1.545 0-2.381 0l1.703-3.345 0.975 2.351z"></path>
<path fill="#111" d="M25.398 15.229l0.487-0.101c0.375-0.078 0.615-0.445 0.537-0.82s-0.445-0.615-0.82-0.537l-1.047 0.218c0.455 0.264 0.764 0.724 0.842 1.241z"></path>
<path fill="#111" d="M21.088 16.818c-1.078-0.414-0.789-0.326-1.435-0.473-0.602-0.137-0.915-0.544-0.964-1.013l-0.351-3.369 1.161 3.061c0.103 0.271 0.335 0.473 0.618 0.537l3.375 0.769c0.467 0.106 0.931-0.186 1.037-0.652s-0.186-0.931-0.652-1.037l-2.922-0.666-0.996-2.627 1.045 1.46 0.296-0.775c0.255-0.667-0.080-1.413-0.746-1.668l-2.152-0.822c-0.667-0.255-1.413 0.080-1.668 0.746l-1.307 3.424 0.362 0.082c0.933 0.213 1.517 1.142 1.305 2.075-0.003 0.015-0.008 0.031-0.012 0.046-0.144 0.561-0.548 0.99-1.053 1.186 1.114 0.428 3.416 1.311 3.416 1.311l-1.245 4.174c-0.164 0.55 0.149 1.129 0.699 1.294s1.129-0.149 1.294-0.699l1.52-5.097c0.155-0.521-0.116-1.073-0.624-1.268z"></path>
<path fill="#111" d="M9.463 21.199l0.628-2.105-0.098-0.237c-0.463-0.178-1.93-0.741-2.564-0.984l-0.76 1.493c-0.322-0.093-0.662-0.144-1.014-0.144-2.020 0-3.663 1.643-3.663 3.663s1.643 3.663 3.663 3.663c1.741 0 3.201-1.221 3.571-2.852-0.348-0.721-0.122-1.296-0.011-1.669-0.197-0.818-0.669-1.529-1.312-2.031l0.585-1.149 0.975 2.351zM7.256 21.268c0.258 0.255 0.454 0.571 0.568 0.924h-1.038l0.47-0.924zM5.655 25.162c-1.256 0-2.277-1.021-2.277-2.277s1.021-2.277 2.277-2.277c0.125 0 0.247 0.011 0.366 0.030l-0.984 1.933c-0.109 0.215-0.099 0.471 0.027 0.677s0.35 0.331 0.591 0.331h2.169c-0.294 0.918-1.155 1.584-2.169 1.584z"></path>
<path fill="#111" d="M12.806 16.818c-1.078-0.414-0.789-0.326-1.435-0.473-0.601-0.137-0.915-0.544-0.964-1.013l-0.351-3.368 1.161 3.061c0.103 0.271 0.335 0.473 0.618 0.537l3.375 0.769c0.467 0.106 0.931-0.186 1.037-0.652s-0.186-0.931-0.652-1.037l-2.922-0.666-0.996-2.627 1.045 1.46 0.296-0.775c0.255-0.667-0.080-1.413-0.746-1.668l-2.152-0.822c-0.667-0.255-1.413 0.080-1.668 0.746-1.703 4.461-1.631 4.227-1.683 4.523-0.065 0.377-0.031 0.756 0.088 1.104h-0.109c-0.382 0-0.693 0.312-0.693 0.693 0 0.346 0.253 0.632 0.585 0.684 0.082 0.013-0.029 0.009 1.599 0.009l2.924 1.111-1.245 4.174c-0.164 0.55 0.149 1.129 0.699 1.294s1.129-0.149 1.294-0.699l1.52-5.097c0.155-0.521-0.117-1.073-0.624-1.268z"></path>
</svg>
