<!-- Generated by IcoMoon.io -->
<svg version="1.1" xmlns="http://www.w3.org/2000/svg" width="32" height="32" viewBox="0 0 32 32">
<path fill="#111" d="M12 8c-1.473 0-2.667 1.193-2.667 2.667v2.667h12l-0.667-1.333h7.333v-2.667h-8.708c-0.476-0.815-1.34-1.333-2.292-1.333h-5zM6.667 14.667c-1.333 0-3.208 2.125-3.208 2.125-0.812 0.813-1.015 2.055-0.5 3.083l3.208 3.958c0.764 0.956 1.944 1.5 3.167 1.5h13.333c1.223 0 2.446-0.543 3.208-1.5l3.208-3.958c0.515-1.028 0.312-2.271-0.5-3.083 0 0-1.917-2.125-3.25-2.125h-18.667zM5.375 18.667h21.292l-2.875 3.5c-0.256 0.319-0.717 0.5-1.125 0.5h-13.333c-0.408 0-0.829-0.181-1.083-0.5l-2.875-3.5zM22.667 18.667c-0.736 0-1.333 0.597-1.333 1.333s0.597 1.333 1.333 1.333c0.736 0 1.333-0.597 1.333-1.333s-0.597-1.333-1.333-1.333zM18.667 18.667c-0.736 0-1.333 0.597-1.333 1.333s0.597 1.333 1.333 1.333c0.736 0 1.333-0.597 1.333-1.333s-0.597-1.333-1.333-1.333zM13.333 18.667c-0.736 0-1.333 0.597-1.333 1.333s0.597 1.333 1.333 1.333c0.736 0 1.333-0.597 1.333-1.333s-0.597-1.333-1.333-1.333zM9.333 18.667c-0.736 0-1.333 0.597-1.333 1.333s0.597 1.333 1.333 1.333c0.736 0 1.333-0.597 1.333-1.333s-0.597-1.333-1.333-1.333z"></path>
</svg>
