<!-- Generated by IcoMoon.io -->
<svg version="1.1" xmlns="http://www.w3.org/2000/svg" width="32" height="32" viewBox="0 0 32 32">
<path fill="#111" d="M14.405 6.612c0.535-0.53 1.395-0.278 2.064-0.349 0.58-0.075 1.236 0.238 1.451 0.797 0.112 0.415 0.083 0.856 0.133 1.281 1.426-0.006 2.938 0.173 4.136 1.015 1.073 0.75 1.811 1.905 2.177 3.15 0.235 0.634 0.215 1.36 0.61 1.931 0.992 0.562 2.22 0.401 3.213 0.961 0.654 0.344 1.133 0.993 1.275 1.718 0.221 1.264 0.357 2.546 0.399 3.829 0.032 0.547-0.113 1.14-0.512 1.536-0.436 0.545-1.17 0.689-1.816 0.816-0.012-0.898 0-1.873-0.506-2.658-0.839-1.552-2.832-2.299-4.495-1.741-1.092 0.4-2.054 1.272-2.398 2.403-0.253 0.61-0.164 1.284-0.168 1.927-2.642 0.049-5.285 0.038-7.928 0.008 0.008-0.711 0.099-1.458-0.23-2.119-0.657-1.843-2.873-2.849-4.708-2.22-0.865 0.333-1.684 0.903-2.12 1.741-0.512 0.781-0.461 1.756-0.495 2.65-0.745-0.113-1.584-0.322-2.005-1.016-0.545-0.795-0.289-1.803-0.264-2.697 0.212-1.248 0.036-2.731 0.992-3.715 0.75-0.82 1.924-0.838 2.933-1.076 0.454-0.126 1.024-0.259 1.123-0.802 0.258-1.060 0.493-2.154 1.087-3.089 0.621-0.941 1.507-1.74 2.585-2.11 0.958-0.387 2.015-0.379 3.029-0.437 0.066-0.591-0.072-1.294 0.44-1.734zM10.726 10.567c-1.373 0.961-1.871 2.683-1.998 4.275 2.219 0.005 4.439 0.002 6.659 0.003 0-1.647 0.002-3.293 0-4.94-1.549 0.048-3.292-0.255-4.661 0.661zM16.621 9.905c-0.001 1.647-0.002 3.293 0.001 4.94 2.218-0.002 4.436 0.005 6.655-0.004-0.134-1.565-0.592-3.286-1.957-4.229-1.36-0.989-3.134-0.661-4.699-0.707zM11.625 16.259c-0.002 0.137-0.001 0.275 0 0.412 0.251 0.017 0.498 0.027 0.749 0.041 0 0.691 0.005 1.383 0.006 2.074 0.13-0.010 0.393-0.031 0.523-0.041 0.015-0.664-0.002-1.329-0.021-1.994 0.331-0.090 0.822 0.001 0.834-0.505-0.698-0.011-1.395-0.005-2.092 0.013zM14.865 16.245c-0.317 0.863-0.706 1.7-0.965 2.584 0.313-0.034 0.549-0.205 0.702-0.464 0.196-0.337 0.669-0.143 0.98-0.231 0.14 0.363 0.303 0.801 0.814 0.717-0.282-0.893-0.673-1.744-1.008-2.618-0.13 0.003-0.392 0.009-0.522 0.012zM16.968 16.185c0.204 0.448 0.478 0.859 0.733 1.279-0.284 0.438-0.562 0.881-0.849 1.318 0.201-0.005 0.404-0.008 0.606-0.012 0.177-0.285 0.354-0.571 0.532-0.856 0.336 0.401 0.546 1.039 1.203 0.917-0.265-0.467-0.573-0.909-0.86-1.362 0.265-0.42 0.534-0.839 0.773-1.275-0.559-0.041-0.852 0.393-1.081 0.821-0.279-0.368-0.468-0.927-1.056-0.831zM19.861 16.228c0.004 0.853 0.005 1.704 0 2.558 0.131-0.010 0.393-0.030 0.525-0.040 0.013-0.828 0.012-1.656-0.004-2.484-0.13-0.008-0.391-0.025-0.521-0.034z"></path>
<path fill="#111" d="M15.115 16.843c0.118 0.309 0.235 0.619 0.355 0.929-0.237-0.002-0.464 0.006-0.698 0.006 0.118-0.31 0.232-0.622 0.343-0.935z"></path>
<path fill="#111" d="M8.236 19.275c1.627-0.042 3.142 1.31 3.255 2.934 0.258 1.785-1.318 3.559-3.124 3.518-1.743 0.159-3.341-1.448-3.305-3.168-0.074-1.721 1.452-3.282 3.174-3.284zM7.857 20.745c-1.051 0.209-1.711 1.451-1.27 2.434 0.277 0.771 1.113 1.268 1.924 1.152 0.94-0.103 1.701-1.029 1.596-1.972-0.086-1.052-1.198-1.926-2.25-1.613z"></path>
<path fill="#111" d="M23.668 19.274c1.6-0.045 3.107 1.261 3.255 2.856 0.23 1.5-0.792 3.071-2.25 3.479-1.325 0.418-2.87-0.134-3.635-1.292-0.75-1.117-0.734-2.714 0.132-3.765 0.576-0.792 1.534-1.224 2.498-1.277zM23.289 20.744c-0.863 0.203-1.512 1.116-1.38 2.002 0.114 0.955 1.062 1.743 2.034 1.585 1.056-0.084 1.831-1.226 1.556-2.235-0.179-0.967-1.268-1.607-2.211-1.352z"></path>
</svg>
