<!-- Generated by IcoMoon.io -->
<svg version="1.1" xmlns="http://www.w3.org/2000/svg" width="32" height="32" viewBox="0 0 32 32">
<path fill="#111" d="M18.625 4.875l2.25 9c0 0-0.063 0-0.063 0h-4.25l-2.25-1.625-0.25 0.375c-0.25 0.313-0.563 0.5-0.875 0.5-0.25 0-0.438-0.063-0.625-0.188-0.5-0.375-0.625-1.063-0.25-1.5l1.75-2.563c0.375-0.5 1-0.625 1.5-0.313 0.5 0.375 0.625 1.063 0.25 1.5l-0.25 0.438 2.75 2-1.875-7.625h-5.938v9h-2.125v-9h-1v9h-2.125v-9c-0.563-0.063-1-0.5-1-1.063 0-0.625 0.5-1.063 1.063-1.063h13.313c0.563 0 1.063 0.438 1.063 1.063 0 0.563-0.5 1.063-1.063 1.063zM15.063 22c0-2.813-1.438-5.25-3.625-6.688h8.688v8.25h-5.25c0.125-0.5 0.188-1 0.188-1.563zM27.688 21.688c1.938 0 3.5 1.563 3.5 3.5s-1.563 3.5-3.5 3.5c-1.875 0-3.5-1.563-3.5-3.5s1.625-3.5 3.5-3.5zM27.688 26.563c0.813 0 1.438-0.625 1.438-1.375s-0.625-1.375-1.438-1.375c-0.75 0-1.375 0.625-1.375 1.375s0.625 1.375 1.375 1.375zM30.938 17.375c0.625 0.125 1.063 0.688 1.063 1.313v4.063c-0.875-1.5-2.438-2.5-4.313-2.5-2.125 0-3.938 1.375-4.625 3.313h-1.563v-8.313l5.063 1.125v-0.188c0-0.313 0-0.563 0.063-0.875 0.375-1.313 1.375-2.313 2.688-2.625 0.625-0.125 1.188 0.25 1.313 0.813s-0.25 1.188-0.813 1.313c-0.5 0.125-0.938 0.5-1.063 0.938-0.063 0.188-0.063 0.313-0.063 0.438v0.688zM7.125 20.625c0.875 0 1.563 0.688 1.563 1.5 0 0.875-0.688 1.563-1.563 1.563s-1.563-0.688-1.563-1.563c0-0.813 0.688-1.5 1.563-1.5zM13.5 20.75c0.438 0.125 0.75 0.5 0.75 1v1.063c0 0.563-0.375 1-0.875 1.063-0.188 0.625-0.438 1.188-0.813 1.688 0.313 0.438 0.25 1-0.125 1.313l-0.75 0.813c-0.25 0.188-0.5 0.313-0.75 0.313s-0.5-0.063-0.688-0.25c-0.5 0.313-1.063 0.563-1.688 0.688-0.125 0.5-0.563 0.813-1.063 0.813h-1.063c-0.5 0-0.938-0.313-1.063-0.813-0.625-0.125-1.25-0.375-1.875-0.75-0.125 0.063-0.25 0.063-0.375 0.063-0.25 0-0.563-0.063-0.75-0.313l-0.813-0.75c-0.25-0.313-0.375-0.75-0.188-1.125-0.438-0.688-0.75-1.375-0.875-2.125-0.313-0.188-0.5-0.563-0.5-0.875v-1.125c0-0.375 0.188-0.688 0.5-0.875 0.188-0.875 0.5-1.625 1-2.313 0-0.313 0.063-0.625 0.313-0.875l0.75-0.75c0.25-0.313 0.625-0.375 1-0.313 0.688-0.438 1.5-0.75 2.313-0.875 0.188-0.25 0.5-0.438 0.875-0.438h1.063c0.438 0 0.813 0.25 1 0.625 0.688 0.188 1.375 0.5 2 0.938 0.375-0.125 0.75-0.063 1.063 0.25l0.813 0.75c0.313 0.375 0.375 0.875 0.125 1.313 0.313 0.563 0.563 1.188 0.688 1.875zM7.125 24.75c1.438 0 2.625-1.188 2.625-2.625s-1.188-2.625-2.625-2.625c-1.438 0-2.625 1.188-2.625 2.625s1.188 2.625 2.625 2.625z"></path>
</svg>
