<!-- Generated by IcoMoon.io -->
<svg version="1.1" xmlns="http://www.w3.org/2000/svg" width="32" height="32" viewBox="0 0 32 32">
<path fill="#111" d="M30.518 17.695c-0.020-0.968-0.147-1.908-0.372-2.806h-6.144c-0.808 0-1.465-0.699-1.465-1.558v-3.228c0-0.652 0.387-1.24 0.962-1.464l1.829-0.71c-1.674-1.119-3.648-1.768-5.761-1.768h-18.091v11.534zM11.798 9.615c0-0.212 0.167-0.383 0.372-0.383h5.189c0.206 0 0.372 0.172 0.372 0.383v4.649c0 0.212-0.167 0.383-0.372 0.383h-5.189c-0.206 0-0.372-0.172-0.372-0.383zM3.518 9.615c0-0.212 0.167-0.383 0.372-0.383h5.189c0.206 0 0.372 0.172 0.372 0.383v4.649c0 0.212-0.167 0.383-0.372 0.383h-5.189c-0.206 0-0.372-0.172-0.372-0.383z"></path>
<path fill="#111" d="M28.518 20.132c0.945 0 1.735-0.714 1.946-1.67h-28.988v1.67z"></path>
<path fill="#111" d="M11.165 23.082c0.987 0 1.79-0.87 1.79-1.941 0-0.078-0.006-0.158-0.018-0.242h-3.543c-0.012 0.084-0.018 0.164-0.018 0.242 0 1.071 0.803 1.941 1.789 1.941z"></path>
<path fill="#111" d="M4.263 9.998h4.444v3.882h-4.444z"></path>
<path fill="#111" d="M23.282 10.103v3.228c0 0.436 0.323 0.791 0.72 0.791h5.92c-0.723-2.243-2.082-4.23-3.872-5.654l-2.288 0.888c-0.288 0.111-0.481 0.411-0.481 0.746z"></path>
<path fill="#111" d="M12.543 9.998h4.444v3.882h-4.444z"></path>
<path fill="#111" d="M17.159 21.14c0 1.071 0.802 1.941 1.789 1.941s1.79-0.87 1.79-1.941c0-0.078-0.006-0.158-0.018-0.242h-3.543c-0.012 0.084-0.018 0.164-0.018 0.242z"></path>
<path fill="#111" d="M23.645 21.14c0 1.071 0.802 1.941 1.789 1.941s1.79-0.87 1.79-1.941c0-0.078-0.006-0.158-0.018-0.242h-3.543c-0.012 0.084-0.018 0.164-0.018 0.242z"></path>
<path fill="#111" d="M1.476 23.9h29.048v1.938h-29.048z"></path>
<path fill="#111" d="M4.679 23.082c0.987 0 1.79-0.87 1.79-1.941 0-0.078-0.006-0.158-0.018-0.242h-3.543c-0.012 0.084-0.018 0.164-0.018 0.242 0 1.071 0.803 1.941 1.789 1.941z"></path>
</svg>
