<!-- Generated by IcoMoon.io -->
<svg version="1.1" xmlns="http://www.w3.org/2000/svg" width="32" height="32" viewBox="0 0 32 32">
<path fill="#111" d="M15.519 4.89c0.323-0.217 0.764-0.171 1.064 0.065 1.775 1.188 3.555 2.369 5.33 3.557 0.482 0.307 0.516 1.079 0.063 1.428-0.983 0.682-1.999 1.317-2.978 2.006 2.47 0.011 4.941-0.001 7.411 0.006 0.802 0.006 1.525 0.622 1.693 1.4 0.419 1.474 0.842 2.948 1.263 4.422 0.092 0.319 0.138 0.651 0.136 0.983-0.002 1.351 0.002 2.702-0.002 4.053-0.007 0.918-0.822 1.731-1.74 1.739-7.84 0.003-15.68 0.003-23.52 0.002-0.919-0.007-1.731-0.822-1.739-1.74-0.005-1.332 0.001-2.665-0.002-3.997-0.004-0.353 0.040-0.707 0.139-1.045 0.4-1.402 0.802-2.803 1.202-4.205 0.087-0.33 0.187-0.667 0.407-0.935 0.318-0.411 0.826-0.661 1.344-0.674 2.47-0.008 4.94 0.005 7.41-0.007-0.824-0.581-1.676-1.122-2.512-1.688-0.259-0.184-0.584-0.327-0.711-0.64-0.181-0.38-0.043-0.875 0.308-1.107 1.81-1.208 3.62-2.416 5.433-3.621zM12.232 9.25c1.25 0.847 2.512 1.679 3.768 2.517 1.257-0.838 2.517-1.67 3.768-2.517-1.25-0.847-2.512-1.679-3.768-2.517-1.257 0.838-2.518 1.67-3.768 2.517zM5.393 14.658c-0.334 1.22-0.694 2.432-1.036 3.65-0.077 0.274-0.056 0.561-0.057 0.843 0.9 0 1.8 0 2.7 0 0-1.5 0-3 0-4.5-0.535 0.005-1.072-0.010-1.607 0.008zM8.8 14.65c0 1.5 0 3 0 4.5 1.2 0 2.4 0 3.6 0 0-1.5 0-3 0-4.5-1.2 0-2.4 0-3.6 0zM14.2 14.65c0 1.5 0 3 0 4.5 1.2 0 2.4 0 3.6 0 0-1.5 0-3 0-4.5-1.2 0-2.4 0-3.6 0zM19.6 14.65c0 1.5 0 3 0 4.5 1.2 0 2.4 0 3.6 0 0-1.5 0-3 0-4.5-1.2 0-2.4 0-3.6 0zM25 14.65c0 1.5 0 3 0 4.5 0.9 0 1.8 0.001 2.7-0.001-0.001-0.281 0.022-0.569-0.055-0.843-0.342-1.217-0.701-2.429-1.036-3.649-0.536-0.016-1.072-0.003-1.609-0.007z"></path>
<path fill="#111" d="M4.454 25.452c1.697-0.004 3.395-0.004 5.092 0-0.237 0.673-0.751 1.241-1.398 1.542-0.727 0.347-1.611 0.34-2.333-0.019-0.629-0.304-1.127-0.865-1.36-1.524z"></path>
<path fill="#111" d="M9.854 25.452c1.697-0.004 3.395-0.004 5.092 0-0.237 0.673-0.751 1.241-1.398 1.542-0.728 0.347-1.611 0.34-2.333-0.019-0.629-0.304-1.127-0.865-1.36-1.524z"></path>
<path fill="#111" d="M17.054 25.452c1.697-0.004 3.394-0.003 5.092 0-0.237 0.673-0.751 1.241-1.398 1.542-0.728 0.347-1.612 0.34-2.334-0.018-0.629-0.304-1.127-0.865-1.36-1.524z"></path>
<path fill="#111" d="M22.454 25.452c1.697-0.004 3.395-0.004 5.092 0-0.237 0.673-0.751 1.241-1.398 1.542-0.728 0.347-1.612 0.34-2.334-0.019-0.629-0.304-1.127-0.865-1.36-1.524z"></path>
</svg>
