<!-- Generated by IcoMoon.io -->
<svg version="1.1" xmlns="http://www.w3.org/2000/svg" width="32" height="32" viewBox="0 0 32 32">
<path fill="#111" d="M28.533 19.733c1.911 0 3.467 1.555 3.467 3.467s-1.556 3.467-3.467 3.467-3.467-1.555-3.467-3.467c0-1.911 1.555-3.467 3.467-3.467zM28.533 25.6c1.323 0 2.4-1.077 2.4-2.4s-1.077-2.4-2.4-2.4-2.4 1.077-2.4 2.4 1.076 2.4 2.4 2.4z"></path>
<path fill="#111" d="M0.533 16h0.533v-0.8c0-0.147 0.119-0.267 0.267-0.267h9.067c0.147 0 0.267 0.119 0.267 0.267v0.469c0 0.071 0.028 0.139 0.078 0.189l1.899 1.899c0.1 0.1 0.156 0.235 0.156 0.377v1.867c0 0.147 0.119 0.267 0.267 0.267h3.2c0.147 0 0.267-0.119 0.267-0.267v-11.2c0-0.147-0.119-0.267-0.267-0.267h-5.333c-0.148 0-0.267 0.119-0.267 0.267v4.8c0 0.147-0.119 0.267-0.267 0.267h-9.067c-0.147 0-0.267-0.119-0.267-0.267v-3.467c0-2.378 1.994-4.423 4.267-4.8 0.533 0 17.067 0 17.067 0 0.018 0 0.036 0.001 0.054 0.003 3.403 0.345 5.503 6.187 6.212 8.531h0.668c0.294 0 0.533 0.239 0.533 0.533v1.6c0 0.294-0.239 0.533-0.533 0.533h-1.6v1.093c0.175-0.018 0.353-0.027 0.533-0.027 1.315 0 2.578 0.482 3.556 1.358 0.22 0.196 0.238 0.533 0.042 0.753s-0.533 0.238-0.753 0.042c-1.594-1.427-4.133-1.549-6.041 0.238-0.802 0.751-1.075 1.842-1.071 2.94 0.002 0.296-0.238 0.536-0.533 0.536h-13.909c-0.26 1.806-1.814 3.2-3.691 3.2s-3.43-1.394-3.691-3.2h-0.576c-0.294 0-0.533-0.239-0.533-0.533v-3.733h-0.533c-0.294 0-0.533-0.239-0.533-0.533v-2.133c-0-0.294 0.239-0.533 0.533-0.533zM24.918 13.254c0.045 0.162 0.227 0.243 0.377 0.168l1.583-0.791c0.123-0.061 0.18-0.206 0.131-0.334-0.657-1.738-1.483-3.371-2.425-4.478-0.087-0.103-0.239-0.119-0.352-0.044l-0.524 0.349c-0.095 0.063-0.14 0.181-0.109 0.292l1.319 4.838zM17.6 13.6c0 0.147 0.119 0.267 0.267 0.267h5.764c0.176 0 0.303-0.167 0.257-0.337l-1.309-4.8c-0.031-0.116-0.137-0.196-0.257-0.196h-4.455c-0.148 0-0.267 0.119-0.267 0.267v4.8zM5.867 25.6c1.287 0 2.365-0.918 2.613-2.133h-5.226c0.247 1.215 1.325 2.133 2.613 2.133z"></path>
</svg>
