<!-- Generated by IcoMoon.io -->
<svg version="1.1" xmlns="http://www.w3.org/2000/svg" width="32" height="32" viewBox="0 0 32 32">
<path fill="#111" d="M16.761 15.995v-9.416c5.857-1.012 6.276-4.155 6.276-4.155-2.143-2.061-5.471 0.932-5.471 0.932-1.010 1.299-2.149 0.793-2.149 0.793l0.004 0.039c-3.010-0.88-4.492 0.327-4.492 0.327-0.411 2.603 3.248 2.622 4.311 2.574v8.906c-3.599 0.381-6.412 3.434-6.412 7.132 0 3.955 3.218 7.173 7.173 7.173s7.171-3.218 7.171-7.173c-0-3.698-2.813-6.751-6.411-7.132zM14.45 24.127l-0.849 0.851v-0.851h0.849zM17.394 22.117l1.376-1.378v1.378h-1.376zM15.24 21.593c-0.065 0.037-0.126 0.078-0.184 0.125l-1.906-1.905c0.584-0.503 1.3-0.853 2.090-0.992v2.772zM12.683 20.281l1.955 1.955c-0.084 0.172-0.134 0.36-0.148 0.56h-2.849c0.072-0.957 0.451-1.828 1.041-2.515zM12.435 23.459v2.198c-0.448-0.63-0.733-1.383-0.794-2.198h0.794zM13.143 26.374h0.457v-0.458l1.691-1.694c0.118 0.062 0.243 0.113 0.377 0.142v3.123c-0.977-0.074-1.864-0.469-2.557-1.081l0.032-0.032zM16.332 24.354c0.109-0.026 0.212-0.065 0.311-0.113l2.204 2.204c-0.687 0.59-1.558 0.97-2.514 1.042v-3.133zM19.315 25.976l-2.154-2.154c0.088-0.111 0.163-0.231 0.218-0.364h2.981c-0.072 0.958-0.453 1.83-1.044 2.518zM19.935 22.796v-1.573c0.234 0.482 0.383 1.012 0.425 1.573h-0.425zM16.882 21.691c-0.039-0.030-0.080-0.056-0.122-0.082v-2.772l0.001 0.012v-0.029c0.767 0.135 1.467 0.468 2.041 0.948l-1.92 1.923zM16.001 28.974c-3.224 0-5.848-2.622-5.848-5.847 0-2.966 2.222-5.416 5.087-5.791v0.815c-2.418 0.369-4.279 2.457-4.279 4.977 0 2.779 2.261 5.039 5.040 5.039 2.777 0 5.038-2.261 5.038-5.039 0-2.52-1.861-4.608-4.278-4.977v-0.815c2.865 0.375 5.086 2.826 5.086 5.791-0 3.224-2.623 5.847-5.846 5.847z"></path>
</svg>
