<!-- Generated by IcoMoon.io -->
<svg version="1.1" xmlns="http://www.w3.org/2000/svg" width="32" height="32" viewBox="0 0 32 32">
<path fill="#111" d="M32.188 18.5c0 0.688 0 1.313 0 2-0.313 0.25-0.563 0.625-0.875 0.688-0.813 0.125-1.625 0.063-2.375 0.063-0.625-2.125-1.563-3-3.188-3.063-1.563 0-2.438 0.813-3.188 3-4.188 0-8.313 0-12.438 0-0.5-1.938-1.375-2.875-2.938-2.938-1.938-0.125-2.938 1.063-3.375 2.75-0.625 0-1.188 0-1.75 0-0.75 0.063-1.375-0.063-1.875-0.688 0-2.375 0-4.75 0-7.125 0.125-0.813 0.188-1.688 0.375-2.5 0.125-0.688 0.438-1.313 0.688-1.938 6.563 0 13.125 0 19.75 0 1.875 0.625 3.25 1.938 4.625 3.25 1 1 2.063 1.938 3.25 2.688 1.5 1 2.875 2 3.313 3.813zM19.313 10.188c0.125 1.063 0.125 2.063 0.313 3.063 0.063 0.313 0.563 0.75 0.875 0.75 1.563 0.125 3.125 0.063 4.625 0.063-0.625-2.563-2.75-4.063-5.813-3.875zM28.063 21.375c0 1.313-1.063 2.313-2.375 2.313s-2.438-1.125-2.375-2.438c0-1.313 1.125-2.375 2.375-2.375 1.375 0 2.438 1.125 2.375 2.5zM9.313 21.25c0.063 1.313-1 2.375-2.313 2.438-1.375 0-2.438-1.063-2.438-2.375-0.063-1.25 1-2.375 2.313-2.438 1.313 0 2.438 1.063 2.438 2.375z"></path>
</svg>
