<!-- Generated by IcoMoon.io -->
<svg version="1.1" xmlns="http://www.w3.org/2000/svg" width="22" height="32" viewBox="0 0 22 32">
<path fill="#111" d="M1.469 30.125c0-0.125 0-0.188 0.063-0.313 0.063-0.188 0.125-0.375 0.25-0.5 1.188-1.938 2.375-3.875 3.563-5.813 0.125-0.188 0.188-0.438 0.25-0.688 0.188-0.938 0.438-1.813 0.625-2.75 0.25-1 0.438-2 0.625-3 0.25-0.938 0.375-1.813 0.563-2.75 0.188-0.75 0.313-1.5 0.5-2.313 0.063-0.313 0.125-0.563 0.188-0.875 0 0 0-0.063 0-0.063-0.063 0-0.063 0-0.063 0.063-0.5 0.25-1 0.563-1.438 0.938-0.125 0.125-0.188 0.188-0.313 0.313-0.188 0.188-0.25 0.438-0.313 0.688-0.125 0.5-0.25 1-0.313 1.563-0.125 0.5-0.188 1.063-0.25 1.625-0.063 0.313-0.125 0.563-0.125 0.813-0.063 0.25-0.188 0.438-0.375 0.625-0.375 0.25-0.75 0.313-1.188 0.25-0.125-0.063-0.25-0.125-0.375-0.125-0.375-0.25-0.5-0.563-0.438-0.938 0.125-0.688 0.25-1.438 0.375-2.125 0.125-0.75 0.25-1.438 0.438-2.188 0.063-0.438 0.188-0.938 0.375-1.375 0.063-0.188 0.125-0.313 0.25-0.438 0.375-0.375 0.813-0.688 1.25-1.063 1.25-1 2.5-1.938 3.75-2.875 0.25-0.125 0.5-0.313 0.75-0.5 0.5-0.25 1-0.375 1.563-0.313 0.688 0 1.188 0.313 1.688 0.813 0.125 0.188 0.313 0.375 0.5 0.563 0 0.063 0 0.125 0.063 0.125 0.438 1.188 0.875 2.375 1.438 3.5 0.188 0.375 0.375 0.688 0.563 1.063 0.125 0.25 0.313 0.438 0.563 0.625 0.813 0.5 1.563 1.063 2.313 1.563 0.438 0.25 0.813 0.5 1.188 0.75 0.375 0.188 0.5 0.563 0.563 0.938 0 0.313-0.063 0.563-0.25 0.813-0.25 0.313-0.75 0.5-1.188 0.438 0-0.063-0.063-0.063-0.125-0.063-1.125-0.688-2.188-1.313-3.25-2.063-0.188-0.125-0.375-0.25-0.563-0.438-0.375-0.25-0.625-0.563-0.875-0.875-0.313-0.563-0.563-1.063-0.875-1.625 0 0 0-0.063 0-0.063-0.063 0.25-0.125 0.438-0.188 0.688-0.25 1.125-0.5 2.313-0.813 3.5-0.063 0.313-0.125 0.563-0.188 0.875 0 0.063 0 0.063 0.063 0.125 0.5 0.563 1 1.063 1.5 1.625 0.938 1.063 1.875 2.125 2.688 3.188 0.125 0.125 0.25 0.313 0.313 0.438 0.25 0.313 0.375 0.625 0.5 1 0.125 0.625 0.313 1.25 0.375 1.938 0.125 0.5 0.188 1 0.313 1.5 0.063 0.5 0.125 0.938 0.188 1.438 0.063 0.438 0.125 0.938 0.188 1.375 0 0.25 0.063 0.5 0.063 0.75 0.063 0.438-0.125 0.813-0.5 1.063-0.25 0.25-0.625 0.375-1 0.438-0.063 0-0.125 0-0.188 0-0.125 0-0.25 0-0.375 0s-0.188 0-0.25-0.063c-0.688-0.063-1.188-0.563-1.25-1.25-0.125-0.563-0.188-1.125-0.313-1.688-0.125-0.688-0.25-1.313-0.375-2s-0.25-1.375-0.438-2c-0.125-0.313-0.25-0.625-0.438-0.875s-0.375-0.438-0.625-0.688c-0.875-1-1.813-1.938-2.75-2.938-0.063-0.125-0.188-0.188-0.25-0.25 0 0 0 0 0 0.063-0.25 1.125-0.438 2.25-0.688 3.375-0.063 0.375-0.125 0.688-0.313 1-0.188 0.438-0.438 0.938-0.688 1.375-1 1.75-2.063 3.438-3.125 5.125-0.125 0.188-0.25 0.313-0.438 0.438-0.313 0.188-0.688 0.25-1.125 0.25-0.375 0-0.75-0.125-1.063-0.313-0.25-0.25-0.563-0.5-0.688-0.875 0-0.063-0.063-0.188-0.063-0.313 0-0.063 0-0.188 0-0.25zM12.406 0c0.125 0.063 0.25 0.063 0.375 0.063 1 0.25 1.688 0.813 2 1.813 0.5 1.5-0.313 3.063-1.875 3.5-1.5 0.375-3.063-0.563-3.375-2.063-0.313-1.438 0.563-2.813 2-3.188 0.125-0.063 0.25-0.063 0.438-0.125 0 0 0 0 0 0 0.188 0 0.313 0 0.438 0z"></path>
</svg>
