<!-- Generated by IcoMoon.io -->
<svg version="1.1" xmlns="http://www.w3.org/2000/svg" width="32" height="32" viewBox="0 0 32 32">
<path fill="#111" d="M31.688 28.438c0.438 0.375 0.438 1.063 0 1.5-1.188 1.125-3.063 1.125-4.25 0-0.313-0.313-0.813-0.375-1.188-0.063v0.063c-1.125 1.125-3.063 1.125-4.188 0-0.375-0.313-0.938-0.313-1.25 0-1.125 1.063-3.125 1.063-4.188 0-0.313-0.313-0.938-0.313-1.25 0-0.563 0.563-1.313 0.875-2.063 0.875-0.813 0-1.563-0.313-2.125-0.875-0.188-0.188-0.375-0.25-0.625-0.25v0c-0.25 0-0.438 0.063-0.625 0.25-1.125 1.125-3.063 1.125-4.188 0-0.313-0.313-0.875-0.313-1.188 0-1.188 1.125-3.063 1.125-4.25 0-0.438-0.438-0.438-1.125 0-1.5 0.438-0.438 1.063-0.438 1.5 0 0.313 0.313 0.875 0.313 1.188 0 1.125-1.125 3.125-1.125 4.25 0 0.313 0.313 0.875 0.313 1.188 0 0.563-0.563 1.313-0.875 2.125-0.875v0c0.813 0 1.563 0.313 2.125 0.875 0.125 0.063 0.25 0.125 0.375 0.188-0.063-0.188-0.063-0.313-0.063-0.5l0.25-6.438c0 0-2.313-1.188-3.25-1.625-0.313-0.125-0.688-0.375-0.938-0.563-0.5-0.313-0.813-0.875-0.938-1.438l-1.5-8.75c-0.25-1.313 0.688-2.563 2-2.75 0.625-0.125 1.25 0 1.75 0.375 0.563 0.375 0.938 0.938 1 1.563l0.063 0.313 3.313 2.563h3.188v-1.375c0-0.375 0.25-0.75 0.625-0.875 0.313-0.125 0.75-0.063 1.063 0.188l2.438 2.5h8.875c0.313 0 0.5 0.188 0.5 0.5s-0.188 0.563-0.5 0.563l-8.813-0.063-2.5 2.688c-0.188 0.188-0.438 0.25-0.688 0.25-0.125 0-0.25 0-0.375-0.063-0.375-0.125-0.625-0.5-0.625-0.875v-1.313h-3.563c-0.25 0-0.438-0.125-0.625-0.25l-1.75-1.375 1.063 6.313 2.375 1.313c0.5 0.25 0.813 0.813 0.813 1.375l-0.25 6.688c0.75 0 1.563 0.313 2.125 0.875 0.313 0.313 0.875 0.313 1.188 0 1.125-1.125 3.125-1.125 4.25 0 0.313 0.313 0.875 0.313 1.188 0v0c1.125-1.125 3.063-1.125 4.25 0 0.313 0.313 0.875 0.313 1.188 0 0.438-0.438 1.063-0.438 1.5 0zM19 13.313v1.25l2.188-2.125-2.188-2.188v1.25c0.313 0.188 0.563 0.5 0.563 0.938 0 0.375-0.25 0.688-0.563 0.875zM9.625 6c-1.313 0.375-2.688-0.375-3.063-1.625-0.375-1.313 0.313-2.688 1.625-3.063 1.25-0.375 2.625 0.313 3.063 1.625 0.375 1.25-0.375 2.625-1.625 3.063zM0.75 25c-0.25 0.063-0.563-0.125-0.625-0.438-0.063-0.25 0.125-0.563 0.375-0.625 0.063 0 0.063 0 0.063 0v0c0 0 0.625-0.125 1.563-0.125 5.5-0.188 7.438 2.438 7.438 2.438 0 0.063 0 0.125 0 0.188-0.063 0.063-0.125 0.063-0.188 0 0 0-2-2.313-7.188-1.688-0.875 0.063-1.438 0.25-1.438 0.25zM4.75 22.5c-0.438 0.063-0.813-0.25-0.875-0.688s0.313-0.813 0.75-0.875c-0.063 0 0.125 0 0.438 0 0.25 0 0.688 0.063 1.125 0.125 5 1 5.75 5.25 5.75 5.25 0.063 0.063 0 0.188-0.125 0.188-0.063 0.063-0.125 0-0.188-0.063 0 0-1.313-3.75-5.625-3.938-0.375-0.063-0.688-0.063-0.938 0-0.188 0-0.313 0-0.313 0z"></path>
</svg>
