<!-- Generated by IcoMoon.io -->
<svg version="1.1" xmlns="http://www.w3.org/2000/svg" width="22" height="32" viewBox="0 0 22 32">
<path fill="#111" d="M10.088 0.106c0.836-0.175 1.736-0.039 2.475 0.393 0.779 0.444 1.376 1.2 1.622 2.063 0.271 0.919 0.148 1.951-0.349 2.772-0.518 0.883-1.437 1.519-2.447 1.679-0.801 0.138-1.646-0.020-2.346-0.431-0.706-0.408-1.259-1.072-1.536-1.838-0.325-0.892-0.272-1.919 0.159-2.766 0.467-0.949 1.384-1.661 2.422-1.871z"></path>
<path fill="#111" d="M6.441 8.381c0.461-0.241 0.966-0.437 1.493-0.433 1.856 0.002 3.711 0.004 5.566-0.001 0.98-0.048 1.873 0.476 2.624 1.052 1.521 1.238 2.536 2.976 3.317 4.747 0.896 2.066 1.487 4.251 1.933 6.454 0.125 0.558-0.181 1.177-0.711 1.398-0.293 0.144-0.628 0.111-0.939 0.056 0.361 1.532 0.726 3.063 1.086 4.596 0.277 1.116 0.507 2.246 0.814 3.354v0.322c-0.128 0.168-0.273 0.369-0.505 0.376-0.302 0.037-0.564-0.211-0.609-0.499-0.679-2.88-1.364-5.759-2.044-8.639-0.074-0.367-0.211-0.724-0.227-1.101-0.004-0.262 0.236-0.412 0.434-0.528-0.473-2.032-1.088-4.050-2.058-5.904-0.431-0.797-0.914-1.583-1.567-2.219-0.027 2.821-0.001 5.642-0.013 8.463 0.002 0.473-0.321 0.885-0.733 1.088-0.029-0.476 0.063-0.98-0.151-1.425-0.282-0.644-1.019-1.044-1.713-0.922-0.693 0.097-1.28 0.701-1.344 1.4-0.027 0.344-0.009 0.689-0.019 1.034-0.176-0.001-0.352-0.001-0.529 0-0.029-0.517 0.078-1.071-0.168-1.551-0.293-0.621-1.012-0.999-1.691-0.883-0.676 0.094-1.255 0.668-1.34 1.347-0.037 0.331-0.013 0.666-0.029 0.999-0.414-0.201-0.731-0.614-0.731-1.087-0.013-2.822 0.014-5.645-0.014-8.467-0.588 0.574-1.035 1.273-1.436 1.984-1.047 1.917-1.696 4.022-2.186 6.142 0.179 0.114 0.399 0.238 0.425 0.472 0.022 0.289-0.087 0.566-0.147 0.846-0.708 2.983-1.411 5.968-2.118 8.951-0.044 0.267-0.265 0.508-0.549 0.501-0.255 0.022-0.428-0.189-0.563-0.372v-0.326c0.165-0.543 0.272-1.1 0.409-1.65 0.496-2.101 0.996-4.2 1.49-6.301-0.412 0.092-0.878 0.066-1.211-0.221-0.383-0.297-0.546-0.821-0.43-1.288 0.587-2.831 1.384-5.662 2.819-8.193 0.832-1.416 1.891-2.782 3.364-3.572z"></path>
<path fill="#111" d="M3.98 19.476c0.070-0.398 0.427-0.72 0.833-0.729 0.439-0.031 0.861 0.323 0.912 0.758 0.029 0.267-0.070 0.525-0.125 0.783-0.376 1.619-0.776 3.232-1.14 4.854 0.955 0.006 1.909 0.006 2.864 0.001 0.007 0.417 0.004 0.834 0.003 1.251-1.059 0.006-2.117 0.001-3.176 0.003-0.377 1.62-0.764 3.238-1.146 4.856-0.081 0.429-0.506 0.76-0.944 0.711-0.388-0.027-0.731-0.343-0.793-0.726-0.034-0.199 0.024-0.396 0.067-0.589 0.883-3.724 1.763-7.449 2.644-11.173z"></path>
<path fill="#111" d="M16.393 18.831c0.389-0.194 0.912-0.046 1.129 0.334 0.141 0.251 0.171 0.544 0.242 0.819 0.858 3.635 1.721 7.269 2.579 10.904 0.096 0.386-0.107 0.816-0.466 0.986-0.344 0.178-0.798 0.090-1.051-0.203-0.184-0.196-0.219-0.471-0.281-0.721-0.356-1.519-0.721-3.036-1.075-4.555-1.057-0.007-2.114 0.006-3.171-0.006-0.006-0.416-0.011-0.831 0.004-1.247 0.954 0.002 1.908 0.006 2.862-0.001-0.401-1.768-0.834-3.529-1.246-5.295-0.108-0.396 0.099-0.846 0.474-1.016z"></path>
<path fill="#111" d="M8.582 18.955c0.453-0.128 0.973 0.009 1.292 0.358 0.239 0.247 0.365 0.591 0.356 0.934 0.001 2.814-0.001 5.629 0.001 8.444 0.004 0.328-0.105 0.66-0.327 0.906-0.361 0.418-1.006 0.56-1.506 0.319-0.472-0.204-0.779-0.712-0.759-1.223 0.003-2.836-0.002-5.673 0.002-8.509-0.008-0.56 0.406-1.081 0.941-1.228z"></path>
<path fill="#111" d="M12.332 18.956c0.759-0.241 1.629 0.369 1.646 1.167 0.012 2.856 0.001 5.712 0.005 8.569 0.008 0.329-0.106 0.66-0.326 0.906-0.352 0.405-0.971 0.552-1.465 0.336-0.471-0.186-0.801-0.672-0.798-1.179-0.002-2.73 0.001-5.461-0.002-8.191 0.003-0.232-0.014-0.468 0.041-0.696 0.117-0.431 0.468-0.792 0.899-0.912z"></path>
<path fill="#111" d="M6.438 21.479c0.296-0.005 0.592-0.006 0.888-0.001 0.004 0.779 0.003 1.559 0.001 2.338-0.297-0.001-0.594 0-0.891-0.003 0.004-0.778-0.001-1.556 0.003-2.334z"></path>
<path fill="#111" d="M10.547 21.479c0.178-0.003 0.355-0.004 0.532-0.003 0.004 0.78 0.004 1.56 0.001 2.341-0.178-0.002-0.356-0.003-0.533-0.004-0.006-0.778-0.007-1.556 0.001-2.334z"></path>
<path fill="#111" d="M14.3 21.48c0.295-0.009 0.591-0.009 0.886-0.001 0.002 0.778 0.002 1.556 0.001 2.334-0.296 0.006-0.592 0.003-0.888-0.001-0.005-0.777-0.007-1.555 0.001-2.332z"></path>
<path fill="#111" d="M10.551 25.144c0.175 0.001 0.351 0.001 0.526-0.001 0.008 0.417 0.004 0.834 0.002 1.252-0.178 0-0.355-0.001-0.532-0.003-0.007-0.416-0.011-0.832 0.003-1.247z"></path>
<path fill="#111" d="M5.817 29.019c0.509 0.009 1.019 0.005 1.529 0.004 0.088 0.392 0.298 0.761 0.626 1.002 0.514 0.393 1.27 0.429 1.814 0.075 0.386-0.236 0.637-0.642 0.739-1.076 0.191 0 0.382-0.001 0.572-0.002 0.090 0.391 0.297 0.761 0.624 1.001 0.502 0.384 1.235 0.431 1.776 0.101 0.407-0.231 0.675-0.651 0.779-1.1 0.509-0.003 1.019 0.006 1.529-0.004 0.004 0.593 0.011 1.185 0 1.777-3.331-0.004-6.661-0.004-9.991-0.001-0.007-0.593-0.006-1.185 0.001-1.778z"></path>
</svg>
