<!-- Generated by IcoMoon.io -->
<svg version="1.1" xmlns="http://www.w3.org/2000/svg" width="32" height="32" viewBox="0 0 32 32">
<path fill="#111" d="M17.125 23.5c0 2.375-1.938 4.375-4.375 4.375s-4.375-2-4.375-4.375c0-1.688 0.938-3.125 2.313-3.875-0.313-0.25-0.625-0.563-0.813-0.875-1.625 0.938-2.688 2.688-2.688 4.75 0 3.063 2.5 5.563 5.563 5.563s5.563-2.5 5.563-5.563c0-2.438-1.563-4.5-3.688-5.25-0.125 0.375-0.313 0.75-0.625 1.063 1.813 0.5 3.125 2.188 3.125 4.188zM15.563 5.563c-1.563 0-2.813-1.25-2.813-2.75 0-1.563 1.25-2.813 2.813-2.813s2.813 1.25 2.813 2.813c0 1.5-1.25 2.75-2.813 2.75zM8.75 16.188l0.625 1.438c-2 1.188-3.375 3.375-3.375 5.875 0 3.688 3 6.75 6.75 6.75s6.75-3.063 6.75-6.75c0-3.063-2.063-5.688-4.875-6.5 0-0.188-0.063-0.313-0.125-0.5l-2.375-5.25-0.688 1.313 1.938 4.438c0.313 0.688 0 1.5-0.688 1.813-0.188 0.063-0.375 0.063-0.563 0.063-0.5 0-1-0.25-1.25-0.813l-2.188-5c-0.188-0.375-0.188-0.813 0-1.188l1.063-2c1.125-2.125 2.813-3.313 4.688-3.375 0.063 0 0.375 0 0.438 0 1.313 0.063 2.375 1.188 2.375 2.5v6.875h5.75c0.875 0 1.563 0.688 1.688 1.5l0.875 8.125c0 0.313-0.063 0.563-0.125 0.813h1.938v1.75c0 1.438-0.75 2.313-1.875 2.5-0.25 0.75-0.938 1.313-1.813 1.313-1.063 0-1.875-0.813-1.875-1.875s0.813-1.875 1.875-1.875c0.813 0 1.5 0.5 1.75 1.25 0.375-0.125 0.75-0.375 0.75-1.313v-0.563h-1.313c-1.25 0-2.25-0.125-3.188-0.813 0.188-0.438 0.25-0.875 0.375-1.313 0.063-0.375 0-0.938 0-0.938l-0.563-5.188h-1.625c0.75 1.25 1.188 2.688 1.188 4.25 0 4.563-3.75 8.313-8.313 8.313s-8.313-3.75-8.313-8.313c0-3.125 1.75-5.875 4.313-7.313zM23.688 29.313c-0.375 0-0.688 0.313-0.688 0.688s0.313 0.688 0.688 0.688c0.375 0 0.688-0.313 0.688-0.688s-0.313-0.688-0.688-0.688z"></path>
</svg>
