<!-- Generated by IcoMoon.io -->
<svg version="1.1" xmlns="http://www.w3.org/2000/svg" width="32" height="32" viewBox="0 0 32 32">
<path fill="#111" d="M29.438 28.813c0.625 0.25 1.25 0.375 1.938 0.375v2.813c-0.688 0-1.313-0.125-1.938-0.375-0.625-0.313-1.313-0.5-1.938-0.5-0.688 0-1.313 0.188-1.938 0.5-0.625 0.25-1.25 0.375-1.875 0.375-0.688 0-1.313-0.125-1.875-0.375-0.688-0.313-1.313-0.5-2-0.5s-1.313 0.188-1.938 0.5c-0.625 0.25-1.25 0.375-1.875 0.375s-1.25-0.125-1.875-0.375c-0.625-0.313-1.25-0.5-1.938-0.5s-1.313 0.188-2 0.5c-0.563 0.25-1.188 0.375-1.875 0.375-0.625 0-1.25-0.125-1.875-0.375-0.625-0.313-1.25-0.5-1.938-0.5-0.625 0-1.313 0.188-1.875 0.5-0.688 0.25-1.313 0.375-2 0.375v-2.813c0.688 0 1.313-0.125 2-0.375 0.563-0.313 1.25-0.438 1.875-0.438 0.688 0 1.313 0.125 1.938 0.438 0.625 0.25 1.25 0.375 1.875 0.375 0.688 0 1.313-0.125 1.875-0.375 0.688-0.313 1.313-0.438 2-0.438s1.313 0.125 1.938 0.438c0.625 0.25 1.25 0.375 1.875 0.375s1.25-0.125 1.875-0.375c0.688-0.313 1.313-0.438 1.938-0.438 0.688 0 1.313 0.125 2 0.438 0.563 0.25 1.188 0.375 1.875 0.375 0.625 0 1.25-0.125 1.875-0.375 0.625-0.313 1.25-0.438 1.938-0.438 0.625 0 1.313 0.125 1.938 0.438zM3.938 15.875c-0.5 0-0.938-0.188-1.25-0.5-0.375-0.375-0.563-0.813-0.563-1.313 0-0.563 0.188-0.938 0.563-1.313 0.313-0.375 0.75-0.5 1.25-0.5 0.563 0 1 0.125 1.375 0.5s0.563 0.75 0.563 1.313c0 0.5-0.188 0.938-0.563 1.313-0.375 0.313-0.813 0.5-1.375 0.5zM9.813 17.875l-0.563 0.125h-1.938l1.625 4h3.563c0.438 0 0.688 0.063 0.813 0.188l3.563 3.188c0.563 0.5 0.563 1.063 0.063 1.625-0.313 0.25-0.563 0.375-0.875 0.375-0.375-0.063-0.625-0.188-0.938-0.375l-3-3h-5.313c-0.875 0-1.438-0.375-1.75-1.063l-2-4.313v-0.5c0-0.5 0.188-0.938 0.563-1.313s0.813-0.563 1.313-0.563h4.375l2.938-1.313c0.063 0 0.188-0.063 0.313-0.063 0.25 0 0.438 0.125 0.625 0.25 0.188 0.188 0.25 0.438 0.25 0.688 0 0.313-0.125 0.563-0.375 0.688zM30.188 18.75l-11.188 7-10.313-25.75c2.375 0.313 4.75 0.938 7.188 2 2.438 1 4.688 2.313 6.75 3.875s3.813 3.438 5.25 5.688c1.375 2.25 2.188 4.625 2.313 7.188zM16.313 14.438h0.25c1.188-0.25 2.313-0.375 3.375-0.438 1.125 0 2.063 0.063 2.813 0.188s1.438 0.375 2.125 0.688c0.688 0.313 1.188 0.625 1.625 0.875 0.375 0.313 0.75 0.625 1.125 1 0.375 0.438 0.563 0.688 0.688 0.875s0.25 0.375 0.375 0.563c0.063 0.125 0.188 0.125 0.375 0.125 0.375 0 0.5-0.125 0.5-0.5 0-0.063 0-0.188-0.125-0.375-0.75-1.438-1.875-2.563-3.25-3.313-1.438-0.75-2.875-1.125-4.313-1.188s-2.625 0-3.625 0.125c-1 0.063-1.688 0.25-2.188 0.375-0.188 0.063-0.25 0.25-0.25 0.5 0 0.313 0.188 0.5 0.5 0.5z"></path>
</svg>
